<?xml version="1.0" encoding="UTF-8"?>
<!DOCTYPE svg PUBLIC "-//W3C//DTD SVG 1.1//EN" "http://www.w3.org/Graphics/SVG/1.1/DTD/svg11.dtd">
<!-- Creator: CorelDRAW 2020 (64-Bit) -->
<svg xmlns="http://www.w3.org/2000/svg" xml:space="preserve" width="50mm" height="50mm" version="1.1" style="shape-rendering:geometricPrecision; text-rendering:geometricPrecision; image-rendering:optimizeQuality; fill-rule:evenodd; clip-rule:evenodd"
viewBox="0 0 5000 5000"
 xmlns:xlink="http://www.w3.org/1999/xlink"
 xmlns:xodm="http://www.corel.com/coreldraw/odm/2003">
 <defs>
  <style type="text/css">
   <![CDATA[
    .fil2 {fill:#EA3C00}
    .fil1 {fill:#FEFEFE;fill-rule:nonzero}
    .fil0 {fill:#EA3C00;fill-rule:nonzero}
    .fil3 {fill:#EA3C00;fill-rule:nonzero}
   ]]>
  </style>
 </defs>
 <g id="Layer_x0020_1">
  <metadata id="CorelCorpID_0Corel-Layer"/>
  <path class="fil0" d="M1733.31 3589.6l0 -936.73 -298.47 0 -241.77 542.74 -241.76 -542.74 -296.99 0 0 936.73 211.92 0 0 -696.94 280.57 696.94 92.53 0 280.56 -696.94 0 696.94 213.41 0zm638.77 17.91c284.15,0 490.93,-202.57 490.93,-485.32 0,-282.74 -206.78,-485.3 -490.93,-485.3 -282.75,0 -489.53,202.56 -489.53,485.3 0,282.75 206.78,485.32 489.53,485.32zm0 -177.25c-173.03,0 -284.16,-133.63 -284.16,-308.07 0,-175.83 111.13,-308.06 284.16,-308.06 173.02,0 285.56,132.23 285.56,308.06 0,174.44 -112.54,308.07 -285.56,308.07z"/>
  <path class="fil1" d="M3043.88 3547.94c0,26.71 21.02,45.86 47.77,45.86 22.93,0 43.95,-19.11 43.95,-45.86l0 -410.81c0,-3.82 0.83,-7.3 3.82,-15.29 14.2,-37.9 49.08,-134.22 112.74,-217.82 64.35,-84.53 149.03,-152.86 271.32,-152.86 24.84,0 45.86,-21.02 45.86,-45.86 0,-26.75 -21.02,-45.86 -45.86,-45.86 -179.61,0 -303.25,118.84 -374.5,229.29 -5.18,8.02 -9.56,15.29 -13.38,22.93l0 -206.36c0,-26.75 -21.02,-45.86 -43.95,-45.86 -26.75,0 -47.77,19.13 -47.77,45.86l0 842.64zm936.42 45.86c158.59,0 298.7,-83.7 378.33,-212.09 13.98,-22.55 6.33,-50.56 -15.28,-64.97 -18.53,-12.35 -47.55,-7.49 -61.15,15.29 -62.81,105.22 -177.7,170.06 -301.9,170.06 -192.99,0 -353.49,-154.78 -363.04,-359.23l768.12 0c24.84,0 45.86,-17.19 45.86,-42.03l0 -5.74 0 -1.91c0,-245.32 -210.19,-435.65 -450.94,-435.65 -252.22,0 -454.76,210.18 -454.76,470.05 0,256.04 202.54,466.22 454.76,466.22zm0 -844.55c171.97,0 321.01,128.02 351.58,303.81l-708.89 0c34.39,-177.7 181.52,-303.81 357.31,-303.81z"/>
  <path class="fil1" d="M3313.59 4467.64l0 -43.48 -192.14 0c109.29,-86.37 190.37,-159.24 190.37,-239.15 0,-78.14 -66.39,-115.16 -131.62,-115.16 -55.23,0 -106.35,22.32 -136.32,61.69l29.97 31.15c22.92,-29.39 59.35,-49.36 106.35,-49.36 40.55,0 81.68,21.74 81.68,71.68 0,67.57 -76.39,132.8 -217.41,243.85l0 38.78 269.12 0zm224.45 7.05c106.94,0 149.83,-107.53 149.83,-202.71 0,-95.78 -42.89,-202.13 -149.83,-202.13 -107.53,0 -149.83,106.35 -149.83,202.13 0,95.18 42.3,202.71 149.83,202.71zm0 -43.48c-74.62,0 -99.89,-81.09 -99.89,-159.23 0,-78.15 25.27,-158.65 99.89,-158.65 74.62,0 99.89,80.5 99.89,158.65 0,78.14 -25.27,159.23 -99.89,159.23zm333.16 36.43l0 -391.92 -42.89 0 -98.13 101.07 29.38 29.96 62.87 -66.39 0 327.28 48.77 0zm203.89 6.46c109.88,0 159.24,-96.36 159.24,-202.12 0,-106.94 -41.72,-202.72 -151.6,-202.72 -85.2,0 -136.91,60.52 -136.91,128.09 0,83.44 58.17,125.16 128.68,125.16 49.95,0 93.43,-34.08 110.47,-61.11 0.59,5.29 0.59,10.58 0.59,15.86 0,74.04 -31.15,153.36 -110.47,153.36 -40.54,0 -64.04,-16.45 -84.02,-39.95l-24.68 36.43c24.68,28.2 58.76,47 108.7,47zm10.58 -193.9c-50.53,0 -90.49,-27.03 -90.49,-84.61 0,-37.02 29.97,-82.85 89.9,-82.85 68.16,0 94.01,60.52 98.13,109.29 -20.57,34.67 -58.76,58.17 -97.54,58.17z"/>
  <path class="fil0" d="M867.54 3937.73l0 -217.79 -38.86 0 -67.91 163.91 -67.59 -163.91 -38.86 0 0 217.79 27.11 0 0 -179.26 73.79 179.26 11.1 0 74.12 -179.26 0 179.26 27.1 0zm62.04 -180.24c9.14,0 16.65,-7.18 16.65,-16.33 0,-9.14 -7.51,-16.65 -16.65,-16.65 -8.82,0 -16.33,7.51 -16.33,16.65 0,9.15 7.51,16.33 16.33,16.33zm12.41 180.24l0 -157.71 -24.49 0 0 157.71 24.49 0zm118.52 3.92c28.74,0 45.72,-11.76 57.8,-27.43l-16.33 -15.02c-10.45,14.04 -23.84,20.57 -40.16,20.57 -33.63,0 -54.53,-26.12 -54.53,-61.06 0,-34.94 20.9,-60.73 54.53,-60.73 16.32,0 29.71,6.2 40.16,20.57l16.33 -15.02c-12.08,-15.67 -29.06,-27.43 -57.8,-27.43 -47.01,0 -78.69,35.92 -78.69,82.61 0,47.02 31.68,82.94 78.69,82.94zm116.57 -3.92l0 -111.67c7.18,-12.74 27.75,-25.14 42.78,-25.14 3.92,0 6.85,0.32 9.79,0.98l0 -25.14c-21.55,0 -39.83,12.07 -52.57,28.73l0 -25.47 -24.49 0 0 157.71 24.49 0zm152.16 3.92c48,0 78.03,-37.23 78.03,-82.94 0,-45.71 -30.03,-82.61 -78.03,-82.61 -48,0 -78.04,36.9 -78.04,82.61 0,45.71 30.04,82.94 78.04,82.94zm0 -21.88c-33.63,0 -52.57,-28.73 -52.57,-61.06 0,-32 18.94,-60.73 52.57,-60.73 33.63,0 52.24,28.73 52.24,60.73 0,32.33 -18.61,61.06 -52.24,61.06zm167.83 21.88c40.81,0 62.04,-21.23 62.04,-47.67 0,-61.39 -97.63,-38.53 -97.63,-73.15 0,-14.04 13.38,-24.81 34.94,-24.81 20.24,0 37.54,8.49 47.01,19.92l11.43 -16.98c-12.73,-12.74 -31.67,-22.86 -58.44,-22.86 -37.55,0 -58.78,20.9 -58.78,45.39 0,58.44 97.63,34.93 97.63,73.14 0,15.67 -13.06,27.1 -37.22,27.1 -21.55,0 -41.47,-10.45 -51.92,-22.53l-12.73 17.63c16,16.98 37.87,24.82 63.67,24.82zm170.77 0c48,0 78.03,-37.23 78.03,-82.94 0,-45.71 -30.03,-82.61 -78.03,-82.61 -48,0 -78.04,36.9 -78.04,82.61 0,45.71 30.04,82.94 78.04,82.94zm0 -21.88c-33.63,0 -52.57,-28.73 -52.57,-61.06 0,-32 18.94,-60.73 52.57,-60.73 33.63,0 52.24,28.73 52.24,60.73 0,32.33 -18.61,61.06 -52.24,61.06zm149.22 17.96l0 -136.16 32 0 0 -21.55 -32 0 0 -12.08c0,-19.92 8.81,-31.02 24.81,-31.02 8.16,0 14.37,3.27 19.59,7.84l10.13 -16c-9.8,-9.15 -20.9,-12.09 -33.31,-12.09 -28.08,0 -45.71,18.94 -45.71,51.27l0 12.08 -26.12 0 0 21.55 26.12 0 0 136.16 24.49 0zm100.89 3.92c14.37,0 23.19,-4.25 29.39,-10.13l-7.19 -18.28c-3.26,3.59 -9.79,6.53 -16.65,6.53 -10.77,0 -16,-8.49 -16,-20.25l0 -97.95 32 0 0 -21.55 -32 0 0 -43.1 -24.49 0 0 43.1 -26.12 0 0 21.55 26.12 0 0 103.18c0,23.51 11.76,36.9 34.94,36.9zm240.65 0c64.32,0 108.07,-48.33 108.07,-112.65 0,-64.33 -43.75,-112.65 -108.07,-112.65 -64.66,0 -108.08,48.32 -108.08,112.65 0,64.32 43.42,112.65 108.08,112.65zm0 -24.17c-48.98,0 -80,-37.87 -80,-88.48 0,-50.94 31.02,-88.49 80,-88.49 48.65,0 79.99,37.55 79.99,88.49 0,50.61 -31.34,88.48 -79.99,88.48zm273.29 20.25l0 -136.16 32 0 0 -21.55 -32 0 0 -12.08c0,-19.92 8.82,-31.02 24.82,-31.02 6.2,0 10.45,1.63 14.04,3.92l6.2 -18.61c-6.2,-3.92 -14.69,-5.56 -23.83,-5.56 -27.43,0 -45.72,18.62 -45.72,51.27l0 12.08 -26.12 0 0 21.55 26.12 0 0 136.16 24.49 0zm73.47 -180.24c9.14,0 16.65,-7.18 16.65,-16.33 0,-9.14 -7.51,-16.65 -16.65,-16.65 -8.82,0 -16.33,7.51 -16.33,16.65 0,9.15 7.51,16.33 16.33,16.33zm12.41 180.24l0 -157.71 -24.49 0 0 157.71 24.49 0zm-178.28 0l0 -136.16 32 0 0 -21.55 -32 0 0 -12.08c0,-19.92 8.81,-31.02 24.81,-31.02 8.17,0 14.37,3.27 19.6,7.84l10.12 -16c-9.8,-9.15 -20.9,-12.09 -33.31,-12.09 -28.08,0 -45.71,18.94 -45.71,51.27l0 12.08 -26.12 0 0 21.55 26.12 0 0 136.16 24.49 0zm296.8 3.92c28.74,0 45.72,-11.76 57.8,-27.43l-16.33 -15.02c-10.45,14.04 -23.84,20.57 -40.16,20.57 -33.63,0 -54.53,-26.12 -54.53,-61.06 0,-34.94 20.9,-60.73 54.53,-60.73 16.32,0 29.71,6.2 40.16,20.57l16.33 -15.02c-12.08,-15.67 -29.06,-27.43 -57.8,-27.43 -47.01,0 -78.69,35.92 -78.69,82.61 0,47.02 31.68,82.94 78.69,82.94zm163.26 0c25.8,0 47.02,-8.49 62.7,-24.17l-11.76 -16c-12.41,12.74 -30.69,19.92 -48.65,19.92 -33.96,0 -54.86,-24.81 -56.81,-54.53l127.66 0 0 -6.2c0,-47.35 -28.08,-84.57 -75.75,-84.57 -45.06,0 -77.71,36.9 -77.71,82.61 0,49.31 33.63,82.94 80.32,82.94zm48.98 -92.73l-103.5 0c1.3,-24.17 17.95,-52.57 51.58,-52.57 35.92,0 51.59,29.05 51.92,52.57z"/>
  <path class="fil1" d="M3226.03 3971.51l-67.74 -102.37c34.25,-3.01 65.11,-27.85 65.11,-73.01 0,-46.29 -32.74,-75.64 -78.65,-75.64l-100.87 0 0 251.02 31.24 0 0 -99.73 50.06 0 63.97 99.73 36.88 0zm-85.05 -127.2l-65.86 0 0 -95.97 65.86 0c29.73,0 50.05,19.57 50.05,47.79 0,28.23 -20.32,48.18 -50.05,48.18zm201.34 131.72c29.73,0 54.2,-9.79 72.26,-27.85l-13.55 -18.44c-14.3,14.67 -35.37,22.95 -56.07,22.95 -39.14,0 -63.23,-28.6 -65.49,-62.85l147.15 0 0 -7.15c0,-54.57 -32.36,-97.47 -87.31,-97.47 -51.93,0 -89.57,42.53 -89.57,95.21 0,56.83 38.77,95.6 92.58,95.6zm56.45 -106.89l-119.3 0c1.51,-27.85 20.7,-60.59 59.47,-60.59 41.39,0 59.46,33.5 59.83,60.59zm101.62 102.37l0 -251.02 -28.23 0 0 251.02 28.23 0zm138.49 4.52c29.73,0 54.19,-9.79 72.26,-27.85l-13.55 -18.44c-14.3,14.67 -35.38,22.95 -56.08,22.95 -39.14,0 -63.22,-28.6 -65.48,-62.85l147.15 0 0 -7.15c0,-54.57 -32.36,-97.47 -87.31,-97.47 -51.94,0 -89.57,42.53 -89.57,95.21 0,56.83 38.76,95.6 92.58,95.6zm56.45 -106.89l-119.3 0c1.5,-27.85 20.7,-60.59 59.46,-60.59 41.4,0 59.46,33.5 59.84,60.59zm215.27 102.37l0 -124.95c0,-44.03 -31.99,-61.34 -70.38,-61.34 -29.73,0 -53.06,9.79 -72.63,30.11l13.17 19.57c16.18,-17.31 33.87,-25.22 55.7,-25.22 26.34,0 45.91,13.93 45.91,38.39l0 32.74c-14.68,-16.93 -35.38,-24.84 -60.21,-24.84 -30.87,0 -63.61,19.2 -63.61,59.84 0,39.52 32.74,60.22 63.61,60.22 24.46,0 45.16,-8.66 60.21,-25.22l0 20.7 28.23 0zm-78.28 -15.81c-26.35,0 -44.79,-16.56 -44.79,-39.51 0,-23.34 18.44,-39.89 44.79,-39.89 19.94,0 39.14,7.52 50.05,22.57l0 34.25c-10.91,15.06 -30.11,22.58 -50.05,22.58zm192.31 20.33c47.04,0 71.5,-24.47 71.5,-54.95 0,-70.75 -112.52,-44.41 -112.52,-84.3 0,-16.18 15.43,-28.6 40.26,-28.6 23.34,0 43.29,9.78 54.2,22.95l13.17 -19.56c-14.68,-14.68 -36.5,-26.35 -67.37,-26.35 -43.27,0 -67.73,24.08 -67.73,52.31 0,67.37 112.52,40.27 112.52,84.3 0,18.07 -15.05,31.24 -42.9,31.24 -24.84,0 -47.8,-12.04 -59.84,-25.97l-14.68 20.32c18.44,19.57 43.66,28.61 73.39,28.61zm199.46 0c29.73,0 54.19,-9.79 72.26,-27.85l-13.55 -18.44c-14.3,14.67 -35.38,22.95 -56.08,22.95 -39.14,0 -63.22,-28.6 -65.48,-62.85l147.15 0 0 -7.15c0,-54.57 -32.36,-97.47 -87.31,-97.47 -51.94,0 -89.57,42.53 -89.57,95.21 0,56.83 38.76,95.6 92.58,95.6zm56.45 -106.89l-119.3 0c1.51,-27.85 20.7,-60.59 59.46,-60.59 41.4,0 59.47,33.5 59.84,60.59z"/>
  <path class="fil2" d="M2360.84 821.95l329.64 -75.02 0 1210.79c-37.31,1.77 -368.9,-41.69 -436.8,-49.6l-407.43 -48.4c-25.02,-0.88 -21.05,1.66 -24.63,6.11 27.89,0.84 597.35,214.5 674.33,242.58 55.07,20.1 112.34,39 166.53,61.17 38.33,15.67 52.1,2.12 89.08,-9.18 143.23,-43.74 301.21,-97.28 440.24,-136.17 6.74,-229.98 0.3,-470.38 0.3,-701.53 0,-77.64 6.39,-672.44 -4.54,-695.73 -77.91,-19.95 -159.98,-52.71 -236.99,-77.28 -76.59,-24.43 -153.19,-50.09 -228.46,-75.71 -30.29,-10.31 -24.2,-8.07 -53.91,3.13l-388.07 145.35c-26.15,0.26 -211.64,74.57 -253.29,89.13 -47.8,16.71 -223.17,84.56 -253.48,90.54l0.06 1037.6 313.03 -133.85 -0.09 -816.67 274.48 -67.26z"/>
  <g id="_2367852536064">
   <polygon class="fil3" points="654.32,4349.93 848.76,4349.93 848.76,4155.49 654.32,4155.49 "/>
   <polygon class="fil3" points="879.2,4349.93 1073.64,4349.93 1073.64,4155.49 879.2,4155.49 "/>
   <polygon class="fil3" points="1104.09,4349.93 1298.52,4349.93 1298.52,4155.49 1104.09,4155.49 "/>
   <polygon class="fil3" points="1328.97,4349.93 1523.41,4349.93 1523.41,4155.49 1328.97,4155.49 "/>
   <polygon class="fil3" points="1553.85,4349.93 1748.29,4349.93 1748.29,4155.49 1553.85,4155.49 "/>
   <polygon class="fil3" points="1778.73,4349.93 1973.18,4349.93 1973.18,4155.49 1778.73,4155.49 "/>
   <polygon class="fil3" points="2003.62,4349.93 2198.06,4349.93 2198.06,4155.49 2003.62,4155.49 "/>
   <polygon class="fil3" points="2228.5,4349.93 2422.93,4349.93 2422.93,4155.49 2228.5,4155.49 "/>
   <polygon class="fil3" points="2453.38,4349.93 2647.82,4349.93 2647.82,4155.49 2453.38,4155.49 "/>
   <polygon class="fil3" points="2678.26,4349.93 2872.7,4349.93 2872.7,4155.49 2678.26,4155.49 "/>
  </g>
 </g>
</svg>
