<?xml version="1.0" encoding="UTF-8"?>
<!DOCTYPE svg PUBLIC "-//W3C//DTD SVG 1.1//EN" "http://www.w3.org/Graphics/SVG/1.1/DTD/svg11.dtd">
<!-- Creator: CorelDRAW 2020 (64-Bit) -->
<svg xmlns="http://www.w3.org/2000/svg" xml:space="preserve" width="40mm" height="40mm" version="1.1" style="shape-rendering:geometricPrecision; text-rendering:geometricPrecision; image-rendering:optimizeQuality; fill-rule:evenodd; clip-rule:evenodd"
viewBox="0 0 4000 4000"
 xmlns:xlink="http://www.w3.org/1999/xlink"
 xmlns:xodm="http://www.corel.com/coreldraw/odm/2003">
 <defs>
  <style type="text/css">
   <![CDATA[
    .str0 {stroke:#1C1B17;stroke-width:25.73;stroke-miterlimit:22.9256}
    .fil3 {fill:none}
    .fil2 {fill:none;fill-rule:nonzero}
    .fil0 {fill:#1C1B17}
    .fil4 {fill:#1C1B17;fill-rule:nonzero}
    .fil1 {fill:#1C1B17;fill-rule:nonzero}
   ]]>
  </style>
 </defs>
 <g id="Layer_x0020_1">
  <metadata id="CorelCorpID_0Corel-Layer"/>
  <g id="_2403118292848">
   <path class="fil0" d="M2007.28 1194.97c8.55,-2.27 -2.62,3.34 7.68,-25.13 -2.78,1.47 -5.33,2.76 -7.68,3.92l0 21.21z"/>
   <path class="fil0" d="M2593.29 1022.69c152.94,7.5 182.58,177.75 118.94,202.08 -6.32,-12.96 -6.17,-24.41 -4.42,-35.83 2.58,-16.41 -15.53,-25.99 -33.71,-9.44 4.84,-25.76 14.14,-44.2 5.91,-64.5 -6.41,-15.78 -29.23,-31.66 -43.73,-59.91 47.32,45.56 67.44,57.13 53.58,106.46 20.98,-12.89 27.07,7.89 30.36,23.45 26.29,-43.76 -10.23,-133.05 -126.93,-162.31z"/>
   <path class="fil0" d="M2632.91 1057.74c-10.47,-4.98 -28.56,8.96 -31.54,16.91 -2.99,7.94 8.24,36.92 -4.78,40.23 -12.98,3.31 -42.38,-1.25 -49.55,7.57 -7.15,8.78 7.02,49.89 7.02,49.89 0,0 -7.15,-34.91 5.58,-45.88 12.75,-10.97 54.62,11.63 55.53,-3.71 -3,-12.92 -8.13,-29.99 -4.24,-42.99 2.85,-9.45 12.31,-15.54 21.98,-22.02z"/>
   <path class="fil0" d="M2527.45 1135.68c0,0 0.08,15.75 -11.9,32.65 -18.98,26.78 -68.17,31.05 -94.78,17.53 -46.06,-23.36 -38.88,-41.59 -61.17,-59.22 -11.83,-9.34 -28.06,-15.92 -40.63,-20.03 -21.01,-6.85 -20.19,-14.68 -1.44,-30.9 13.33,-11.5 45.26,-26.02 91.91,-3.19 -56.01,-3.51 -87.01,2.95 -92.81,21.17 6.35,-2.89 44.3,2.74 59.58,24.74 26.66,38.45 33.74,55.08 77.93,58.12 45.82,3.15 73.31,-40.87 73.31,-40.87z"/>
   <path class="fil1" d="M2346.21 1010.54c-55.39,-25.58 -119.64,-65.84 -129.55,-127.87 -3.27,-20.37 1.24,-12.15 12.08,0.45 15.41,17.9 34.84,31.03 45.53,38.2l-27.02 -30.32c-11.57,-16.51 -21.5,-29.62 -31.67,-55.73 -8.53,-14.09 -10.93,11.59 -10.82,15.74 1.09,39.71 14.41,74.06 38.13,103.82 26.07,32.76 64.79,59.92 113.73,82.53l-10.41 -26.82z"/>
   <path class="fil0" d="M2415.21 976.35c0,0 5.03,-3.93 12.99,-5.58 7.97,-1.7 14.41,7.5 21.31,21.73 6.89,14.24 -11.05,-15.7 -20.72,-16.37 -9.67,-0.7 -13.58,0.22 -13.58,0.22z"/>
   <path class="fil0" d="M2437.93 982.4c0.19,0.64 -1.76,10.23 -10.21,9 -5.54,-0.78 -10.23,-8.9 -5.81,-12.97l4.01 -3.64 6.92 0.59c0,0 4.94,6.43 5.09,7.02z"/>
   <path class="fil0" d="M1421.27 1022.69c-152.92,7.5 -182.58,177.75 -118.93,202.08 6.33,-12.96 6.17,-24.41 4.41,-35.83 -2.56,-16.41 15.53,-25.99 33.73,-9.44 -4.84,-25.76 -14.15,-44.2 -5.92,-64.5 6.4,-15.78 29.22,-31.66 43.73,-59.91 -47.32,45.56 -67.45,57.13 -53.59,106.46 -20.97,-12.89 -27.07,7.89 -30.36,23.45 -26.29,-43.76 10.26,-133.05 126.93,-162.31z"/>
   <path class="fil0" d="M1381.65 1057.74c10.5,-4.98 28.55,8.96 31.55,16.91 2.99,7.94 -8.26,36.92 4.77,40.23 13,3.31 42.39,-1.25 49.56,7.57 7.16,8.78 -7.01,49.89 -7.01,49.89 0,0 7.15,-34.91 -5.59,-45.88 -12.74,-10.97 -54.61,11.63 -55.54,-3.71 3,-12.92 8.13,-29.99 4.25,-42.99 -2.86,-9.45 -12.31,-15.54 -21.99,-22.02z"/>
   <path class="fil0" d="M1487.11 1135.68c0,0 -0.07,15.75 11.91,32.65 18.97,26.78 68.17,31.05 94.77,17.53 46.05,-23.36 38.88,-41.59 61.19,-59.22 11.83,-9.34 28.03,-15.92 40.63,-20.03 20.98,-6.85 20.19,-14.68 1.42,-30.9 -13.32,-11.5 -45.24,-26.02 -91.9,-3.19 56.01,-3.51 87,2.95 92.81,21.17 -6.34,-2.89 -44.33,2.74 -59.59,24.74 -26.69,38.45 -33.74,55.08 -77.92,58.12 -45.83,3.15 -73.32,-40.87 -73.32,-40.87z"/>
   <path class="fil1" d="M1668.36 1010.54c55.4,-25.58 119.64,-65.84 129.54,-127.87 3.26,-20.37 -1.22,-12.15 -12.07,0.45 -15.41,17.9 -34.83,31.03 -45.55,38.2l27.03 -30.32c11.58,-16.51 21.52,-29.62 31.68,-55.73 8.53,-14.09 10.93,11.59 10.8,15.74 -1.08,39.71 -14.39,74.06 -38.1,103.82 -26.09,32.76 -64.79,59.92 -113.73,82.53l10.4 -26.82z"/>
   <path class="fil0" d="M1599.37 976.35c0,0 -5.04,-3.93 -13,-5.58 -7.97,-1.7 -14.4,7.5 -21.31,21.73 -6.9,14.24 11.04,-15.7 20.72,-16.37 9.67,-0.7 13.59,0.22 13.59,0.22z"/>
   <path class="fil0" d="M1576.63 982.4c-0.18,0.64 1.76,10.23 10.22,9 5.54,-0.78 10.23,-8.9 5.8,-12.97l-4.01 -3.64 -6.92 0.59c0,0 -4.92,6.43 -5.09,7.02z"/>
   <path class="fil0" d="M1854.89 697.68l5.74 0 53.43 64.17c-30.01,4.48 -53.17,30.12 -53.17,60.81l0 0c0,27.17 18.16,50.34 43.12,58.42 0.39,0.14 5.83,0.25 6.23,0.38l-43.78 51.52 -11.57 0 0 -235.3zm55.66 0l191.89 0 -52.77 63.5 -25.78 0 0 -0.42 -0.83 0 -33.12 0 -0.83 0 0 0.42 -25.81 0 -52.75 -63.5zm241.8 0l5.75 0 0 235.3 -11.58 0 -43.77 -51.52c0.41,-0.13 5.83,-0.24 6.22,-0.38 24.97,-8.08 43.12,-31.25 43.12,-58.42l0 0c0,-30.69 -23.15,-56.33 -53.16,-60.81l53.42 -64.17zm-55.75 235.3l-72.71 0 0 -15.01 0 -14.5 0 -107.06 57.92 0c17.15,0 31.2,10.76 31.2,26.25l0 0c0,15.45 -14.05,28.11 -31.2,28.11l-54.87 0 14.89 17.56 54.77 64.65zm-107.49 0l-72.74 0 54.8 -64.65 14.9 -17.56 -54.91 0c-17.15,0 -31.2,-12.66 -31.2,-28.11l0 0c0,-15.49 14.05,-26.25 31.2,-26.25l57.95 0 0 107.06 0 14.5 0 15.01z"/>
   <path class="fil1" d="M2094.88 629.77c1.52,-22.65 27.62,-61.17 56.1,-64.23 10.95,-8.74 57.51,-0.41 71.61,12.47 23.66,18.3 37.81,62.26 49.9,99.27 13.27,40.55 30.69,89.91 61.64,131.32 35.26,27.15 59.34,-19.8 73.87,40.21 3.28,7.98 1.16,22.6 5.98,25.39 4.82,2.77 16.53,-6.23 29.16,-5.1 33.33,-11.04 39.67,12.32 45.11,21.08 3.65,5.92 -1.08,17.45 5.4,21.2 14.32,8.24 39.1,5.89 53.65,5.23 13.88,-0.67 47.15,2.58 62.48,31.1 8.16,15.21 9.56,33.51 4.56,48.72 -4.41,13.42 -35.61,35.91 -51.75,40.28 -11.76,4.93 8.72,6.62 14,4.64 6.67,-2.5 15.82,-6.76 23.45,-10.08 23.67,-10.32 50.45,2.92 76.94,0.91 72.34,3.71 171.83,9.87 261.58,42.68 88.78,32.47 181.19,92.08 237.77,205.92 7.14,14.37 22.84,52.02 25.82,94.53 -17.4,-28.22 -38.83,-47.25 -66.23,-65.08 27.02,23.98 56.5,69.97 71.66,106.01 12.4,29.45 18.12,77.74 0.53,112.34 -2.68,46.77 16.43,68.14 24.65,114.06 0,0.04 -8.82,20.02 -6.23,46.93 3.18,32.49 21.35,73.82 19.28,85.35 40.66,-59.47 45.26,-59.05 22.08,-127.58 -3.36,-9.92 -36.41,-44.08 -31.81,-124.08 1.24,-21.65 2.47,-43.32 2.59,-65.59l0 -0.07 0.01 -5.78 0 -0.07c-0.14,-33.95 -4.4,-62.53 -12.4,-90.27 -8,-27.66 -19.58,-54.16 -34.48,-84.13 -60.4,-121.53 -151.54,-185.69 -246.48,-220.38 -93.95,-34.34 -190.75,-39.51 -264.95,-43.3 -30.37,-1.54 -37.29,-39.21 -47.93,-59.01 -23.9,-44.42 -55.09,-56.48 -80.01,-55.28 -20.14,0.91 -38.42,0.74 -49.66,-17.45 -6.62,-11.9 -12.53,-23.8 -33.81,-27.35 -16.7,-2.78 -34.24,8.15 -41.05,-9.94 -4.98,-13.29 -10.83,-28.88 -31.68,-38.47 -9.78,-4.51 -18.64,-6.68 -27,-8.73 -10.13,-2.47 -19.2,-4.7 -24.74,-11 -30.5,-34.77 -44.21,-76.63 -56.61,-114.59 -13.55,-41.38 -25.74,-78.57 -56.23,-102.14 -11.28,-8.69 -24.66,-14.62 -38.77,-17.54 -16.3,-3.34 -33.58,-2.64 -49.71,2.57 -16.33,5.23 -31.46,15.01 -43.22,29.7 -9.29,11.61 -16.41,26.26 -20.2,44.13l-2.03 14.9c-1.35,9.71 0.48,11.31 8.08,5.68 12.74,-9.45 21.26,-2.97 31.67,-11.79 9.71,7.85 9.44,27.8 22.84,21.03 4.37,-2.19 -6.4,-9.14 0.11,-21.63 12.92,-24.65 41.53,-21.14 47.86,-2.58 9.68,28.52 12.68,94.76 20.33,141.42 4.7,28.43 8.9,54.2 13.39,71.35l0 0.07 0.04 0.07c18.17,69.23 68.31,79.14 105.37,112.63 21.07,19 12.17,43.62 17.09,67.33 3.78,18.19 32.59,45.52 76.96,50.5 3.39,-1.31 -36.24,-22.74 -51.4,-40.57 -11.04,-12.99 -12.55,-29.34 -12.29,-34.85l0 -0.03c0.97,-20.24 -1.03,-33.42 -18.83,-49.52 -24.47,-22.11 -74.39,-50.25 -89.88,-75.62 -33.09,-54.09 -28.77,-136.09 -39.87,-197.79 -6.16,-34.29 -14.66,-61.06 -31.18,-68.27 -36.16,-15.8 -60.66,28.87 -83.13,18.87z"/>
   <path class="fil1" d="M3207.88 1525.78c-15.97,36.33 -28.27,100.63 -20.68,130.25 7.48,29.09 18.92,56.4 31.42,86.04l-0.02 0.01 0.06 0.1 0.05 0.05c5.59,13.3 7.66,28.29 8.16,42.93 0.2,5.74 1.44,14.32 -14.06,16.45 -0.1,3.38 14.31,7.11 14.98,10.41 2.34,11.71 8.55,22.79 11.1,32.52l1.69 6.27c4.65,16.89 -13.76,17.57 -18.22,17.43l-67.34 -5.6c-1.25,5 -36.82,10.43 -30,-13.68 2.96,-10.59 13.86,-22.9 29.38,-16.98 1.75,-8.09 -39.13,-14.32 -39.81,26.26 -0.14,7.62 -23.89,6.75 -23.87,-1.27 4.37,-29.21 12.3,-36.94 29.57,-29.86 1.38,-2.52 -6.23,-10.06 -5.22,-12.48 2.01,-4.79 12.57,-4.94 13.93,-10.38 -31.01,-26.88 7.48,-31.38 4.03,-39.8 -17.3,-42.23 -32.38,-69.5 -61.35,-98.11 -13.35,-13.17 -30.1,-28.72 -40.84,-46.75 -7.89,-13.21 -13.82,-29.92 -19.35,-66.44 -13.53,-42.1 -52.82,-167.33 -98.26,-181.87 5.5,6.42 12.43,17.4 19.35,30.32 3.34,6.17 6.65,12.8 9.86,19.61 13.81,29.38 24.91,61.76 21,73.57 -2.89,8.82 -7.79,21.18 -6.65,29.41 0.41,3.2 -7.23,13.29 -4.58,11.25 19.43,-14.85 41.51,12.99 41.31,28.08 4.34,64.17 9.16,46.89 70.86,112.05 13.64,14.35 20.15,31 29.26,46.94 9.31,16.36 12.42,40.29 9.81,61.91 -0.56,4.62 -1.34,9 -2.36,13.09 -1.02,3.99 -2.27,7.8 -3.75,11.34 -0.82,1.94 -1.63,3.59 -2.39,4.99l-2.51 4.61 -0.01 -0.01c-7.57,13.82 -13,23.83 -13.35,33.29 -0.68,18.06 10.48,25.81 42.52,26.97l103.62 3.69c26.15,0.94 34.54,-4.38 35.18,-21.03 0.19,-5.64 -1.31,-11.1 -3.34,-18.44 -0.96,-3.43 -1.31,-4.62 -1.67,-5.95 -2.25,-8.57 -9.12,-20.84 -8.73,-34.16 1.16,-37.18 -9.14,-67.83 -21.17,-98.62 -17.55,-45.02 -35.15,-83.49 -17.61,-178.41z"/>
   <path class="fil1" d="M2919.95 1598.97c-11.37,39.11 -30.63,94.27 -15.64,122.94 8.03,16.31 22.14,21.58 16.23,40.72l-0.03 -0.01c-5.98,12.35 -43.61,64.21 -27.12,74.47l-0.01 0.01c2.54,1.6 5.41,2.43 8.65,2.5 50.6,0.93 217.09,37.6 135.26,-62.17 -21.43,-34.32 11.25,-69.44 33.57,-93.62l-15.96 -17.28c-20.21,29.09 -52.03,72 -35.3,108.91 1.42,3.11 -10.56,3.95 -8.45,7.33 0.92,1.44 15.55,5.41 16.43,7.05 30.55,55.93 -49.42,38.53 -81.78,38.33 11.23,-10.58 10.11,-21.19 -0.13,-31.79 5.38,25.92 -20.37,36.29 -45.07,32.65 -9.48,-22.9 38.84,-39.21 45.99,-54.41 0,-0.01 -3.36,-24.88 -1.21,-25.5 42.81,-12.55 -3.69,-10.94 -9.64,-13.46 -47.89,-20.36 -4.22,-113.93 13.62,-141.33l-2.74 -1.76c-8.41,2.8 -17.61,7.48 -26.67,6.42z"/>
   <path class="fil1" d="M2997.54 1581.26c-42.78,9.78 -105.04,21.79 -156.01,0.86 -51.5,-21.12 -77.04,-38.86 -144.07,-86.85 -1.6,-1.15 -20.04,-18.4 -21.7,-19.61l-9.37 18.36c75.65,52.88 113.49,74.61 168.46,97.14 56.68,23.29 122.33,19.3 171.39,8.05l-8.7 -17.95z"/>
   <path class="fil0" d="M2965.02 1464.86c-12.22,124.21 -139.4,79.1 -234.01,33.07 51.86,45.71 199.66,96.09 250.45,9.27 0,0 -17.55,-43.41 -16.44,-42.34z"/>
   <path class="fil1" d="M3027.44 1147.11c-76.34,-38.64 -150.17,-63.11 -235.38,-94.97 67.17,9.84 169.15,42.24 246.06,90.24 54.34,33.93 111.55,96.77 133.67,157 -36.91,-36.08 -65.54,-112.4 -144.35,-152.27z"/>
   <path class="fil1" d="M2518.97 1218.88c-0.19,9.64 -24.82,97.29 -24.85,106.75 -0.18,91.72 7.69,176.76 31.82,262.92 2.22,7.91 10.7,38.33 16.35,67.93 8.01,41.82 8.46,74.03 -0.11,93.7 -20.76,16.26 -33.67,28.04 -35.29,42.31 -1.67,14.93 -3.21,22 4.66,25.82l0.99 -1.71 155.9 0c-1.3,2.98 -2.65,5.93 -4,8.88 10.41,-0.74 17.52,-2.83 18.86,-7.69 0.04,-0.11 5.78,-22.93 -7.08,-44.57 -11.65,-35.6 -12.67,-79.91 -7.61,-131.25 3.93,-39.96 4.51,-91.87 -1.67,-123.82 10.99,-7.13 26.75,-46.34 10.46,-119.02 -7.79,-34.76 0.27,-69.24 -1.24,-82.66 -11.21,26.29 -15.36,73.32 -9.14,116.09 3.23,22.27 3.37,37.5 -5.84,59.63 -17.49,25.56 -45.61,6.95 -43.18,-36.57 -16.02,60.49 24.3,65.49 36.63,66.58 6.12,31.64 2.14,129.98 -3.12,171.11 -0.94,11.14 -2.7,21.1 -3.54,31.04 -1.37,16.47 -17.55,22.44 -17.38,24.95 0.29,4.48 17.76,2.65 18.96,7.51 7.75,7.53 9.56,15.68 14.26,24.82 7.03,11.86 1.49,23.46 -3.47,28.58 -8.44,8.71 -60.96,3.63 -72.95,1.69 -49.64,-1.11 -31.49,-36.29 -16.75,-47.66 -12.09,3.26 -41.51,22.58 -22.21,44.81 -22.47,5.58 -28.37,1.74 -31.21,-5.89 7.94,-42.53 34.08,-30.6 41.17,-39.46 4.5,-5.69 6.52,-17.98 6.66,-34.01 0.15,-16.97 14.99,-20.15 10.76,-22 -11.85,-5.19 -12.69,-14.38 -13.21,-18.95 -2.71,-24.82 -7.5,-52.09 -13,-76.23 -2.49,-10.93 -5.08,-21.25 -7.64,-30.42 -2.62,-9.37 -5.2,-17.5 -7.59,-23.77l-0.04 -0.17 -0.04 -0.05c-15.14,-40.3 -25.88,-176.76 -20.35,-232.63l5.03 -106.59zm15.32 339.22l-15.32 -339.22 15.32 339.22z"/>
   <path class="fil1" d="M2461.47 1230.25c-47.18,68.67 -91.65,146.52 -150.34,202.41 -29.06,27.68 -72.97,68.51 -78.88,94.67l-0.01 0.11 -0.04 0.06c-2.81,12.53 -2.4,31.26 -1.97,50.27 0.5,22.51 1.03,44.2 -0.36,50.97l-2.87 0.26 -0.05 0.1c-2.06,2.83 -3.85,5.77 -5.43,8.75 -1.52,2.94 -2.83,5.92 -3.94,8.82 -17.93,46.74 13.38,40.88 41.12,42.24 15.59,0.78 34.81,1.97 50.25,1.97 30.52,0 56.33,1.64 58.4,-10.61l0.01 -0.13 1.32 -3.26c5.02,-24.63 -9.9,-35.7 -18.05,-49.09 -3.27,-15.28 1.91,-43.87 7.46,-50.2l0.03 -0.05 0.05 -0.02 0 0c0.83,-0.97 -0.19,-6.46 2.02,-8.54 22.42,-21.2 50.18,-47.94 74.7,-68.42 11.12,-9.25 28.39,-23.53 38.72,-25.53 10.22,-1.97 21.67,-2.94 35.94,2.56l9.16 -10.08c-19.6,-7.55 -36.17,-9.61 -51.93,-6.58 -15.63,3.02 -29.67,10.89 -44.5,23.26 -21.07,17.58 -42.84,45.15 -61.25,61.57 -3.46,3.06 -13.92,8.57 -16.79,11.3 -2.83,2.62 -6.37,0.32 -7.87,2.03l-0.06 0.03 -0.01 0.05 0 0c-6.11,7.04 3.5,24.44 2.34,38.78 -1.37,17.03 2.63,17.61 -7.69,37.61 13.42,6.52 26.56,13.58 22.72,32.51 -4.87,24.09 -64.6,12.07 -78.45,12.07 -21.04,7.77 -3.45,-15.26 -13.83,-22.03 -6.88,29.54 -24.89,16.1 -30.34,15.68 -18.8,-9.25 -1.13,-37.43 27.2,-41.85 -17.88,-14.83 -10.35,-28.53 0.67,-33.9 -17.75,-2.69 -17.75,-61.52 -1.37,-82.14 28.75,-36.19 42.82,-53.49 67.78,-77.28 8.23,-7.82 32.9,-40.74 42.6,-42.75 16.17,-3.37 17.23,31.33 21.1,11.08 3.14,-16.37 -4,-25.45 2.2,-41.61 15.83,-41.23 51.8,-87.89 73.3,-119.37l-3.06 -15.72z"/>
   <path class="fil0" d="M2411.72 1181.69c0,0 43.56,16.19 48.15,53.77 4.62,37.6 42.96,100.13 42.96,100.13 11.74,-50.9 -33.59,-67.08 -31.05,-101.44 1.18,-16.05 -10.89,-34.59 -19.18,-42.13l-40.88 -10.33z"/>
   <path class="fil0" d="M2514.42 1100.19c3.95,24.27 22.7,48.89 14.45,71.22 -22.58,60.84 -4.55,69.51 -9.65,103.37 -7,46.53 -8.45,67.74 31.23,36.7 21.5,-16.79 29.9,-48.6 80.47,-56.59 95.47,-15 102.93,-52.91 102.68,-53.1l-16.72 -14.32c-0.24,8.27 -4.14,-5.22 -6.4,0.76 -8.46,22.65 -29.48,31.29 -47.87,40.83 -41.48,21.57 -76.61,22.12 -127.93,72.75 -7.64,-30.77 -3.97,-66.66 5.58,-116.75 5.55,-29.24 -14.97,-49.93 -25.84,-84.87z"/>
   <path class="fil0" d="M2452.35 1734.78c-143.3,-109.92 -289.27,-50.97 -401.43,86.47 -4.54,5.58 -2.07,9.22 -6.53,15.07 116.05,-136.46 273.35,-210.11 409.09,-86.34 38.27,34.92 68.47,26.29 102.95,36.89 -48.64,-38.17 -68.78,-25.01 -104.08,-52.09z"/>
   <path class="fil0" d="M2557.45 1774.1c-33.48,-10.95 -60.77,50.89 -107.37,17.86 12.26,29.44 11.39,51.18 -0.02,78.98 -0.49,1.14 -16.34,-120.05 -119.7,-148.07 -103.89,-28.16 -199.73,22.93 -280.35,118.43 -3.9,4.62 -1.77,7.44 -5.62,12.3 85.79,-97.6 186.9,-150.17 294.03,-109 70.25,26.97 93.8,84.9 105.02,149.42 2.86,16.44 37.06,-37.83 19.61,-83.6 59.98,11.69 89.07,-34.57 94.4,-36.32z"/>
   <path class="fil0" d="M2051.65 1872.49c32.65,-43.76 108.74,-100.03 167.12,-110.52 50.89,-9.13 96.87,12.49 103.07,77.16 17.05,-9.29 26.27,5.43 44.92,-13.94 3.65,16.02 12.28,26.78 23.78,39.12 1.58,1.35 3.27,2.85 5.05,4.43l16.42 15.78c17.03,-29.66 18.48,-61.5 -15.29,-103.51 17.99,36.04 23.23,64.46 9.44,75.17 -17.1,-3.62 -29.17,-23.74 -37.83,-48.03 -10.78,18.58 -25.47,11.61 -39.42,17.04 -9.62,-62.97 -60.02,-81 -111.11,-71.79 -54.81,9.88 -142.78,68.82 -164.59,114.44 0,0 0.8,5.43 -1.56,4.65z"/>
   <path class="fil1" d="M2080.41 1871.26c1.31,0.75 61.76,-19.29 111.3,-19.35 38.35,-0.05 35.1,31.85 75.85,40.05 13.08,2.63 29.77,3.41 42.02,-2.65 19.68,-9.75 24.26,-32.34 -0.6,-40.5 -16.67,-5.49 -27.73,5.79 -28.01,23.39 -16.32,-2.14 -13.16,-45.22 27.65,-38.23 22.06,6.05 29.18,25.55 23.74,42.28 -9.51,8.91 -19.4,17.46 -29.64,25.56 -11.12,2.36 -24.09,1.3 -34.87,-0.93 -36.54,-7.54 -38.56,-33.8 -76.58,-36.76 -33.94,-2.62 -72.66,5.02 -93.75,10.02 -7.3,1.7 7.95,7.81 -8.49,-0.46l-8.62 -2.42z"/>
   <path class="fil0" d="M2068.88 1863.59c36.22,-28.56 75.37,-56.6 125.86,-57.85 25.06,-0.65 61.42,2.46 76.78,46.96 1.6,4.6 4.18,10.61 8.09,16.35 3.01,4.36 7.82,7.94 11.03,7 -13.73,7.38 -18.67,-1.69 -21.75,-9.36 -16.03,-39.55 -37.51,-52.43 -74.68,-51.97 -50.17,0.65 -90.9,26.05 -124.78,56.97l-0.55 -8.1z"/>
   <path class="fil0" d="M2221.54 1870.23c18.43,18.76 18.55,44.04 9.51,58.06 -15.81,24.4 -56.81,22.56 -58.26,-5.47 -4.11,-24.21 34.68,-38.54 39.6,-7.53 2.49,-13.93 -6.78,-24.97 -18.75,-27.58 -27.58,-5.99 -43.11,20.85 -33.32,44.27 13.31,31.87 54.09,29.21 71.39,13.09 19.26,-17.9 21.15,-51.51 -10.17,-74.84z"/>
   <path class="fil0" d="M2046.69 1922.19c-3.95,0.78 -8.34,-3.06 -8.48,-4.61 -4.06,-41.15 16.83,-148.01 57.15,-165.38 -21.8,-14.11 -34.72,-2.9 -46.53,10.57 -14.26,16.27 -21.83,82.91 -24.68,85.15 0,-4.84 10.93,-57.58 7.69,-96.02 -1.31,-15.4 -12.48,-33.1 -24.56,-42.41l0 -9.25c21.45,13.42 34.55,28.75 34.55,50.65 21.16,-14.54 37.43,-21.59 71.1,-2.43 -42.56,23.16 -80.12,132.91 -66.24,173.73z"/>
   <path class="fil0" d="M3130.97 2036.62c-179.65,119.69 -362.6,55.51 -503.14,-94.14 -5.72,-6.07 -2.62,-10.03 -8.24,-16.39 145.49,148.55 340.28,226.43 510.41,91.69 47.96,-38 82.87,-18.8 111.4,11.39 -45.68,-13.46 -66.2,-22.04 -110.43,7.45z"/>
   <path class="fil0" d="M3239.71 2028.26c-9.6,-38.88 -22.57,-80.03 -95.68,-57.45 15.33,-29.43 12.95,-32.18 18.39,-63.53 0.11,-0.68 -20.46,29.25 -62.26,64.46 -30.47,25.71 -71.89,56.64 -126.51,68.49 -109.6,23.81 -231.02,-18.26 -329.19,-103.04 -9.32,-8.06 -18.16,-16.32 -26.82,-24.69 0.85,-1.37 1.73,-2.7 2.6,-4.07 9.07,8.67 18.4,17.2 28.5,25.38 101.31,82.29 219.26,127.95 341.63,90.47 37.11,-11.38 72.18,-35.61 99.69,-61.8 37.71,-35.94 64.88,-73.88 96.24,-72.53 -14.41,34.13 -6.7,36.17 -19.42,63.29 75.15,-11.68 80.27,54.73 72.83,75.02z"/>
   <path class="fil0" d="M3154.12 1908.92c-8.1,-12.59 -34.49,11.09 -48.56,15.82 14.12,-29.44 -8.54,-35.99 -26.41,-40.18 -1.55,-0.33 -15.65,84.67 -134.67,112.83 -103.27,24.39 -217.99,-24.61 -309.39,-114.03 0.82,-1.45 1.6,-2.89 2.41,-4.33 95.08,87.17 207.25,138.75 323.09,100.15 80.92,-26.96 105.38,-80.86 116.23,-112.07 16.51,1.6 48.72,18.32 37.06,45.44 26.64,-22.42 56.53,-24.01 65.84,-20.74l-25.6 17.11z"/>
   <path class="fil0" d="M2652.49 1851.03c33.61,15.22 85.18,25.72 121.61,19.08 48.33,-8.8 79.4,-44.64 70.4,-80.69 12.49,0.17 44.59,5.7 39.97,49.41 -2.72,-17.51 -13.4,-38.29 -29.55,-37.98 8.4,31.41 -25.65,67.19 -83.42,76.6 -36.27,5.88 -86.15,-3.58 -119.68,-20.64 -0.85,-0.34 -1.45,-0.74 -1.87,-1.15 0.79,-1.56 1.61,-3.1 2.39,-4.68 0.06,0 0.12,0.03 0.15,0.05z"/>
   <path class="fil0" d="M2677.93 1915.9c17.55,10.71 43.96,25.58 64.7,32.56 52.35,17.6 120.87,5.31 148.79,0.06 11.11,-2.07 25.16,8.98 30.34,19.3 10.79,-1.98 27.82,-31.65 -0.85,-59.33 -8.63,2.27 -12.68,2.4 -13.29,3.98 6.2,2.32 11.21,4.33 15.29,8.76 9.68,10.5 9.26,24.93 -2.09,28.09 -18.63,-21.08 -42.66,-11.3 -66.23,-4.72 -30.63,8.63 -75.57,9.38 -111.28,-0.98 -22.23,-6.43 -45.99,-21.23 -66,-31.39 -3.6,2.3 -0.56,2.95 0.62,3.67z"/>
   <path class="fil0" d="M2920.33 1910.6c27.26,-6.66 35.92,-41.42 50.76,-50.29 -33.84,-32.76 -103.63,44.29 -168.94,46.9 -46.41,1.89 -102.34,-11.03 -157.22,-41.84 -1.06,1.97 -2.1,3.97 -3.19,5.93 88.7,51.84 195.29,59.45 278.12,3.97 10.03,-6.7 20.15,-12.5 31.46,-11.68 -17.34,18.83 -12.22,29.1 -44.9,48.59l13.91 -1.58z"/>
   <path class="fil0" d="M2858.44 1862.01c18.72,-13.05 23.26,-20.22 65.49,1.12l12.04 -8.1c-39.59,-19.46 -51.86,-22.86 -77.53,6.98z"/>
   <path class="fil0" d="M3059.42 1879.71c49.91,-31.05 200.96,26.85 305.21,-12.81 -44.41,79.87 -103.14,94.87 -204.15,58.24 -1.35,-0.5 3.96,-16.04 2.59,-16.58 -2.12,-0.77 -11.95,12.97 -14.15,12.22 -5.64,-1.84 6.42,-15.49 0.12,-18.21 -2.53,-1.1 -23.24,9.02 -25.88,7.83 -3.88,-1.72 -7.83,-3.56 -11.84,-5.48 -0.89,-1.31 7.47,-7.9 -27.63,-30.93 -3.37,-2.21 -4.94,15.47 -8.66,13.62 -5.12,-2.56 -10.32,-5.18 -15.61,-7.9zm52 9.3c34.56,-15.73 151.03,18.01 223.25,-2.08 -31.88,49.36 -93.74,39.22 -223.25,2.08z"/>
   <path class="fil0" d="M2879.67 1829.99c36.11,-26.59 145.4,23 220.83,-10.95 -33.3,83.46 -85.56,73.74 -220.83,10.95zm36.33 8.35c25.02,-13.49 110.57,15.07 162.81,-2.16 -23.05,42.29 -69.07,33.96 -162.81,2.16z"/>
   <path class="fil0" d="M2587.64 1956.34c-5.4,104.29 -27.39,176.47 -97.35,282.98 -11.91,18.19 -10.05,28.56 -12.97,59.31 -33.99,2.67 -70.11,-12.92 -65.92,-47.22 -22.98,11.67 -55.5,30.8 -82.33,14.14 1.29,-34.1 19.78,-54.38 44.39,-75.38 -7.19,-1.4 -13.08,-9.51 -18.94,-26.2 10.04,-2.88 34.47,-5.28 59.04,-16.55 37.01,-16.98 79.05,-48.31 99.84,-105.61 3.3,-3.25 6.57,-6.53 9.8,-9.83 -4.99,61.86 -59.55,109.33 -101.21,127.65 -22.13,9.76 -48.42,9.07 -54.26,11.72 4.49,11.1 13.77,14.88 24.51,14.5 -23.02,21.39 -46.37,41.49 -46.69,72.47 28.15,5.53 58.36,-12.56 84.96,-35.47 -24.94,57.84 12.97,59.8 33.71,65.62 -0.57,-22.07 5.27,-47.85 14.81,-61.82 67.91,-99.42 91.7,-176.43 97.5,-255.64 3.78,-4.84 7.47,-9.73 11.11,-14.67z"/>
   <path class="fil0" d="M2404.23 2216.55c73.51,-38.55 136.19,-100.05 152.69,-221.51 -4.36,5.11 -8.75,10.17 -13.24,15.16 -7.73,101.73 -71.7,158.66 -139.45,206.35z"/>
   <path class="fil0" d="M2677.65 2047.72c-4.81,24.01 6.94,44.26 20.17,50.97 23.08,11.72 52.42,-9.84 40.37,-32.87 -8.31,-21.34 -43.59,-13.78 -32.7,13.38 -8.37,-9.92 -6.71,-23.26 0.92,-31.2 17.5,-18.28 41.52,-4.47 45.24,18.97 5.14,31.98 -26.17,49.8 -46.44,45.42 -22.59,-4.87 -39.72,-30.72 -27.56,-64.67z"/>
   <path class="fil0" d="M2614.63 1917.24c16.91,17.91 44.18,51.06 58.49,91.35 6.33,17.81 7.48,37.1 6.24,57.45 -1.36,22.36 -6.36,41.89 -10.6,63.55 -3.02,15.29 -2.9,32.33 13.24,40.97 -18.05,-3.3 -21.95,-15.07 -22.17,-27.36 -0.43,-22.57 2.73,-46.04 3.76,-68.65 0.94,-20.45 1.12,-39.8 -1.86,-54.28 -9.4,-45.48 -26.96,-72.82 -48.58,-100.75 0.5,-0.76 0.99,-1.53 1.48,-2.28z"/>
   <path class="fil0" d="M2596.16 1944.58c6.21,11.56 12.64,26.72 13.95,41.4 1.86,20.77 -8.18,64.85 -19.32,80.86 -4.7,6.75 -0.63,-12.27 -0.72,-12.97 1.09,-3.26 2.1,-6.42 3.03,-9.54 11.93,-39.97 11.59,-72.02 1.83,-98.02l1.23 -1.73z"/>
   <path class="fil0" d="M2574.97 2067.74c13.67,11.23 22.33,16.02 36.51,12.9 -9.16,4.38 -18.57,13.09 -22.94,32.18 8.82,2.1 32.51,11.19 42.83,2.43 -1.39,19.27 5.66,39.51 16.61,52.37 10.95,12.87 25.02,20.5 35.86,18.66 -1.62,-0.71 -2.49,-6.81 -4.35,-6.93 -21.7,-1.59 -28.29,-10.5 -33.38,-27.55 -4.75,-15.83 -0.74,-39.45 5.26,-67.53 -17.87,26.84 -36.26,23.81 -46.78,18.05 6.17,-20.88 16.8,-19.15 26.9,-41.04 -13.98,1.74 -27.45,16.28 -41.91,5.18 5.02,-8.85 11.02,-28.08 7.49,-36.94 -7.37,25.33 -15.25,33.98 -22.1,38.22z"/>
   <path class="fil0" d="M2621.81 1971.64c10.99,24.99 21.09,61.07 8.42,91.87 -2.78,6.72 -15.72,22.39 -15.82,21.69 1.1,-3.21 3.21,-16.3 5.36,-19.43 14.39,-20.94 11.29,-63.24 0.05,-94.82l1.99 0.69z"/>
   <path class="fil0" d="M2668.84 1981.34c16.56,14.91 40.21,34.37 41.22,61.22 0.25,5.9 -8.02,25.65 -8.34,25.15 -0.28,-2.74 -3.13,-13.09 -2.59,-16.12 3.57,-20.17 -13.03,-50.41 -31.98,-70.09l1.69 -0.16z"/>
   <path class="fil0" d="M2644.04 2122.45c-35.55,-35.99 -62.74,35.55 -105.2,17.54 27.21,63.16 82.17,33.39 105.2,-17.54zm-13.83 5.21c-16.24,-12.36 -54.3,31.79 -79.52,22.21 36.22,30.59 68.66,3.45 79.52,-22.21z"/>
   <path class="fil0" d="M2678.99 1806.87c-1,2.91 30.64,0.97 27.68,30.13 -2.99,29.15 20.76,37.89 20.76,37.89l-46.47 -10.69 -29.69 -11.16c4,-7.81 7.81,-15.75 11.47,-23.76 8.3,-11.96 16.75,-23.92 16.25,-22.41z"/>
   <path class="fil0" d="M2040.34 1890.95c0.75,0.74 2.58,6.11 3.13,4.98 23.71,-49.83 70.65,-14.73 54.24,15.71 -8.88,16.54 -36.53,16.37 -38.81,-1.24 -2.66,-15.71 22,-22.87 25.21,-2.78 1.59,-9.02 -4.41,-16.18 -12.16,-17.87 -17.87,-3.88 -27.91,13.52 -21.59,28.7 8.63,20.65 39.06,20.39 50.57,7.07 23.31,-26.99 7.05,-60.43 -26.88,-61.7 -28.12,-1.06 -32.04,28.37 -33.71,27.13z"/>
   <path class="fil0" d="M2123.46 1966.44c-12.21,-5.69 -23.81,5.7 -7.06,8.97 26.53,5.16 44.65,-21.16 32.46,-41.35 -8.2,-13.6 -32.27,-14.9 -36.48,4.3 -2.68,15.69 23.97,20.16 27.16,0.06 1.6,9 -3.61,17.33 -15.68,19.39 -18.02,3.09 -29.45,-14.29 -23.14,-29.44 8.63,-20.64 39.08,-20.37 50.56,-7.07 23.3,26.98 8.4,62.06 -27.95,61.37 -56.95,-1.11 -13.76,-38.42 0.13,-16.23z"/>
   <path class="fil0" d="M2006.51 1916.33c54.63,0 98.96,28.61 98.96,63.88 0,2.46 -0.21,4.9 -0.63,7.26 -4.25,0.9 -8.53,1.75 -12.83,2.52 0.42,-2.09 0.65,-4.25 0.65,-6.43 0,-29.81 -41.17,-58.04 -85.72,-58.04 -44.51,0 -86.14,27.78 -86.14,57.59 0,2.37 0.25,4.72 0.75,7.03 -4.49,-0.82 -8.94,-1.7 -13.41,-2.66 -0.41,-2.36 -0.64,-4.81 -0.64,-7.27 0,-35.27 44.33,-63.88 99.01,-63.88z"/>
   <path class="fil1" d="M1919.68 629.77c-1.53,-22.65 -27.62,-61.17 -56.08,-64.23 -10.95,-8.74 -57.54,-0.41 -71.62,12.47 -23.66,18.3 -37.82,62.26 -49.91,99.27 -13.26,40.55 -30.69,89.91 -61.64,131.32 -35.25,27.15 -59.33,-19.8 -73.86,40.21 -3.28,7.98 -1.2,22.6 -5.98,25.39 -4.82,2.77 -16.55,-6.23 -29.17,-5.1 -33.3,-11.04 -39.67,12.32 -45.09,21.08 -3.67,5.92 1.06,17.45 -5.4,21.2 -14.34,8.24 -39.12,5.89 -53.65,5.23 -13.88,-0.67 -47.15,2.58 -62.49,31.1 -8.17,15.21 -9.57,33.51 -4.57,48.72 4.41,13.42 35.61,35.91 51.76,40.28 11.76,4.93 -8.72,6.62 -14,4.64 -6.68,-2.5 -15.82,-6.76 -23.45,-10.08 -23.67,-10.32 -50.44,2.92 -76.96,0.91 -72.32,3.71 -171.82,9.87 -261.57,42.68 -88.78,32.47 -181.17,92.08 -237.77,205.92 -7.13,14.37 -22.85,52.02 -25.82,94.53 17.41,-28.22 38.84,-47.25 66.24,-65.08 -27.03,23.98 -56.5,69.97 -71.66,106.01 -12.42,29.45 -18.13,77.74 -0.53,112.34 2.68,46.77 -16.45,68.14 -24.67,114.06 0,0.04 8.83,20.02 6.24,46.93 -3.16,32.49 -21.35,73.82 -19.28,85.35 -40.65,-59.47 -45.26,-59.05 -22.07,-127.58 3.35,-9.92 36.4,-44.08 31.82,-124.08 -1.24,-21.65 -2.48,-43.32 -2.6,-65.59l0 -0.07 0 -5.78 0 -0.07c0.12,-33.95 4.38,-62.53 12.39,-90.27 7.99,-27.66 19.58,-54.16 34.46,-84.13 60.41,-121.53 151.54,-185.69 246.49,-220.38 93.96,-34.34 190.75,-39.51 264.96,-43.3 30.36,-1.54 37.28,-39.21 47.92,-59.01 23.9,-44.42 55.09,-56.48 80.01,-55.28 20.14,0.91 38.43,0.74 49.66,-17.45 6.63,-11.9 12.51,-23.8 33.82,-27.35 16.69,-2.78 34.23,8.15 41.01,-9.94 5.01,-13.29 10.86,-28.88 31.72,-38.47 9.78,-4.51 18.65,-6.68 27,-8.73 10.1,-2.47 19.19,-4.7 24.74,-11 30.51,-34.77 44.22,-76.63 56.64,-114.59 13.51,-41.38 25.67,-78.57 56.19,-102.14 11.28,-8.69 24.67,-14.62 38.77,-17.54 16.3,-3.34 33.59,-2.64 49.72,2.57 16.33,5.23 31.47,15.01 43.2,29.7 9.3,11.61 16.42,26.26 20.21,44.13l2.04 14.9c1.34,9.71 -0.48,11.31 -8.08,5.68 -12.77,-9.45 -21.28,-2.97 -31.68,-11.79 -9.71,7.85 -9.44,27.8 -22.83,21.03 -4.35,-2.19 6.4,-9.14 -0.13,-21.63 -12.9,-24.65 -41.52,-21.14 -47.84,-2.58 -9.69,28.52 -12.7,94.76 -20.34,141.42 -4.7,28.43 -8.9,54.2 -13.38,71.35l0 0.07 -0.03 0.07c-18.18,69.23 -68.33,79.14 -105.39,112.63 -21.05,19 -12.16,43.62 -17.1,67.33 -3.77,18.19 -32.58,45.52 -76.94,50.5 -3.39,-1.31 36.26,-22.74 51.39,-40.57 11.05,-12.99 12.56,-29.34 12.3,-34.85l0 -0.03c-0.96,-20.24 1.02,-33.42 18.82,-49.52 24.51,-22.11 74.39,-50.25 89.9,-75.62 33.07,-54.09 28.75,-136.09 39.85,-197.79 6.19,-34.29 14.66,-61.06 31.18,-68.27 36.17,-15.8 60.66,28.87 83.13,18.87z"/>
   <path class="fil1" d="M806.69 1525.78c15.97,36.33 28.27,100.63 20.66,130.25 -7.47,29.09 -18.92,56.4 -31.42,86.04l0.04 0.01 -0.07 0.1 -0.05 0.05c-5.59,13.3 -7.67,28.29 -8.16,42.93 -0.19,5.74 -1.44,14.32 14.08,16.45 0.11,3.38 -14.32,7.11 -14.98,10.41 -2.39,11.71 -8.56,22.79 -11.11,32.52l-1.68 6.27c-4.67,16.89 13.72,17.57 18.2,17.43l67.33 -5.6c1.26,5 36.83,10.43 30.02,-13.68 -2.98,-10.59 -13.88,-22.9 -29.39,-16.98 -1.74,-8.09 39.13,-14.32 39.84,26.26 0.12,7.62 23.86,6.75 23.85,-1.27 -4.37,-29.21 -12.3,-36.94 -29.58,-29.86 -1.36,-2.52 6.26,-10.06 5.24,-12.48 -2.05,-4.79 -12.58,-4.94 -13.95,-10.38 31.01,-26.88 -7.48,-31.38 -4.01,-39.8 17.27,-42.23 32.36,-69.5 61.33,-98.11 13.32,-13.17 30.09,-28.72 40.86,-46.75 7.87,-13.21 13.78,-29.92 19.33,-66.44 13.53,-42.1 52.84,-167.33 98.27,-181.87 -5.5,6.42 -12.41,17.4 -19.37,30.32 -3.31,6.17 -6.64,12.8 -9.85,19.61 -13.79,29.38 -24.89,61.76 -20.98,73.57 2.87,8.82 7.77,21.18 6.65,29.41 -0.44,3.2 7.2,13.29 4.58,11.25 -19.43,-14.85 -41.52,12.99 -41.31,28.08 -4.33,64.17 -9.18,46.89 -70.9,112.05 -13.59,14.35 -20.13,31 -29.22,46.94 -9.33,16.36 -12.43,40.29 -9.83,61.91 0.55,4.62 1.35,9 2.37,13.09 1,3.99 2.26,7.8 3.75,11.34 0.83,1.94 1.62,3.59 2.37,4.99l2.54 4.61 0 -0.01c7.56,13.82 13,23.83 13.33,33.29 0.69,18.06 -10.47,25.81 -42.49,26.97l-103.62 3.69c-26.17,0.94 -34.57,-4.38 -35.19,-21.03 -0.19,-5.64 1.31,-11.1 3.34,-18.44 0.94,-3.43 1.31,-4.62 1.66,-5.95 2.27,-8.57 9.13,-20.84 8.72,-34.16 -1.14,-37.18 9.16,-67.83 21.2,-98.62 17.55,-45.02 35.14,-83.49 17.6,-178.41z"/>
   <path class="fil1" d="M1094.6 1598.97c11.4,39.11 30.65,94.27 15.67,122.94 -8.04,16.31 -22.15,21.58 -16.24,40.72l0.02 -0.01c6.02,12.35 43.61,64.21 27.12,74.47l0.01 0.01c-2.53,1.6 -5.39,2.43 -8.66,2.5 -50.56,0.93 -217.07,37.6 -135.25,-62.17 21.43,-34.32 -11.24,-69.44 -33.57,-93.62l15.96 -17.28c20.2,29.09 52.03,72 35.32,108.91 -1.4,3.11 10.52,3.95 8.43,7.33 -0.9,1.44 -15.53,5.41 -16.41,7.05 -30.55,55.93 49.4,38.53 81.77,38.33 -11.24,-10.58 -10.11,-21.19 0.11,-31.79 -5.37,25.92 20.4,36.29 45.08,32.65 9.49,-22.9 -38.85,-39.21 -45.97,-54.41 0,-0.01 3.34,-24.88 1.19,-25.5 -42.79,-12.55 3.7,-10.94 9.66,-13.46 47.85,-20.36 4.21,-113.93 -13.64,-141.33l2.74 -1.76c8.42,2.8 17.63,7.48 26.66,6.42z"/>
   <path class="fil1" d="M1017.06 1581.26c42.74,9.78 105,21.79 155.98,0.86 51.5,-21.12 77.06,-38.86 144.07,-86.85 1.6,-1.15 20.04,-18.4 21.69,-19.61l9.38 18.36c-75.65,52.88 -113.5,74.61 -168.44,97.14 -56.71,23.29 -122.37,19.3 -171.4,8.05l8.72 -17.95z"/>
   <path class="fil0" d="M1049.57 1464.86c12.19,124.21 139.36,79.1 233.97,33.07 -51.83,45.71 -199.65,96.09 -250.43,9.27 0,0 17.53,-43.41 16.46,-42.34z"/>
   <path class="fil1" d="M987.13 1147.11c76.34,-38.64 150.17,-63.11 235.38,-94.97 -67.17,9.84 -169.14,42.24 -246.07,90.24 -54.32,33.93 -111.54,96.77 -133.67,157 36.89,-36.08 65.56,-112.4 144.36,-152.27z"/>
   <path class="fil1" d="M1495.61 1218.88c0.18,9.64 24.8,97.29 24.84,106.75 0.18,91.72 -7.69,176.76 -31.83,262.92 -2.21,7.91 -10.69,38.33 -16.37,67.93 -8,41.82 -8.42,74.03 0.16,93.7 20.74,16.26 33.65,28.04 35.26,42.31 1.75,15.7 3.38,22.7 -5.92,26.37 -0.43,-0.76 -0.88,-1.54 -1.31,-2.26l-155.88 0c1.29,2.92 2.61,5.84 3.92,8.77 -9.49,-0.87 -15.93,-2.98 -17.21,-7.58 -0.06,-0.11 -5.78,-22.93 7.09,-44.57 11.63,-35.6 12.65,-79.91 7.6,-131.25 -3.93,-39.96 -4.52,-91.87 1.67,-123.82 -11,-7.13 -26.75,-46.34 -10.48,-119.02 7.8,-34.76 -0.25,-69.24 1.27,-82.66 11.19,26.29 15.35,73.32 9.12,116.09 -3.24,22.27 -3.37,37.5 5.84,59.63 17.48,25.56 45.61,6.95 43.17,-36.57 16.05,60.49 -24.28,65.49 -36.6,66.58 -6.15,31.64 -2.16,129.98 3.11,171.11 0.92,11.14 2.7,21.1 3.54,31.04 1.36,16.47 17.55,22.44 17.38,24.95 -0.32,4.48 -17.76,2.65 -18.97,7.51 -7.73,7.53 -9.54,15.68 -14.25,24.82 -7.02,11.86 -1.49,23.46 3.46,28.58 8.42,8.71 61,3.63 72.97,1.69 49.63,-1.11 31.47,-36.29 16.73,-47.66 12.08,3.26 41.52,22.58 22.23,44.81 22.45,5.58 28.36,1.74 31.2,-5.89 -7.97,-42.53 -34.09,-30.6 -41.18,-39.46 -4.5,-5.69 -6.48,-17.98 -6.65,-34.01 -0.16,-16.97 -14.99,-20.15 -10.75,-22 11.84,-5.19 12.68,-14.38 13.2,-18.95 2.71,-24.82 7.5,-52.09 13.03,-76.23 2.44,-10.93 5.06,-21.25 7.63,-30.42 2.6,-9.37 5.16,-17.5 7.57,-23.77l0.05 -0.17 0.03 -0.05c15.13,-40.3 25.89,-176.76 20.35,-232.63l-5.02 -106.59zm-15.33 339.22l0.02 0 -0.02 0z"/>
   <path class="fil1" d="M1553.09 1230.25c47.19,68.67 91.66,146.52 150.38,202.41 29.03,27.68 72.94,68.51 78.85,94.67l0 0.11 0.05 0.06c2.81,12.53 2.4,31.26 1.97,50.27 -0.5,22.51 -1.03,44.2 0.37,50.97l2.85 0.26 0.06 0.1c2.04,2.83 3.86,5.77 5.4,8.75 1.55,2.94 2.86,5.92 3.98,8.82 17.92,46.74 -13.39,40.88 -41.12,42.24 -15.61,0.78 -34.83,1.97 -50.28,1.97 -30.5,0 -56.31,1.64 -58.39,-10.61l-0.02 -0.13 -1.31 -3.26c-5.02,-24.63 9.91,-35.7 18.07,-49.09 3.27,-15.28 -1.92,-43.87 -7.47,-50.2l-0.07 -0.05 0 -0.02 0 0c-0.85,-0.97 0.18,-6.46 -2.04,-8.54 -22.42,-21.2 -50.18,-47.94 -74.69,-68.42 -11.11,-9.25 -28.39,-23.53 -38.74,-25.53 -10.2,-1.97 -21.67,-2.94 -35.92,2.56l-9.17 -10.08c19.63,-7.55 36.18,-9.61 51.92,-6.58 15.65,3.02 29.7,10.89 44.52,23.26 21.06,17.58 42.84,45.15 61.23,61.57 3.48,3.06 13.95,8.57 16.8,11.3 2.82,2.62 6.37,0.32 7.84,2.03l0.1 0.03 0.01 0.05 -0.01 0c6.11,7.04 -3.5,24.44 -2.34,38.78 1.39,17.03 -2.63,17.61 7.71,37.61 -13.46,6.52 -26.57,13.58 -22.73,32.51 4.86,24.09 64.6,12.07 78.45,12.07 21.04,7.77 3.46,-15.26 13.84,-22.03 6.86,29.54 24.87,16.1 30.33,15.68 18.79,-9.25 1.14,-37.43 -27.22,-41.85 17.89,-14.83 10.38,-28.53 -0.67,-33.9 17.77,-2.69 17.77,-61.52 1.38,-82.14 -28.75,-36.19 -42.82,-53.49 -67.78,-77.28 -8.22,-7.82 -32.88,-40.74 -42.61,-42.75 -16.16,-3.37 -17.23,31.33 -21.08,11.08 -3.13,-16.37 3.99,-25.45 -2.21,-41.61 -15.83,-41.23 -51.78,-87.89 -73.29,-119.37l3.05 -15.72z"/>
   <path class="fil0" d="M1602.84 1181.69c0,0 -43.56,16.19 -48.14,53.77 -4.61,37.6 -42.97,100.13 -42.97,100.13 -11.75,-50.9 33.61,-67.08 31.06,-101.44 -1.18,-16.05 10.89,-34.59 19.15,-42.13l40.9 -10.33z"/>
   <path class="fil0" d="M1500.13 1100.19c-3.94,24.27 -22.7,48.89 -14.41,71.22 22.53,60.84 4.54,69.51 9.63,103.37 6.99,46.53 8.45,67.74 -31.24,36.7 -21.48,-16.79 -29.9,-48.6 -80.48,-56.59 -95.44,-15 -102.91,-52.91 -102.69,-53.1l16.76 -14.32c0.21,8.27 4.13,-5.22 6.39,0.76 8.44,22.65 29.49,31.29 47.86,40.83 41.49,21.57 76.6,22.12 127.93,72.75 7.65,-30.77 3.96,-66.66 -5.57,-116.75 -5.56,-29.24 14.97,-49.93 25.82,-84.87z"/>
   <path class="fil0" d="M1562.22 1734.78c143.3,-109.92 289.28,-50.97 401.42,86.47 4.56,5.58 2.07,9.22 6.53,15.07 -116.05,-136.46 -273.36,-210.11 -409.07,-86.34 -38.27,34.92 -68.49,26.29 -102.96,36.89 48.64,-38.17 68.77,-25.01 104.08,-52.09z"/>
   <path class="fil0" d="M1457.12 1774.1c33.46,-10.95 60.76,50.89 107.37,17.86 -12.26,29.44 -11.4,51.18 0.02,78.98 0.46,1.14 16.35,-120.05 119.69,-148.07 103.89,-28.16 199.73,22.93 280.35,118.43 3.93,4.62 1.77,7.44 5.62,12.3 -85.8,-97.6 -186.89,-150.17 -294.04,-109 -70.22,26.97 -93.77,84.9 -105,149.42 -2.88,16.44 -37.06,-37.83 -19.62,-83.6 -59.96,11.69 -89.04,-34.57 -94.39,-36.32z"/>
   <path class="fil0" d="M1962.93 1872.49c-32.66,-43.76 -108.74,-100.03 -167.13,-110.52 -50.9,-9.13 -96.87,12.49 -103.06,77.16 -17.08,-9.29 -26.29,5.43 -44.93,-13.94 -3.17,13.93 -10.1,23.84 -19.38,34.32 -3.28,2.49 -6.92,5.56 -11.04,9.23l-15.38 14.82c-16.53,-29.45 -17.57,-61.01 15.85,-102.55 -18,36.04 -23.29,64.46 -9.49,75.17 17.09,-3.62 29.21,-23.74 37.87,-48.03 10.78,18.58 25.48,11.61 39.42,17.04 9.63,-62.97 60,-81 111.12,-71.79 54.78,9.88 142.78,68.82 164.55,114.44 0,0 -0.78,5.43 1.6,4.65z"/>
   <path class="fil1" d="M1934.15 1871.26c-1.3,0.75 -61.75,-19.29 -111.29,-19.35 -38.38,-0.05 -35.1,31.85 -75.85,40.05 -13.1,2.63 -29.78,3.41 -42.02,-2.65 -19.68,-9.75 -24.25,-32.34 0.59,-40.5 16.67,-5.49 27.73,5.79 28.02,23.39 16.32,-2.14 13.15,-45.22 -27.66,-38.23 -23.02,6.29 -29.77,27.34 -22.94,44.5 8.58,7.95 17.44,15.55 26.59,22.85 11.58,3 25.62,1.93 37.12,-0.44 36.54,-7.54 38.57,-33.8 76.59,-36.76 33.95,-2.62 72.65,5.02 93.73,10.02 7.32,1.7 -7.92,7.81 8.51,-0.46l8.61 -2.42z"/>
   <path class="fil0" d="M1945.67 1863.59c-36.21,-28.56 -75.34,-56.6 -125.83,-57.85 -25.06,-0.65 -61.42,2.46 -76.79,46.96 -1.6,4.6 -4.18,10.61 -8.11,16.35 -2.98,4.36 -7.8,7.94 -11,7 13.72,7.38 18.66,-1.69 21.75,-9.36 16.01,-39.55 37.51,-52.43 74.66,-51.97 50.17,0.65 90.91,26.05 124.79,56.97l0.53 -8.1z"/>
   <path class="fil0" d="M1793.01 1870.23c-18.41,18.76 -18.54,44.04 -9.49,58.06 15.77,24.4 56.8,22.56 58.24,-5.47 4.13,-24.21 -34.65,-38.54 -39.59,-7.53 -2.48,-13.93 6.8,-24.97 18.75,-27.58 27.61,-5.99 43.11,20.85 33.33,44.27 -13.32,31.87 -54.09,29.21 -71.4,13.09 -19.25,-17.9 -21.16,-51.51 10.16,-74.84z"/>
   <path class="fil0" d="M1967.87 1922.19c3.92,0.78 8.34,-3.06 8.5,-4.61 4.03,-41.15 -16.83,-148.01 -57.16,-165.38 21.8,-14.11 34.71,-2.9 46.53,10.57 14.26,16.27 21.83,82.91 24.68,85.15 0,-4.84 -10.94,-57.58 -7.69,-96.02 1.31,-15.4 12.48,-33.1 24.55,-42.41l0 -9.25c-21.44,13.42 -34.53,28.75 -34.53,50.65 -21.17,-14.54 -37.43,-21.59 -71.1,-2.43 42.55,23.16 80.1,132.91 66.22,173.73z"/>
   <path class="fil0" d="M883.61 2036.62c179.62,119.69 362.58,55.51 503.13,-94.14 5.72,-6.07 2.62,-10.03 8.23,-16.39 -145.49,148.55 -340.29,226.43 -510.41,91.69 -47.96,-38 -82.87,-18.8 -111.39,11.39 45.68,-13.46 66.2,-22.04 110.44,7.45z"/>
   <path class="fil0" d="M774.87 2028.26c9.59,-38.88 22.56,-80.03 95.69,-57.45 -15.36,-29.43 -12.97,-32.18 -18.42,-63.53 -0.12,-0.68 20.47,29.25 62.26,64.46 30.5,25.71 71.91,56.64 126.51,68.49 109.61,23.81 231.02,-18.26 329.2,-103.04 8.94,-7.77 17.5,-15.71 25.83,-23.75 -0.85,-1.35 -1.74,-2.71 -2.59,-4.08 -8.77,8.34 -17.8,16.58 -27.52,24.45 -101.31,82.29 -219.27,127.95 -341.62,90.47 -37.13,-11.38 -72.18,-35.61 -99.7,-61.8 -37.72,-35.94 -64.86,-73.88 -96.23,-72.53 14.41,34.13 6.71,36.17 19.39,63.29 -75.13,-11.68 -80.26,54.73 -72.8,75.02z"/>
   <path class="fil0" d="M860.46 1908.92c8.11,-12.59 34.47,11.09 48.54,15.82 -14.11,-29.44 8.57,-35.99 26.41,-40.18 1.54,-0.33 15.65,84.67 134.68,112.83 102.89,24.29 217.13,-24.24 308.38,-113.04 -0.84,-1.45 -1.66,-2.88 -2.44,-4.35 -94.87,86.59 -206.64,137.65 -322.06,99.18 -80.92,-26.96 -105.36,-80.86 -116.22,-112.07 -16.53,1.6 -48.74,18.32 -37.06,45.44 -26.65,-22.42 -56.53,-24.01 -65.82,-20.74l25.59 17.11z"/>
   <path class="fil0" d="M1360.91 1851.53c-33.6,14.94 -84.43,25.16 -120.43,18.58 -48.34,-8.8 -79.43,-44.64 -70.42,-80.69 -12.49,0.17 -44.59,5.7 -39.97,49.41 2.73,-17.51 13.4,-38.29 29.54,-37.98 -8.36,31.41 25.67,67.19 83.44,76.6 36.27,5.88 86.15,-3.58 119.69,-20.64 0.24,-0.1 0.48,-0.23 0.7,-0.33 -0.86,-1.65 -1.71,-3.27 -2.55,-4.95z"/>
   <path class="fil0" d="M1336.63 1915.9c-17.55,10.71 -43.94,25.58 -64.71,32.56 -52.37,17.6 -120.86,5.31 -148.76,0.06 -11.12,-2.07 -25.17,8.98 -30.36,19.3 -10.79,-1.98 -27.81,-31.65 0.84,-59.33 8.66,2.27 12.7,2.4 13.31,3.98 -6.2,2.32 -11.19,4.33 -15.29,8.76 -9.69,10.5 -9.27,24.93 2.11,28.09 18.61,-21.08 42.64,-11.3 66.22,-4.72 30.63,8.63 75.56,9.38 111.28,-0.98 22.23,-6.43 45.98,-21.23 66.02,-31.39 3.58,2.3 0.52,2.95 -0.66,3.67z"/>
   <path class="fil0" d="M1094.24 1910.6c-27.28,-6.66 -35.93,-41.42 -50.76,-50.29 33.83,-32.76 103.63,44.29 168.93,46.9 46.03,1.86 101.5,-10.85 155.99,-41.18 1.07,2.01 2.13,3.97 3.21,5.94 -88.43,51.24 -194.44,58.53 -276.9,3.3 -10.05,-6.7 -20.16,-12.5 -31.48,-11.68 17.35,18.83 12.24,29.1 44.92,48.59l-13.91 -1.58z"/>
   <path class="fil0" d="M1156.14 1862.01c-18.72,-13.05 -23.28,-20.22 -65.5,1.12l-12.03 -8.1c39.57,-19.46 51.84,-22.86 77.53,6.98z"/>
   <path class="fil0" d="M1134.9 1829.99c-36.09,-26.59 -145.39,23 -220.84,-10.95 33.31,83.46 85.56,73.74 220.84,10.95zm-36.32 8.35c-25.01,-13.49 -110.59,15.07 -162.83,-2.16 23.07,42.29 69.09,33.96 162.83,2.16z"/>
   <path class="fil0" d="M1427.04 1958.64c5.62,103.08 27.81,174.95 97.22,280.68 11.92,18.19 10.07,28.56 12.99,59.31 33.98,2.67 70.11,-12.92 65.92,-47.22 22.98,11.67 55.5,30.8 82.33,14.14 -1.3,-34.1 -19.78,-54.38 -44.4,-75.38 7.19,-1.4 13.08,-9.51 18.93,-26.2 -10.02,-2.88 -34.47,-5.28 -59.03,-16.55 -36.47,-16.73 -77.86,-47.44 -98.94,-103.18 -3.53,-3.46 -7.07,-6.98 -10.52,-10.48 5.85,60.99 59.79,107.7 101.03,125.87 22.13,9.76 48.42,9.07 54.26,11.72 -4.49,11.1 -13.78,14.88 -24.48,14.5 22.99,21.39 46.36,41.49 46.66,72.47 -28.13,5.53 -58.33,-12.56 -84.97,-35.47 24.96,57.84 -12.97,59.8 -33.69,65.62 0.57,-22.07 -5.29,-47.85 -14.82,-61.82 -67.29,-98.49 -91.26,-175 -97.35,-253.42 -3.75,-4.83 -7.48,-9.68 -11.14,-14.59z"/>
   <path class="fil0" d="M1610.33 2216.55c-73.06,-38.34 -135.46,-99.29 -152.39,-219.33 4.31,5.03 8.67,10 13.1,14.89 8.39,100.52 71.98,157.04 139.29,204.44z"/>
   <path class="fil0" d="M1336.93 2047.72c4.79,24.01 -6.95,44.26 -20.18,50.97 -23.08,11.72 -52.41,-9.84 -40.39,-32.87 8.34,-21.34 43.62,-13.78 32.74,13.38 8.33,-9.92 6.7,-23.26 -0.92,-31.2 -17.52,-18.28 -41.55,-4.47 -45.28,18.97 -5.13,31.98 26.17,49.8 46.45,45.42 22.59,-4.87 39.74,-30.72 27.58,-64.67z"/>
   <path class="fil0" d="M1398.99 1918.22c-16.98,18.17 -43.49,50.8 -57.56,90.37 -6.32,17.81 -7.47,37.1 -6.22,57.45 1.36,22.36 6.38,41.89 10.6,63.55 3.02,15.29 2.91,32.33 -13.26,40.97 18.08,-3.3 21.95,-15.07 22.19,-27.36 0.42,-22.57 -2.73,-46.04 -3.77,-68.65 -0.93,-20.45 -1.1,-39.8 1.9,-54.28 9.26,-44.89 26.46,-72.08 47.68,-99.62 -0.53,-0.8 -1.03,-1.6 -1.56,-2.43z"/>
   <path class="fil0" d="M1417.73 1945.86c-5.96,11.39 -12.04,25.97 -13.27,40.12 -1.85,20.77 8.19,64.85 19.31,80.86 4.71,6.75 0.61,-12.27 0.71,-12.97 -1.07,-3.26 -2.08,-6.42 -3.02,-9.54 -11.72,-39.22 -11.57,-70.81 -2.37,-96.54l-1.36 -1.93z"/>
   <path class="fil0" d="M1439.6 2067.74c-13.68,11.23 -22.34,16.02 -36.5,12.9 9.15,4.38 18.57,13.09 22.93,32.18 -8.83,2.1 -32.51,11.19 -42.83,2.43 1.4,19.27 -5.66,39.51 -16.61,52.37 -10.99,12.87 -25,20.5 -35.85,18.66 1.61,-0.71 2.48,-6.81 4.32,-6.93 21.72,-1.59 28.31,-10.5 33.42,-27.55 4.74,-15.83 0.73,-39.45 -5.29,-67.53 17.87,26.84 36.26,23.81 46.8,18.05 -6.18,-20.88 -16.81,-19.15 -26.91,-41.04 13.97,1.74 27.44,16.28 41.91,5.18 -5.02,-8.85 -11.02,-28.08 -7.49,-36.94 7.37,25.33 15.23,33.98 22.1,38.22z"/>
   <path class="fil0" d="M1392.77 1971.64c-11.01,24.99 -21.1,61.07 -8.45,91.87 2.76,6.72 15.72,22.39 15.82,21.69 -1.1,-3.21 -3.19,-16.3 -5.35,-19.43 -14.4,-20.94 -11.25,-63.24 -0.04,-94.82l-1.98 0.69z"/>
   <path class="fil0" d="M1345.73 1981.34c-16.59,14.91 -40.21,34.37 -41.25,61.22 -0.21,5.9 8.05,25.65 8.37,25.15 0.28,-2.74 3.13,-13.09 2.59,-16.12 -3.58,-20.17 13.02,-50.41 31.97,-70.09l-1.68 -0.16z"/>
   <path class="fil0" d="M1370.53 2122.45c35.54,-35.99 62.74,35.55 105.18,17.54 -27.19,63.16 -82.15,33.39 -105.18,-17.54zm13.81 5.21c16.29,-12.36 54.31,31.79 79.55,22.21 -36.23,30.59 -68.68,3.45 -79.55,-22.21z"/>
   <path class="fil0" d="M1335.58 1806.87c0.99,2.91 -30.64,0.97 -27.67,30.13 2.98,29.15 -20.75,37.89 -20.75,37.89l46.44 -10.69 28.33 -10.65c-5.08,-10.09 -9.92,-20.29 -14.55,-30.64 -6.61,-9.44 -12.22,-17.26 -11.8,-16.04z"/>
   <path class="fil0" d="M1974.24 1890.95c-0.77,0.74 -2.61,6.11 -3.13,4.98 -23.74,-49.83 -70.67,-14.73 -54.26,15.71 8.91,16.54 36.53,16.37 38.81,-1.24 2.67,-15.71 -21.99,-22.87 -25.2,-2.78 -1.59,-9.02 4.42,-16.18 12.16,-17.87 17.87,-3.88 27.91,13.52 21.59,28.7 -8.64,20.65 -39.07,20.39 -50.58,7.07 -23.3,-26.99 -7.04,-60.43 26.89,-61.7 28.12,-1.06 32.03,28.37 33.72,27.13z"/>
   <path class="fil0" d="M1891.1 1966.44c12.2,-5.69 23.81,5.7 7.06,8.97 -26.52,5.16 -44.64,-21.16 -32.45,-41.35 8.2,-13.6 32.26,-14.9 36.48,4.3 2.68,15.69 -23.99,20.16 -27.16,0.06 -1.62,9 3.61,17.33 15.67,19.39 18.01,3.09 29.46,-14.29 23.15,-29.44 -8.64,-20.64 -39.09,-20.37 -50.58,-7.07 -23.28,26.98 -8.36,62.06 27.97,61.37 56.94,-1.11 13.77,-38.42 -0.14,-16.23z"/>
   <path class="fil1" d="M2006.5 2011.9l-0.07 0 0 -0.01c-65.59,0 -128.13,-13.03 -185.14,-36.62 -9.53,-3.92 -18.67,-8.05 -27.39,-12.31l0 -0.04c-46.15,-22.53 -88.15,-52.21 -124.57,-87.55 -10.7,-10.42 -17.16,-16.38 -22.48,-16.81l-0.02 0c-5.32,-0.43 -12.26,4.38 -24.59,15.4l-26.37 25.42 -0.1 0.09 -1.41 1.32c-1.54,1.39 -3.01,2.75 -4.1,3.86 -7.37,7.2 -9.99,14.09 10.93,34.68l0.04 0 0.02 0.05 0 0.01c14.56,14.33 29.88,27.89 45.94,40.63 16.04,12.74 32.76,24.65 50.14,35.68 89.33,56.59 195.42,89.41 309.17,89.41l0 -0.01 0.06 0 0 0.01c78.99,0 154.26,-15.83 222.83,-44.48 11.24,-4.69 22.28,-9.71 32.93,-14.95 55.47,-27.42 105.88,-63.48 149.45,-106.34 20.92,-20.6 18.33,-27.49 10.97,-34.69l-0.03 0c-1.57,-1.59 -2.78,-2.68 -4.07,-3.86l-1.41 -1.32 -0.12 -0.09 -26.36 -25.42c-12.32,-11.02 -19.25,-15.83 -24.59,-15.4l-0.05 0c-5.29,0.43 -11.73,6.39 -22.43,16.76l0.02 0.01 -0.05 0.05 -0.05 0.03c-12.22,11.82 -25,23.01 -38.37,33.51 -13.23,10.41 -27.2,20.23 -41.77,29.37 -74.42,46.63 -162.55,73.61 -256.96,73.61zm-0.07 -14.14l0 -0.02 0.07 0c91.63,0 177.12,-26.13 249.25,-71.34 13.91,-8.76 27.48,-18.29 40.56,-28.56 12.97,-10.18 25.39,-21.04 37.16,-32.46l0 -0.01 0.04 -0.05 0.05 0c13.08,-12.71 21.18,-20.04 31.4,-20.87l0 0c10.24,-0.82 19.91,5.16 35.47,19.06l0.2 0.17 26.43 25.52 0 -0.02 1.44 1.33c1.67,1.54 3.33,3.05 4.41,4.13l-0.03 0.01c13.51,13.25 19.18,25.02 -10.93,54.66 -44.65,43.94 -96.31,80.87 -153.19,108.97 -11.18,5.48 -22.44,10.62 -33.76,15.37 -70.24,29.32 -147.46,45.56 -228.44,45.57l0 0.03 -0.06 0 0 -0.03c-116.66,0 -225.39,-33.63 -316.94,-91.64 -17.79,-11.29 -34.96,-23.49 -51.38,-36.54 -16.42,-13.05 -32.15,-26.96 -47.1,-41.67l0 0 -0.04 -0.05 0 -0.01c-30.14,-29.66 -24.45,-41.41 -10.93,-54.67 1.55,-1.54 2.97,-2.82 4.38,-4.13l1.43 -1.33 0 0.02 26.44 -25.52 0.19 -0.17c15.57,-13.9 25.24,-19.88 35.43,-19.06l0 0c10.27,0.83 18.35,8.16 31.42,20.87 35.34,34.28 76.09,63.07 120.88,84.97l0.02 0c8.95,4.36 17.8,8.35 26.57,12 55.29,22.86 115.94,35.47 179.56,35.47z"/>
   <path class="fil1" d="M2006.5 2256.07l-0.08 0 0 -0.04c-74.9,0 -147.13,-11.26 -215.08,-32.13 -33.13,-10.18 -65.33,-22.69 -96.38,-37.31 -159.31,-75.09 -286.84,-205.99 -357,-367.25l-4.3 -9.84 10.9 0 155.88 0 4.24 0 2.05 3.68 0 0c13.85,24.26 29.38,47.4 46.43,69.21 17.09,21.84 35.78,42.47 55.84,61.6 103.15,98.49 243.21,159.05 397.5,159.05l0 -0.01 0.05 0 0 0.01c71.39,-0.01 139.77,-12.99 202.89,-36.73 20.63,-7.75 40.65,-16.6 59.84,-26.47 99.42,-50.99 181.95,-130.1 236.98,-226.71l2.07 -3.63 4.21 0 155.9 0 10.87 0 -4.28 9.84 -0.03 0.08c-15.67,35.98 -34.18,70.46 -55.22,103.07 -21.02,32.59 -44.66,63.44 -70.63,92.29 -133.3,148.03 -327.03,241.25 -542.65,241.25l0 0.04zm-0.08 -14.14l0 -0.05 0.08 0 0 0.05c211.36,0 401.21,-91.38 531.91,-236.5 25.36,-28.17 48.52,-58.44 69.22,-90.52 18.76,-29.08 35.41,-59.55 49.78,-91.24l-140.67 0c-56.35,97.32 -140.11,177.03 -240.81,228.67 -19.93,10.23 -40.44,19.32 -61.36,27.18 -64.65,24.32 -134.77,37.62 -208.02,37.62l0 0.05 -0.05 0 0 -0.05c-158.22,0 -301.81,-62.07 -407.53,-163.03 -20.55,-19.59 -39.67,-40.68 -57.18,-63.09 -16.72,-21.34 -31.96,-43.86 -45.55,-67.35l-140.67 0c69.63,153.59 192.68,278.13 345.59,350.19 30.3,14.29 61.86,26.53 94.47,36.55 66.63,20.47 137.45,31.52 210.79,31.52z"/>
   <path class="fil0" d="M2677.4 1806.87c-0.99,2.91 30.64,0.97 27.68,30.13 -2.97,29.15 20.76,37.89 20.76,37.89l-46.47 -10.69 -33.61 -12.62c0,0 32.62,-47.64 31.64,-44.71z"/>
   <path class="fil1" d="M1416.79 1875.32l45.8 -28.12 21.21 33.37 -7.75 4.76 -15.45 -24.29 -10.13 6.24 14.35 22.61 -7.7 4.75 -14.36 -22.63 -12.48 7.67 15.98 25.16 -7.71 4.75 -21.76 -34.27zm41.35 31.94l7.06 7.82c-2.51,2.58 -3.85,5.11 -4.03,7.65 -0.23,2.51 0.65,5.09 2.59,7.74 2.06,2.77 4.24,4.45 6.48,4.99 2.28,0.57 4.16,0.26 5.77,-0.87 1.05,-0.73 1.72,-1.68 1.98,-2.77 0.29,-1.14 0.16,-2.61 -0.39,-4.48 -0.39,-1.29 -1.49,-4.05 -3.23,-8.3 -2.27,-5.5 -3.22,-9.79 -2.92,-12.88 0.47,-4.36 2.42,-7.78 5.87,-10.21 2.23,-1.62 4.78,-2.47 7.6,-2.61 2.86,-0.13 5.66,0.58 8.41,2.18 2.74,1.63 5.32,4.08 7.76,7.36 4.01,5.4 5.78,10.31 5.41,14.76 -0.4,4.44 -2.56,8.17 -6.48,11.18l-6.8 -8.41c1.97,-1.95 3.02,-3.92 3.09,-5.84 0.08,-1.93 -0.79,-4.11 -2.58,-6.52 -1.88,-2.53 -3.85,-4.15 -5.96,-4.8 -1.36,-0.46 -2.58,-0.26 -3.71,0.53 -1.04,0.74 -1.62,1.81 -1.73,3.2 -0.11,1.76 0.86,5.11 3,10.05 2.1,4.93 3.33,8.83 3.75,11.62 0.42,2.78 0.11,5.41 -0.93,7.88 -1.04,2.51 -2.94,4.74 -5.7,6.7 -2.48,1.78 -5.34,2.78 -8.53,2.99 -3.19,0.17 -6.25,-0.6 -9.16,-2.34 -2.92,-1.73 -5.74,-4.45 -8.5,-8.19 -4.03,-5.45 -5.83,-10.51 -5.42,-15.24 0.39,-4.74 2.83,-9.16 7.3,-13.19zm27 62.79l34.37 -28.35 -10.3 -12.05 7.01 -5.76 27.58 32.29 -7.01 5.76 -10.28 -12.01 -34.37 28.33 -7 -8.21zm63.05 -9.24l13.84 14.12c3.14,3.14 5.26,5.8 6.42,7.94 1.51,2.88 2.21,5.92 2.04,9.17 -0.14,3.22 -1.04,6.43 -2.68,9.61 -1.69,3.2 -4.34,6.51 -7.97,9.96 -3.2,3.03 -6.33,5.27 -9.41,6.68 -3.76,1.72 -7.39,2.54 -10.87,2.41 -2.66,-0.06 -5.46,-0.9 -8.45,-2.47 -2.22,-1.16 -4.72,-3.19 -7.52,-6.04l-14.24 -14.5 38.84 -36.88zm0.99 13.96l-25.71 24.41 5.65 5.76c2.11,2.15 3.75,3.59 4.96,4.32 1.54,0.94 3.11,1.45 4.66,1.58 1.56,0.09 3.47,-0.41 5.73,-1.54 2.26,-1.14 4.91,-3.13 7.9,-5.99 3,-2.85 5.03,-5.28 6.15,-7.34 1.09,-2.05 1.61,-3.96 1.6,-5.75 -0.04,-1.78 -0.59,-3.58 -1.67,-5.32 -0.81,-1.28 -2.78,-3.52 -5.87,-6.66l-3.4 -3.47zm1.31 62.68l6.91 -7.59 7.7 6.82 -6.93 7.57 -7.68 -6.8zm67.2 -13.16l17.02 13.08c3.37,2.59 5.79,4.64 7.21,6.19 1.41,1.56 2.46,3.25 3.06,5.14 0.61,1.89 0.78,3.86 0.49,5.99 -0.29,2.13 -1.14,4.09 -2.58,5.92 -1.55,1.94 -3.52,3.33 -5.91,4.15 -2.37,0.8 -4.8,0.92 -7.29,0.34 2.01,2.71 3.01,5.52 2.97,8.34 -0.03,2.88 -1,5.53 -2.92,7.94 -1.51,1.91 -3.41,3.41 -5.78,4.52 -2.31,1.09 -4.67,1.59 -7.08,1.45 -2.42,-0.1 -4.89,-0.9 -7.37,-2.43 -1.52,-0.94 -5.05,-3.49 -10.59,-7.67l-14.47 -11.11 33.24 -41.85zm3.05 13.56l-7.66 9.68 5.63 4.33c3.34,2.58 5.47,4.13 6.36,4.67 1.58,0.94 3.16,1.36 4.63,1.15 1.51,-0.19 2.8,-0.94 3.88,-2.29 1.02,-1.29 1.49,-2.64 1.42,-4.02 -0.11,-1.36 -0.78,-2.67 -2.09,-3.93 -0.76,-0.74 -3.16,-2.68 -7.21,-5.79l-4.96 -3.8zm-13.21 16.66l-8.86 11.18 7.95 6.1c3.06,2.36 5.09,3.81 6.1,4.26 1.45,0.77 2.92,0.99 4.42,0.72 1.5,-0.22 2.86,-1.12 4.02,-2.62 1.03,-1.23 1.54,-2.54 1.62,-3.9 0.07,-1.35 -0.32,-2.67 -1.15,-3.98 -0.87,-1.27 -3.25,-3.44 -7.16,-6.44l-6.94 -5.32zm35.25 52.16l12.37 -18.73 0.48 -36.36 10.69 6.84 -0.95 24.42 22.08 -10.96 10.51 6.74 -33.72 15.22 -12.33 18.68 -9.13 -5.85zm82.11 22.96l4 -8.05 21.12 10.13 -9.43 19c-3.02,0.96 -6.85,1.25 -11.5,0.88 -4.6,-0.38 -8.93,-1.53 -12.93,-3.44 -5.07,-2.44 -8.97,-5.6 -11.71,-9.51 -2.74,-3.91 -4.08,-8.25 -4.06,-13.04 0.05,-4.8 1.2,-9.53 3.46,-14.1 2.45,-4.95 5.71,-8.87 9.76,-11.72 4.04,-2.85 8.59,-4.32 13.72,-4.4 3.87,-0.09 8.14,0.96 12.79,3.16 6.02,2.9 10.11,6.4 12.26,10.51 2.15,4.11 2.62,8.6 1.43,13.43l-10.61 -2.85c0.47,-2.69 0.09,-5.15 -1.12,-7.41 -1.21,-2.27 -3.22,-4.08 -6.05,-5.45 -4.29,-2.04 -8.34,-2.33 -12.2,-0.89 -3.86,1.48 -7.08,4.84 -9.69,10.09 -2.81,5.65 -3.64,10.51 -2.47,14.57 1.16,4.07 3.79,7.09 7.95,9.06 2.05,1 4.31,1.59 6.76,1.79 2.45,0.19 4.72,0.07 6.74,-0.33l3 -6.06 -11.22 -5.37zm32.09 6.99c1.95,-5.06 4.39,-9.02 7.24,-11.85 2.17,-2.07 4.6,-3.77 7.37,-5.04 2.77,-1.24 5.52,-1.92 8.26,-1.96 3.66,-0.17 7.52,0.56 11.63,2.12 7.43,2.81 12.49,7.29 15.16,13.52 2.7,6.19 2.47,13.34 -0.67,21.41 -3.15,7.99 -7.78,13.45 -13.97,16.27 -6.18,2.84 -12.98,2.87 -20.39,0.08 -7.51,-2.84 -12.58,-7.33 -15.26,-13.5 -2.68,-6.16 -2.47,-13.18 0.63,-21.05zm10.62 3.62c-2.2,5.6 -2.53,10.36 -1.06,14.24 1.54,3.89 4.31,6.58 8.37,8.12 4.05,1.54 7.94,1.36 11.67,-0.54 3.73,-1.89 6.73,-5.71 8.95,-11.45 2.24,-5.68 2.61,-10.37 1.17,-14.14 -1.44,-3.75 -4.26,-6.41 -8.46,-8.01 -4.2,-1.56 -8.11,-1.42 -11.81,0.43 -3.65,1.86 -6.62,5.62 -8.83,11.35zm53.12 45.26l-2.69 -56.33 11.32 3.37 1.38 41.53 24.31 -33.78 11.09 3.33 -34.29 45.2 -11.12 -3.32zm38.06 10.92l9.38 -52.26 39.44 6.86 -1.6 8.83 -28.68 -4.97 -2.1 11.59 26.71 4.62 -1.6 8.81 -26.66 -4.62 -2.58 14.21 29.7 5.15 -1.56 8.82 -40.45 -7.04zm52.67 8.55l5.64 -52.77 22.83 2.35c5.75,0.58 9.86,1.51 12.36,2.72 2.5,1.21 4.41,3.11 5.7,5.68 1.32,2.6 1.79,5.45 1.45,8.57 -0.43,3.97 -1.94,7.12 -4.6,9.45 -2.62,2.34 -6.36,3.59 -11.13,3.78 2.21,1.59 3.97,3.25 5.32,5.02 1.35,1.78 3.11,4.87 5.26,9.23l5.45 10.98 -12.96 -1.36 -6.59 -12.29c-2.35,-4.42 -4.01,-7.19 -4.9,-8.33 -0.9,-1.2 -1.93,-2.02 -3.01,-2.55 -1.11,-0.52 -2.91,-0.89 -5.42,-1.16l-2.2 -0.22 -2.34 22.01 -10.86 -1.11zm14.13 -29.35l7.99 0.85c5.22,0.51 8.5,0.66 9.83,0.35 1.33,-0.3 2.44,-0.95 3.28,-1.92 0.85,-0.97 1.37,-2.24 1.5,-3.84 0.22,-1.78 -0.11,-3.27 -0.96,-4.45 -0.87,-1.2 -2.13,-2.03 -3.88,-2.49 -0.85,-0.22 -3.47,-0.54 -7.9,-1.01l-8.45 -0.86 -1.41 13.37zm43.47 34.93l1.89 -53.07 10.61 0.37 20.83 36.2 1.26 -35.44 10.14 0.36 -1.89 53.03 -10.94 -0.37 -20.54 -35.36 -1.21 34.61 -10.15 -0.33zm57.27 0.91l-3.79 -52.97 16.28 -1.1 12.35 35.45 7.09 -36.78 16.32 -1.12 3.76 52.98 -10.1 0.64 -2.93 -41.65 -7.75 42.41 -10.47 0.71 -13.64 -40.95 2.96 41.69 -10.08 0.69zm65.94 -5.03l-9.38 -52.26 39.44 -6.83 1.56 8.85 -28.66 4.97 2.07 11.56 26.69 -4.62 1.57 8.82 -26.67 4.62 2.51 14.23 29.73 -5.17 1.59 8.83 -40.45 7zm52.58 -7.88l-13.97 -51.28 10.24 -2.69 30.68 28.61 -9.32 -34.23 9.8 -2.59 13.98 51.27 -10.6 2.79 -30.14 -27.91 9.13 33.44 -9.8 2.59zm67.27 -18.31l-14.61 -41.71 -15.13 5.13 -2.98 -8.49 40.56 -13.72 2.99 8.47 -15.12 5.13 14.61 41.69 -10.32 3.5zm41.34 -42.49c-2.34,-4.88 -3.55,-9.35 -3.63,-13.36 -0.04,-2.92 0.43,-5.82 1.43,-8.67 1.04,-2.81 2.45,-5.23 4.27,-7.22 2.45,-2.69 5.66,-4.92 9.65,-6.73 7.21,-3.31 14.01,-3.75 20.45,-1.35 6.4,2.42 11.47,7.52 15.19,15.37 3.68,7.77 4.41,14.79 2.2,21.18 -2.22,6.35 -6.93,11.18 -14.1,14.45 -7.28,3.35 -14.1,3.82 -20.48,1.44 -6.35,-2.43 -11.36,-7.42 -14.98,-15.11zm10.01 -4.97c2.6,5.46 5.84,9 9.72,10.62 3.9,1.64 7.83,1.56 11.75,-0.26 3.93,-1.78 6.53,-4.67 7.73,-8.63 1.2,-3.94 0.48,-8.68 -2.17,-14.25 -2.61,-5.55 -5.81,-9.09 -9.55,-10.65 -3.75,-1.6 -7.67,-1.47 -11.74,0.42 -4.07,1.84 -6.69,4.74 -7.89,8.6 -1.18,3.91 -0.49,8.6 2.15,14.15zm58.75 2.16l-26.96 -45.95 32.04 -18.21 4.58 7.79 -22.63 12.83 6.39 10.86 19.53 -11.08 4.59 7.78 -19.55 11.08 11.49 19.54 -9.48 5.36zm60.08 -36.04l-30.98 -43.47 8.95 -6.14 13.74 19.3 4.29 -31.75 12 -8.23 -4.58 28.4 36.47 14.46 -11.55 7.92 -26.7 -12.01 -2.08 12.25 9.37 13.14 -8.93 6.13zm46.55 -32.92l-34.71 -40.63 30.66 -25.29 5.86 6.87 -22.3 18.41 7.68 9.01 20.78 -17.12 5.84 6.84 -20.76 17.12 9.45 11.05 23.09 -19.05 5.85 6.85 -31.44 25.94zm40.9 -33.78l-38.86 -36.88 15.96 -16.22c4.01,-4.1 7.25,-6.72 9.78,-7.91 2.52,-1.18 5.2,-1.48 8.08,-0.92 2.88,0.6 5.46,1.99 7.77,4.17 2.91,2.76 4.49,5.9 4.73,9.37 0.25,3.47 -1.03,7.14 -3.82,10.97 2.62,-0.76 5.06,-1.09 7.29,-1.05 2.28,0.04 5.79,0.57 10.63,1.6l12.15 2.53 -9.05 9.23 -13.92 -2.48c-4.97,-0.87 -8.21,-1.3 -9.72,-1.35 -1.49,0 -2.77,0.26 -3.89,0.8 -1.09,0.55 -2.5,1.7 -4.26,3.47l-1.53 1.55 16.23 15.39 -7.57 7.73zm-14.84 -29.02l5.58 -5.68c3.64,-3.69 5.75,-6.15 6.36,-7.4 0.56,-1.21 0.74,-2.43 0.46,-3.7 -0.26,-1.25 -0.98,-2.44 -2.12,-3.57 -1.31,-1.22 -2.72,-1.87 -4.19,-1.97 -1.47,-0.07 -2.95,0.42 -4.37,1.48 -0.72,0.53 -2.59,2.38 -5.67,5.49l-5.9 6.01 9.85 9.34zm85.99 -47.93l-7.65 8.96 -12.41 -4.22 -13.88 16.24 6.53 11.12 -7.42 8.71 -27.84 -49.94 7.4 -8.69 55.27 17.82zm-29.27 1.62l-20.14 -7.06 10.68 18.16 9.46 -11.1zm34.98 -9.15l-43.34 -30.97 6.42 -8.65 35.95 25.7 15.95 -21.57 7.34 5.27 -22.32 30.22zm54.05 -79.14l-6.28 9.89 -12.91 -2.45 -11.45 18 8.06 10.1 -6.12 9.64 -34.65 -45.66 6.1 -9.63 57.25 10.11zm-28.74 5.61l-20.96 -4.2 13.13 16.47 7.83 -12.27z"/>
   <path class="fil1" d="M1721.5 1934.7l36.42 21.91c7.89,4.73 9.69,13.83 5.39,27.32l-1.38 3.62c-5.7,9.5 -14.28,13.62 -25.76,12.38l4.92 23.4 -0.66 1.1 -16.61 -9.98 -7.89 -41.36 0.34 -0.48 20.25 12.16c4.68,2.83 9.39,1.47 14.14,-4 2.89,-4.82 2.11,-9.19 -2.35,-13.12l-23.55 -14.16 -26.51 44.11 -1.71 0.45 -9.62 -5.78 -0.42 -1.74 33.26 -55.38 1.74 -0.45zm93.31 122.57l-37.47 -14.39c-3.75,-1.45 -6.32,-3.82 -7.74,-7.11 -1.4,-3.3 -1.4,-6.75 -0.04,-10.34l19.43 -50.61 12.61 4.83 -19.42 50.63 37.47 14.37 19.44 -50.63 12.51 4.79 -19.44 50.65c-1.34,3.5 -3.62,6.05 -6.77,7.65 -3.17,1.6 -6.69,1.65 -10.58,0.16zm113.84 -26.57l-26.4 -5.16 -10.34 53.26 -13.16 -2.54 10.34 -53.26 -26.27 -5.11 2.61 -13.23 65.79 12.79 -2.57 13.25zm19.42 -9.68l42.41 2.24c9.21,0.48 15.07,7.67 17.58,21.6l0.49 3.83c-0.59,11.06 -6.21,18.75 -16.92,23.05l15.31 18.36 -0.04 1.26 -19.38 -1.01 -26.35 -32.8 0.04 -0.58 23.6 1.25c5.47,0.26 9.01,-3.14 10.6,-10.2 0.29,-5.61 -2.45,-9.1 -8.23,-10.51l-27.42 -1.42 -2.7 51.39 -1.35 1.21 -11.16 -0.59 -1.2 -1.32 3.39 -64.55 1.33 -1.21zm138.26 65.06l-40.11 3.5c-7.13,0.63 -11.69,-1.97 -13.66,-7.82 -0.42,-1.35 -0.72,-2.84 -0.85,-4.45l-3.57 -40.57c-0.3,-3.53 0.7,-6.77 2.98,-9.7 2.29,-2.95 5.37,-4.58 9.19,-4.91l40.12 -3.52c3.76,-0.32 7.05,0.72 9.85,3.15 2.77,2.41 4.35,5.47 4.67,9.12l3.53 40.6c0.81,8.98 -3.26,13.83 -12.15,14.6zm-1.18 -13.46l-3.56 -40.55 -40.11 3.49 3.56 40.58 40.11 -3.52zm105.24 -12.06l-8.08 2.32 -55.62 -29.9 12.13 42.36 -12.86 3.71 -18.65 -65.14 7.98 -2.26 55.73 29.88 -12.15 -42.39 12.86 -3.69 18.66 65.11zm38.77 -15.65l-12.5 4.8 -24.25 -63.23 12.49 -4.78 24.26 63.21zm94.04 -48.9l-16.06 8.89 -31.16 -11.23 -6.97 32.39 -16.15 8.94 11.78 -45.19 -44.62 -14.05 16.14 -8.96 31.19 11.22 6.98 -32.37 16.02 -8.89 -11.6 45.21 44.45 14.04z"/>
   <path class="fil2 str0" d="M2007.23 987.9c159.03,0 287.81,128.8 287.81,287.67 0,158.99 -128.78,287.8 -287.81,287.8 -158.84,0 -287.64,-128.81 -287.64,-287.8 0,-158.88 128.8,-287.67 287.64,-287.67z"/>
   <path class="fil0" d="M1831.61 1052.14l126.25 124.17c9.29,1.47 13.83,-1.4 17.88,-8.57l-4.37 -175.57 -8.83 1.57 1.26 170.73 -124.28 -119.75 -7.91 7.42zm207.99 -59.48l-0.15 176.49c5.53,7.62 10.74,8.82 18.68,6.58l122.63 -129.02 -6.94 -5.26 -121.79 123.55 -3.21 -172.54 -9.22 0.2z"/>
   <path class="fil0" d="M1726.06 1240.15l179.15 -1.09c7.61,-5.56 8.8,-10.76 6.61,-18.71l-125.48 -120.03 -6.9 6.31 121.59 119.82 -176.81 3.85 1.84 9.85z"/>
   <path class="fil0" d="M1785.39 1448.33l126.94 -127.68c1.5,-9.29 -1.35,-13.83 -8.54,-17.88l-176.64 3.83 -0.41 9.33 173.76 -1.25 -123.39 127.96 8.28 5.69z"/>
   <path class="fil0" d="M1974.4 1556.72l0.69 -183.44c-5.52,-7.6 -10.73,-8.78 -18.7,-6.57l-125.5 130.94 6.29 6.92 125.34 -127.08 1.99 181.08 9.89 -1.85z"/>
   <path class="fil0" d="M2187.4 1496.16l-130.7 -130c-9.3,-1.47 -13.82,1.36 -17.89,8.54l3.23 183.36 9.34 0.45 -0.61 -180.54 130.98 126.49 5.65 -8.3z"/>
   <path class="fil0" d="M2289.09 1302.87l-179.74 0.56c-7.64,5.49 -8.79,10.72 -6.6,18.66l132.16 123.08 6.91 -6.3 -128.29 -122.89 177.4 -3.19 -1.84 -9.92z"/>
   <path class="fil0" d="M2225.5 1097.81l-123.29 123.97c-1.47,9.34 1.36,13.85 8.56,17.92l176.63 -3.83 0.4 -9.35 -173.75 1.23 119.71 -124.27 -8.26 -5.67z"/>
   <g>
    <path class="fil0" d="M1969.71 1561.63l0 -266.29 0 266.29zm74.3 -270.56l0 270.56 0 -270.56zm-38.27 -59.62c23.26,0 42.12,18.84 42.12,42.13 0,6.23 -1.4,12.19 -3.85,17.49 -6.63,14.55 -21.25,24.6 -38.27,24.6 -15.28,0 -28.7,-8.15 -36.03,-20.33 -3.84,-6.35 -6.05,-13.8 -6.05,-21.76 0,-23.29 18.81,-42.13 42.08,-42.13z"/>
    <path id="1" class="fil3 str0" d="M1969.71 1561.63l0 -266.29m74.3 -4.27l0 270.56m-38.27 -330.18c23.26,0 42.12,18.84 42.12,42.13 0,6.23 -1.4,12.19 -3.85,17.49 -6.63,14.55 -21.25,24.6 -38.27,24.6 -15.28,0 -28.7,-8.15 -36.03,-20.33 -3.84,-6.35 -6.05,-13.8 -6.05,-21.76 0,-23.29 18.81,-42.13 42.08,-42.13z"/>
   </g>
   <path class="fil4" d="M999.47 2766.26c0,4.51 1.14,9.36 3.4,14.49 2.26,5.13 5.44,9.14 9.55,12 -2.88,-3.28 -4.63,-6.87 -5.23,-10.78 -0.62,-3.9 -0.93,-7.08 -0.93,-9.55l0 -16.02c0,-16.85 4.92,-29.79 14.79,-38.83 9.85,-9.03 26.29,-13.55 49.3,-13.55 22.17,0 39.75,5.14 52.69,15.4 12.93,10.28 19.4,23.84 19.4,40.67l0 24.65c0,16.44 -6.57,29.8 -19.72,40.07 -13.14,10.26 -30.81,15.4 -52.99,15.4l-51.77 0c-24.65,0 -44.47,-5.65 -59.47,-16.94 -14.99,-11.3 -22.49,-27.23 -22.49,-47.76l0 -178.71c0,-20.55 7.61,-36.46 22.81,-47.76 15.2,-11.3 35.11,-16.96 59.77,-16.96l51.15 0c22.18,0 39.85,5.15 52.99,15.42 13.15,10.27 19.72,23.62 19.72,40.05l0 24.65c0,16.85 -6.47,30.4 -19.4,40.67 -12.94,10.27 -30.52,15.41 -52.69,15.41 -23.01,0 -39.45,-4.52 -49.3,-13.55 -9.87,-9.05 -14.79,-21.99 -14.79,-38.83l0 -16.02c0,-2.05 0.4,-5.24 1.22,-9.56 0.83,-4.31 2.68,-8.11 5.56,-11.4 -4.11,2.88 -7.4,6.89 -9.86,12.02 -2.48,5.13 -3.71,9.96 -3.71,14.49l0 160.83zm81.97 0.62c0,-5.75 -0.73,-10.69 -2.17,-14.79 -1.43,-4.11 -3.79,-6.16 -7.08,-6.16 -3.29,0 -5.64,1.93 -7.08,5.85 -1.44,3.9 -2.16,8.93 -2.16,15.1l0 9.86c0,5.34 0.61,10.16 1.85,14.48 1.23,4.31 3.69,6.47 7.39,6.47 6.17,0 9.25,-6.98 9.25,-20.95l0 -9.86zm0 -171.32c0,-13.97 -3.08,-20.95 -9.25,-20.95 -3.7,0 -6.16,2.16 -7.39,6.47 -1.24,4.31 -1.85,9.15 -1.85,14.48l0 9.87c0,6.15 0.72,11.19 2.16,15.09 1.44,3.9 3.79,5.85 7.08,5.85 3.29,0 5.65,-2.05 7.08,-6.16 1.44,-4.11 2.17,-9.03 2.17,-14.78l0 -9.87zm366.11 179.95c0,10.26 -2.66,19.61 -8.01,28.03 -5.34,8.43 -12.32,15.51 -20.94,21.27 -8.64,5.75 -18.7,10.26 -30.2,13.55 -11.51,3.28 -23.42,4.73 -35.75,4.31 -13.15,-0.41 -25.99,-1.94 -38.52,-4.62 -12.52,-2.67 -22.49,-8.11 -29.88,-16.33 -4.11,5.75 -9.65,10.68 -16.64,14.79 -6.98,4.12 -17.87,6.16 -32.66,6.16 -19.72,0 -35.43,-5.95 -47.14,-17.86 -11.71,-11.92 -17.57,-28.35 -17.57,-49.3l0 -64.1c0,-20.53 7.2,-36.87 21.57,-48.99 14.38,-12.12 34.1,-18.18 59.16,-18.18l8.02 0 0 -49.3c0,-11.5 2.56,-21.45 7.69,-29.88 5.14,-8.43 12.02,-15.41 20.66,-20.96 8.62,-5.54 18.59,-9.75 29.88,-12.62 11.3,-2.88 23.11,-4.32 35.43,-4.32 12.33,0 24.24,1.44 35.75,4.32 11.5,2.87 21.56,7.08 30.2,12.62 8.62,5.55 15.6,12.65 20.94,21.26 5.35,8.63 8.01,18.49 8.01,29.58l0 49.3 8.01 0c25.06,0 44.88,6.06 59.47,18.18 14.59,12.12 21.88,28.46 21.88,48.99l0 64.1c0,20.95 -5.96,37.48 -17.87,49.6 -11.92,12.12 -31.84,18.18 -59.77,18.18l-9.87 0 0 -44.99 9.87 0c4.51,0 8,-2.36 10.47,-7.08 2.46,-4.72 3.69,-11 3.69,-18.8l0 -56.69c0,-8.22 -1.23,-14.69 -3.69,-19.41 -2.47,-4.73 -7.19,-7.08 -14.18,-7.08l-8.01 0 0 86.27zm-64.7 -86.27l-60.4 0 0 77.02c0,21.36 10.07,32.04 30.2,32.04 10.26,0 17.88,-2.88 22.81,-8.62 4.92,-5.76 7.39,-13.36 7.39,-22.8l0 -77.64zm0 -45l0 -44.98c0,-9.86 -2.68,-16.84 -8.01,-20.95 -5.35,-4.1 -12.74,-6.16 -22.19,-6.16 -8.21,0 -15.3,1.96 -21.25,5.85 -5.97,3.9 -8.95,10.99 -8.95,21.26l0 44.98 60.4 0zm-136.81 152.83c5.34,0 8.83,-2.36 10.48,-7.08 1.64,-4.73 2.47,-11.82 2.47,-21.27l0 -79.48 -8.63 0c-6.99,0 -11.51,2.97 -13.56,8.93 -2.06,5.95 -3.08,11.81 -3.08,17.56l0 56.69c0,7 0.72,12.84 2.16,17.57 1.43,4.72 4.82,7.08 10.16,7.08zm407.92 45.6c-20.14,-1.64 -35.63,-5.24 -46.52,-10.78 -10.89,-5.55 -18.8,-11.82 -23.73,-18.8 -4.93,-6.98 -7.8,-13.96 -8.62,-20.95 -0.83,-6.98 -1.24,-12.32 -1.24,-16.02l0 -176.86c0,-20.54 7.7,-36.87 23.11,-48.98 15.4,-12.13 36.67,-18.2 63.78,-18.2l65.33 0c10.27,0 20.33,1.65 30.18,4.94 9.87,3.29 18.5,7.81 25.89,13.56 7.39,5.75 13.35,12.74 17.87,20.95 4.52,8.22 6.78,17.46 6.78,27.73l0 176.86c0,10.28 -1.95,19.51 -5.85,27.73 -3.91,8.22 -9.36,15.3 -16.34,21.26 -6.98,5.96 -15.09,10.47 -24.34,13.56 -9.25,3.08 -19,4.62 -29.27,4.62 -22.18,0 -40.47,-6.06 -54.83,-18.18 -14.4,-12.12 -21.59,-28.45 -21.59,-48.99l0 -93.67c0,-10.27 1.03,-19.5 3.09,-27.72 2.06,-8.22 5.55,-15.31 10.48,-21.28 4.92,-5.95 11.61,-10.47 20.02,-13.54 8.43,-3.09 19,-4.63 31.74,-4.63 2.86,0 6.57,0.62 11.09,1.85 4.53,1.23 8.63,3.28 12.32,6.16l0 -20.95c0,-8.21 -2.56,-14.48 -7.7,-18.8 -5.13,-4.3 -11.81,-6.67 -20.02,-7.08l-49.3 0c-10.27,-0.41 -17.67,1.95 -22.19,7.08 -4.51,5.15 -6.77,11.82 -6.77,20.03l0 168.85c0,6.16 0.61,11.92 1.84,17.26 1.23,5.34 6.17,8.22 14.79,8.62l0 44.37zm63.48 -70.25c0,17.67 4.52,26.5 13.55,26.5 8.22,0 12.32,-8.83 12.32,-26.5l0 -85.66c0,-8.21 -1.02,-14.68 -3.07,-19.41 -2.06,-4.71 -5.14,-7.09 -9.25,-7.09 -4.52,0 -7.91,2.38 -10.16,7.09 -2.27,4.73 -3.39,11.2 -3.39,19.41l0 85.66zm371.65 -139.89c0,9.87 -2.05,18.49 -6.16,25.89 -4.11,7.39 -12.32,13.56 -24.66,18.48 9.05,3.71 16.45,9.76 22.19,18.19 5.76,8.41 8.63,17.14 8.63,26.19l0 32.66c0,10.26 -2.35,19.41 -7.08,27.43 -4.73,7.99 -10.99,14.88 -18.8,20.63 -7.8,5.75 -16.74,10.16 -26.81,13.26 -10.06,3.07 -20.43,4.62 -31.11,4.62l-84.42 0c-3.29,0 -6.27,0.91 -8.94,2.77 -2.67,1.85 -4.21,6.47 -4.62,13.86 0,7.4 1.64,12.02 4.93,13.86 3.28,1.86 6.15,2.78 8.63,2.78l164.53 0 0 44.37 -164.53 0c-22.19,0 -40.57,-5.04 -55.16,-15.1 -14.59,-10.07 -21.88,-25.58 -21.88,-46.53 0,-20.53 7.29,-35.23 21.88,-44.06 14.59,-8.83 32.97,-13.25 55.16,-13.25l84.42 0c4.92,0 9.55,-2.67 13.86,-8 4.32,-5.36 6.47,-12.12 6.47,-20.34l0 -25.27c0,-8.21 -1.34,-14.58 -4,-19.11 -2.67,-4.52 -8.94,-6.77 -18.79,-6.77l0 -44.98c8.62,0 14.58,-2.26 17.86,-6.78 3.28,-4.53 4.93,-10.89 4.93,-19.1l0 -24.66c0,-8.21 -2.15,-14.68 -6.47,-19.41 -4.31,-4.72 -9.36,-7.08 -15.09,-7.08l-75.81 0c-4.5,0 -8.93,2.16 -13.24,6.46 -4.31,4.32 -6.88,9.97 -7.7,16.96l0 18.48c3.28,-2.05 6.99,-3.5 11.08,-4.31 4.11,-0.83 7.61,-1.24 10.49,-1.24 22.18,0 39.13,6.06 50.83,18.17 11.71,12.13 17.57,28.26 17.57,48.39l0 26.49c0,20.55 -7.3,36.87 -21.88,49 -14.58,12.12 -32.97,18.17 -55.15,18.17 -22.19,0 -40.47,-6.05 -54.85,-18.17 -14.38,-12.13 -21.57,-28.45 -21.57,-49l0 -107.22c0,-10.27 2.37,-19.51 7.09,-27.73 4.73,-8.21 10.99,-15.2 18.79,-20.95 7.81,-5.75 16.74,-10.27 26.81,-13.56 10.07,-3.29 20.65,-4.94 31.73,-4.94l77.04 0c10.68,0 21.05,1.65 31.11,4.94 10.07,3.29 19.01,7.81 26.81,13.56 7.81,5.75 14.07,12.74 18.8,20.95 4.73,8.22 7.08,17.46 7.08,27.73l0 33.27zm-155.29 51.77c0,-8.22 -1.13,-14.69 -3.38,-19.41 -2.26,-4.73 -5.65,-7.09 -10.17,-7.09 -4.52,0 -7.81,2.77 -9.87,8.32 -2.05,5.55 -3.07,11.61 -3.07,18.18l0 19.11c0,8.21 1.02,14.58 3.07,19.1 2.06,4.52 5.35,6.78 9.87,6.78 4.52,0 7.91,-2.26 10.17,-6.78 2.25,-4.52 3.38,-10.89 3.38,-19.1l0 -19.11zm387.69 81.96c0,4.51 1.12,9.36 3.39,14.49 2.25,5.13 5.44,9.14 9.54,12 -2.88,-3.28 -4.62,-6.87 -5.23,-10.78 -0.61,-3.9 -0.92,-7.08 -0.92,-9.55l0 -16.02c0,-16.85 4.92,-29.79 14.78,-38.83 9.86,-9.03 26.3,-13.55 49.3,-13.55 22.18,0 39.75,5.14 52.7,15.4 12.93,10.28 19.4,23.84 19.4,40.67l0 24.65c0,16.44 -6.57,29.8 -19.72,40.07 -13.14,10.26 -30.81,15.4 -53,15.4l-51.76 0c-24.65,0 -44.47,-5.65 -59.46,-16.94 -14.99,-11.3 -22.5,-27.23 -22.5,-47.76l0 -178.71c0,-20.55 7.61,-36.46 22.81,-47.76 15.19,-11.3 35.12,-16.96 59.77,-16.96l51.14 0c22.19,0 39.86,5.15 53,15.42 13.15,10.27 19.72,23.62 19.72,40.05l0 24.65c0,16.85 -6.47,30.4 -19.4,40.67 -12.95,10.27 -30.52,15.41 -52.7,15.41 -23,0 -39.44,-4.52 -49.3,-13.55 -9.86,-9.05 -14.78,-21.99 -14.78,-38.83l0 -16.02c0,-2.05 0.41,-5.24 1.23,-9.56 0.82,-4.31 2.67,-8.11 5.54,-11.4 -4.1,2.88 -7.39,6.89 -9.85,12.02 -2.47,5.13 -3.7,9.96 -3.7,14.49l0 160.83zm81.96 0.62c0,-5.75 -0.72,-10.69 -2.16,-14.79 -1.44,-4.11 -3.8,-6.16 -7.09,-6.16 -3.28,0 -5.64,1.93 -7.09,5.85 -1.43,3.9 -2.14,8.93 -2.14,15.1l0 9.86c0,5.34 0.6,10.16 1.83,14.48 1.24,4.31 3.7,6.47 7.4,6.47 6.17,0 9.25,-6.98 9.25,-20.95l0 -9.86zm0 -171.32c0,-13.97 -3.08,-20.95 -9.25,-20.95 -3.7,0 -6.16,2.16 -7.4,6.47 -1.23,4.31 -1.83,9.15 -1.83,14.48l0 9.87c0,6.15 0.71,11.19 2.14,15.09 1.45,3.9 3.81,5.85 7.09,5.85 3.29,0 5.65,-2.05 7.09,-6.16 1.44,-4.11 2.16,-9.03 2.16,-14.78l0 -9.87zm393.23 325.37c8.21,-0.4 14.28,-1.64 18.17,-3.69 3.91,-2.05 5.86,-4.32 5.86,-6.78l0 -19.72c0,-3.29 -3.18,-5.86 -9.54,-7.7 -6.38,-1.85 -14.91,-2.78 -25.58,-2.78 -10.28,0 -18.59,0.93 -24.96,2.78 -6.37,1.84 -9.55,4.41 -9.55,7.7l0 19.72c0,2.88 2.16,5.34 6.47,7.39 4.32,2.06 10.16,3.08 17.56,3.08l0 36.98c-22.6,0 -41.29,-3.39 -56.08,-10.17 -14.79,-6.78 -22.18,-14.89 -22.18,-24.34l0 -44.37c0,-5.34 2.26,-10.06 6.78,-14.18 4.51,-4.11 10.77,-7.71 18.79,-10.77 8.01,-3.08 17.46,-5.44 28.35,-7.1 10.89,-1.64 22.49,-2.45 34.82,-2.45 12.73,0 24.54,0.81 35.43,2.45 10.9,1.66 20.33,4.02 28.34,7.1 8.02,3.06 14.28,6.66 18.8,10.77 4.53,4.12 6.78,8.84 6.78,14.18l0 44.37c0,9.04 -7.4,17.05 -22.19,24.03 -14.78,6.99 -33.48,10.48 -56.07,10.48l0 -36.98zm-191.65 0c8.21,-0.4 14.27,-1.64 18.17,-3.69 3.91,-2.05 5.86,-4.32 5.86,-6.78l0 -19.72c0,-3.29 -3.19,-5.86 -9.55,-7.7 -6.37,-1.85 -14.69,-2.78 -24.96,-2.78 -10.68,0 -19.21,0.93 -25.58,2.78 -6.36,1.84 -9.55,4.41 -9.55,7.7l0 19.72c0,2.88 2.15,5.34 6.47,7.39 4.32,2.06 10.17,3.08 17.57,3.08l0 36.98c-23,0 -41.69,-3.39 -56.08,-10.17 -14.38,-6.78 -21.57,-14.89 -21.57,-24.34l0 -44.37c0,-10.68 8.32,-19.11 24.96,-25.26 16.64,-6.17 37.89,-9.24 63.78,-9.24 12.33,0 23.94,0.81 34.82,2.45 10.89,1.66 20.34,4.02 28.35,7.1 8,3.06 14.38,6.66 19.1,10.77 4.73,4.12 7.09,8.84 7.09,14.18l0 44.37c0,4.52 -2.06,8.83 -6.16,12.94 -4.11,4.11 -9.66,7.81 -16.64,11.09 -6.98,3.29 -15.3,5.86 -24.96,7.71 -9.66,1.84 -20.03,2.77 -31.12,2.77l0 -36.98zm178.7 -391.31c29.18,0 52.38,6.17 69.64,18.5 17.25,12.32 25.88,28.54 25.88,48.68l0 179.32c0,9.87 -2.36,19 -7.08,27.42 -4.72,8.43 -10.99,15.51 -18.8,21.27 -7.8,5.75 -16.74,10.26 -26.81,13.55 -10.06,3.28 -20.63,4.93 -31.73,4.93 -10.68,0 -21.05,-1.65 -31.13,-4.93 -10.05,-3.29 -18.99,-7.91 -26.8,-13.86 -7.81,-5.96 -14.07,-13.26 -18.8,-21.88 -4.72,-8.63 -7.08,-18.28 -7.08,-28.97l0 -172.54c0,-8.22 -2.06,-14.69 -6.16,-19.41 -4.11,-4.73 -8.83,-7.09 -14.18,-7.09 -4.92,0 -9.43,2.16 -13.55,6.47 -4.11,4.31 -6.57,10.37 -7.39,18.18l0 240.95 -63.48 0 0 -240.95c-0.82,-7.81 -3.39,-13.87 -7.71,-18.18 -4.31,-4.31 -8.72,-6.47 -13.25,-6.47 -5.33,0 -10.17,2.36 -14.47,7.09 -4.32,4.72 -6.48,11.19 -6.48,19.41l0 171.31c0,17.67 9.05,26.5 27.12,26.5l0 44.37c-30.4,0 -52.99,-6.06 -67.78,-18.18 -14.79,-12.12 -22.19,-28.45 -22.19,-48.99l0 -179.32c0,-10.27 2.36,-19.52 7.09,-27.73 4.72,-8.23 10.99,-15.2 18.79,-20.95 7.81,-5.76 16.74,-10.29 26.8,-13.57 10.07,-3.29 20.45,-4.93 31.12,-4.93 9.46,0 19.01,1.44 28.67,4.32 9.65,2.87 17.36,7.81 23.11,14.78 6.15,-6.97 14.37,-11.91 24.65,-14.78 10.27,-2.88 19.92,-4.32 28.95,-4.32 10.28,0 20.55,1.64 30.82,4.93 10.26,3.28 19.41,7.81 27.42,13.57 8.01,5.75 14.38,12.83 19.1,21.25 4.73,8.43 6.88,17.56 6.47,27.43l0 172.54c0,8.21 1.43,15.2 4.31,20.95 2.88,5.75 8.23,8.63 16.03,8.63 6.98,0 12.22,-2.78 15.72,-8.32 3.48,-5.54 5.23,-12.43 5.23,-20.64l0 -168.85c0,-8.22 -3.08,-14.69 -9.24,-19.41 -6.16,-4.73 -13.76,-7.09 -22.81,-7.09l0 -44.99zm236.71 392.55c8.21,-0.41 14.18,-1.54 17.87,-3.39 3.71,-1.85 5.55,-4.01 5.55,-6.47l0 -20.95c0,-3.3 -3.19,-5.76 -9.55,-7.41 -6.37,-1.63 -14.69,-2.46 -24.96,-2.46 -9.86,0 -17.97,0.83 -24.34,2.46 -6.38,1.65 -9.56,4.11 -9.56,7.41l0 20.95c0,2.88 2.16,5.23 6.48,7.08 4.32,1.86 9.96,2.78 16.94,2.78l0 36.35c-22.59,0 -41.2,-3.28 -55.77,-9.85 -14.58,-6.58 -21.88,-14.58 -21.88,-24.03l0 -44.38c0,-10.67 8.43,-19 25.27,-24.95 16.84,-5.96 37.8,-8.94 62.86,-8.94 12.73,0 24.45,0.83 35.12,2.47 10.68,1.64 20.04,3.9 28.04,6.77 8.02,2.88 14.28,6.38 18.79,10.48 4.53,4.11 6.78,8.84 6.78,14.17l0 44.38c0,9.03 -7.39,16.94 -22.17,23.72 -14.79,6.78 -33.29,10.16 -55.47,10.16l0 -36.35zm-1.85 -122.64c8.22,-0.82 13.77,-3.9 16.65,-9.24 2.87,-5.34 4.3,-11.3 4.3,-17.87l0 -171.31c0,-8.22 -2.67,-14.69 -8.01,-19.41 -5.34,-4.73 -12.73,-7.09 -22.18,-7.09 -8.63,0 -15.72,2.36 -21.26,7.09 -5.54,4.72 -8.32,11.19 -8.32,19.41l0 171.31c0,6.16 2.06,12.12 6.16,17.87 4.11,5.75 9.66,8.63 16.63,8.63l0 44.37c-12.31,0 -23.71,-1.85 -34.19,-5.55 -10.47,-3.7 -19.52,-8.62 -27.11,-14.79 -7.61,-6.16 -13.67,-13.25 -18.18,-21.26 -4.53,-8.01 -6.79,-16.53 -6.79,-25.57l0 -179.32c0,-10.27 2.48,-19.52 7.4,-27.73 4.93,-8.23 11.5,-15.2 19.73,-20.95 8.21,-5.76 17.96,-10.29 29.26,-13.57 11.3,-3.29 23.52,-4.93 36.67,-4.93 13.15,0 25.36,1.64 36.66,4.93 11.3,3.28 21.17,7.81 29.58,13.57 8.43,5.75 15,12.83 19.73,21.25 4.72,8.43 7.08,17.56 7.08,27.43l0 179.32c0,8.62 -2.05,16.95 -6.16,24.96 -4.1,8.01 -9.86,15.09 -17.26,21.26 -7.39,6.16 -16.22,11.19 -26.5,15.09 -10.27,3.92 -21.55,5.86 -33.89,5.86l0 -43.76zm157.82 -355.55l0 25.87c0,9.86 -2.24,18.59 -6.77,26.19 -4.52,7.6 -10.58,13.97 -18.18,19.09 -7.61,5.15 -16.33,8.95 -26.19,11.42 -9.86,2.46 -20.34,3.69 -31.44,3.69 -10.66,0 -20.94,-1.23 -30.8,-3.69 -9.86,-2.47 -18.59,-6.27 -26.19,-11.42 -7.6,-5.12 -13.65,-11.49 -18.18,-19.09 -4.52,-7.6 -6.78,-16.54 -6.78,-26.8l0 -25.26 62.85 0 0 21.56c0,8.21 1.96,14.07 5.86,17.56 3.9,3.5 8.32,5.24 13.24,5.24 5.36,0 9.87,-1.64 13.57,-4.94 3.7,-3.28 5.55,-9.03 5.55,-17.25l0 -22.17 63.46 0z"/>
   <path class="fil4" d="M798.9 3417.57c8.4,-0.83 14.07,-3.99 17.02,-9.44 2.94,-5.47 4.4,-11.57 4.4,-18.29l0 -175.22c0,-8.41 -2.73,-15.02 -8.19,-19.85 -5.46,-4.84 -13.03,-7.25 -22.69,-7.25 -8.83,0 -16.08,2.41 -21.75,7.25 -5.67,4.83 -8.5,11.44 -8.5,19.85l0 175.22c0,6.3 2.1,12.4 6.29,18.29 4.21,5.87 9.89,8.82 17.02,8.82l0 45.38c-12.61,0 -24.26,-1.89 -34.98,-5.67 -10.71,-3.79 -19.96,-8.82 -27.72,-15.13 -7.79,-6.31 -13.98,-13.56 -18.6,-21.75 -4.63,-8.19 -6.93,-16.91 -6.93,-26.16l0 -183.4c0,-10.52 2.51,-19.97 7.56,-28.37 5.04,-8.41 11.76,-15.55 20.17,-21.43 8.4,-5.89 18.39,-10.51 29.93,-13.87 11.56,-3.37 24.07,-5.04 37.51,-5.04 13.44,0 25.95,1.67 37.49,5.04 11.56,3.36 21.66,7.98 30.27,13.87 8.61,5.88 15.33,13.13 20.17,21.74 4.83,8.63 7.24,17.97 7.24,28.06l0 183.4c0,8.83 -2.1,17.34 -6.29,25.53 -4.22,8.2 -10.09,15.44 -17.66,21.75 -7.56,6.31 -16.59,11.45 -27.1,15.44 -10.51,4 -22.06,5.99 -34.66,5.99l0 -44.76zm295.67 66.18c0,20.6 -7.78,37.19 -23.32,49.8 -15.55,12.6 -36.55,18.91 -63.03,18.91 -24.79,0 -45.28,-6.2 -61.45,-18.59 -16.18,-12.4 -24.27,-29.1 -24.27,-50.12l0 -59.87c0,-10.51 2.31,-19.85 6.94,-28.05 4.62,-8.19 10.81,-15.23 18.59,-21.11 7.77,-5.88 16.59,-10.51 26.47,-13.88 9.88,-3.35 19.85,-5.24 29.94,-5.66l-0.63 0c5.88,-0.84 11.23,-4.09 16.08,-9.78 4.82,-5.66 7.24,-12.49 7.24,-20.48l0 -109.66c0,-8.41 -1.89,-15.03 -5.68,-19.86 -3.77,-4.84 -8.18,-7.25 -13.23,-7.25 -4.62,0 -8.72,2.41 -12.29,7.25 -3.57,4.83 -5.36,11.45 -5.36,19.86l0 48.53 -64.91 0 0 -52.95c0,-10.5 2.3,-19.96 6.93,-28.37 4.62,-8.4 10.71,-15.54 18.28,-21.43 7.56,-5.87 16.28,-10.5 26.15,-13.86 9.88,-3.37 20.28,-5.04 31.2,-5.04 10.91,0 21.44,1.67 31.52,5.04 10.08,3.36 18.91,7.99 26.46,13.86 7.57,5.89 13.67,13.14 18.29,21.76 4.61,8.6 6.92,17.95 6.92,28.04l0 117.87c0,7.56 -2.09,15.02 -6.29,22.38 -4.21,7.34 -11.77,14.38 -22.7,21.11 7.15,4.19 12.93,9.03 17.35,14.49 4.4,5.47 7.65,10.5 9.76,15.14 2.11,4.19 3.47,8.08 4.1,11.65 0.63,3.57 0.94,7.04 0.94,10.4l0 59.87zm-64.91 -10.07c-6.31,3.78 -14.08,5.66 -23.33,5.66 -7.56,0 -13.87,-1.67 -18.91,-5.04l0 5.67c0,8.41 1.9,14.93 5.68,19.54 3.77,4.63 8.82,6.94 15.12,6.94 14.28,0 21.44,-8.82 21.44,-26.48l0 -6.29zm-20.8 -39.09c4.19,0 8.08,-1.25 11.65,-3.78 3.57,-2.52 5.36,-6.72 5.36,-12.59 0,-4.64 -1.47,-8.52 -4.42,-11.67 -2.93,-3.15 -7.35,-4.72 -13.23,-4.72 -10.5,0 -15.97,5.25 -16.39,15.74 0,7.15 1.79,11.78 5.36,13.87 3.57,2.1 7.45,3.15 11.67,3.15zm188.42 -51.04c0,4.61 1.16,9.56 3.46,14.81 2.32,5.24 5.57,9.34 9.77,12.28 -2.93,-3.36 -4.73,-7.04 -5.35,-11.03 -0.62,-3.99 -0.95,-7.24 -0.95,-9.77l0 -16.38c0,-17.24 5.05,-30.47 15.14,-39.71 10.08,-9.25 26.89,-13.87 50.41,-13.87 22.69,0 40.66,5.26 53.9,15.76 13.23,10.51 19.85,24.37 19.85,41.6l0 25.21c0,16.81 -6.72,30.47 -20.17,40.98 -13.44,10.5 -31.51,15.75 -54.2,15.75l-52.95 0c-25.21,0 -45.49,-5.78 -60.83,-17.33 -15.33,-11.56 -23,-27.85 -23,-48.85l0 -182.78c0,-21.03 7.77,-37.3 23.32,-48.86 15.55,-11.56 35.93,-17.34 61.14,-17.34l52.32 0c22.69,0 40.76,5.26 54.2,15.77 13.45,10.5 20.17,24.16 20.17,40.96l0 25.21c0,17.24 -6.62,31.1 -19.85,41.6 -13.24,10.51 -31.21,15.77 -53.9,15.77 -23.52,0 -40.33,-4.63 -50.41,-13.87 -10.09,-9.25 -15.14,-22.49 -15.14,-39.71l0 -16.39c0,-2.1 0.43,-5.35 1.26,-9.76 0.84,-4.42 2.74,-8.31 5.67,-11.67 -4.2,2.94 -7.56,7.04 -10.08,12.29 -2.52,5.25 -3.78,10.2 -3.78,14.82l0 164.51zm83.83 0.63c0,-5.89 -0.74,-10.94 -2.21,-15.14 -1.47,-4.2 -3.89,-6.3 -7.25,-6.3 -3.36,0 -5.77,1.99 -7.24,5.99 -1.47,3.99 -2.21,9.14 -2.21,15.45l0 10.08c0,5.46 0.63,10.39 1.9,14.81 1.25,4.41 3.77,6.62 7.55,6.62 6.31,0 9.46,-7.14 9.46,-21.43l0 -10.08zm0 -175.23c0,-14.29 -3.15,-21.43 -9.46,-21.43 -3.78,0 -6.3,2.21 -7.55,6.62 -1.27,4.41 -1.9,9.35 -1.9,14.81l0 10.09c0,6.3 0.74,11.44 2.21,15.44 1.47,3.99 3.88,5.98 7.24,5.98 3.36,0 5.78,-2.09 7.25,-6.3 1.47,-4.2 2.21,-9.24 2.21,-15.12l0 -10.09zm305.14 327.12l-100.21 0c-15.14,0 -29.01,-1.89 -41.61,-5.67 -12.61,-3.78 -23.64,-9.77 -33.09,-17.95 -9.45,-8.21 -16.8,-18.41 -22.06,-30.58 -5.26,-12.19 -7.88,-26.9 -7.88,-44.12l0 -226.28c0,-10.51 2.83,-19.96 8.51,-28.36 5.67,-8.41 13.14,-15.55 22.38,-21.44 9.24,-5.88 19.75,-10.51 31.51,-13.86 11.76,-3.37 23.95,-5.04 36.57,-5.04l0 45.38c-8.41,0 -16.29,2.41 -23.65,7.25 -7.36,4.83 -11.02,11.45 -11.02,19.86l0 219.33c0,18.92 3.66,33.1 11.02,42.56 7.36,9.44 17.13,14.17 29.32,14.17l100.21 0 0 44.75zm108.38 -143.07c0,10.49 -2.63,20.06 -7.88,28.67 -5.25,8.62 -12.41,15.87 -21.43,21.76 -9.04,5.87 -19.44,10.5 -31.2,13.86 -11.77,3.36 -24.17,5.04 -37.2,5.04 -13.01,0 -25.41,-1.68 -37.18,-5.04 -11.77,-3.36 -22.07,-8.1 -30.88,-14.18 -8.82,-6.09 -15.87,-13.35 -21.12,-21.75 -5.25,-8.4 -7.88,-17.87 -7.88,-28.36l0 -42.86 74.38 0 0 39.07c0,7.98 2.11,14.39 6.31,19.23 4.19,4.83 9.65,7.25 16.37,7.25 6.73,0 12.3,-2.42 16.71,-7.25 4.42,-4.84 6.62,-11.25 6.62,-19.23l0 -38.44c0,-7.98 -2.3,-14.5 -6.94,-19.55 -4.62,-5.03 -10.71,-7.98 -18.27,-8.82 -13.03,0 -25.33,-1.68 -36.88,-5.04 -11.55,-3.36 -21.63,-7.98 -30.25,-13.87 -8.61,-5.88 -15.44,-13.12 -20.48,-21.75 -5.05,-8.6 -7.57,-17.95 -7.57,-28.04l0 -45.38c0,-10.5 2.63,-19.96 7.88,-28.35 5.25,-8.42 12.3,-15.67 21.12,-21.76 8.81,-6.09 19.11,-10.82 30.88,-14.19 11.77,-3.35 24.17,-5.03 37.18,-5.03 13.03,0 25.43,1.68 37.2,5.03 11.76,3.37 22.16,8.1 31.2,14.19 9.02,6.09 16.18,13.45 21.43,22.06 5.25,8.61 7.88,17.97 7.88,28.05l0 42.85 -74.38 0 0 -38.44c0,-8.4 -2.2,-15.12 -6.62,-20.17 -4.41,-5.04 -9.98,-7.56 -16.71,-7.56 -6.72,0 -12.18,2.52 -16.37,7.56 -4.2,5.05 -6.31,11.77 -6.31,20.17l0 36.56c0,8.4 1.98,15.02 5.99,19.85 4,4.83 9.56,7.67 16.69,8.52 13.03,0 25.43,1.67 37.2,5.03 11.76,3.36 22.16,8.1 31.2,14.18 9.02,6.1 16.18,13.35 21.43,21.75 5.25,8.4 7.88,17.86 7.88,28.37l0 46.01z"/>
   <path class="fil4" d="M1797.43 3388.59c0,11.34 2.11,18.69 6.31,22.05 4.2,3.36 9.03,5.05 14.49,5.05 5.47,0 10.4,-1.89 14.81,-5.68 4.41,-3.77 6.63,-10.92 6.63,-21.42l0 -173.33c0,-10.52 -2.22,-17.65 -6.63,-21.44 -4.41,-3.77 -9.34,-5.67 -14.81,-5.67 -5.46,0 -10.29,1.78 -14.49,5.36 -4.2,3.57 -6.31,10.82 -6.31,21.75l0 48.53 -64.92 0 0 -52.95c0,-10.5 2.43,-19.96 7.25,-28.37 4.82,-8.4 11.24,-15.54 19.22,-21.43 7.99,-5.87 17.12,-10.5 27.42,-13.86 10.29,-3.37 20.9,-5.04 31.83,-5.04 11.35,0 22.17,1.67 32.47,5.04 10.29,3.36 19.43,7.99 27.41,13.86 7.99,5.89 14.39,13.14 19.22,21.76 4.84,8.6 7.26,17.95 7.26,28.04l0 181.53c0,10.08 -2.42,19.43 -7.26,28.04 -4.83,8.62 -11.23,15.87 -19.22,21.75 -7.98,5.88 -17.12,10.5 -27.41,13.87 -10.3,3.36 -21.12,5.04 -32.47,5.04 -10.93,0 -21.54,-1.58 -31.83,-4.73 -10.3,-3.14 -19.43,-7.77 -27.42,-13.87 -7.98,-6.09 -14.4,-13.34 -19.22,-21.74 -4.82,-8.4 -7.25,-17.86 -7.25,-28.36l0 -50.43 64.92 0 0 46.65zm287.5 -247.08c14.7,0 26.35,1.26 34.98,3.78 8.61,2.52 16.07,6.94 22.38,13.23 7.14,-7.15 15.64,-11.97 25.52,-14.5 9.88,-2.51 20.28,-3.78 31.2,-3.78 9.67,0 19.01,1.48 28.05,4.43 9.03,2.93 17.12,7.14 24.26,12.59 6.73,-5.89 15.23,-10.18 25.53,-12.92 10.29,-2.73 20.48,-4.1 30.56,-4.1 10.93,0 21.64,1.59 32.15,4.74 10.5,3.15 19.75,7.67 27.73,13.54 8,5.88 14.4,13.03 19.23,21.45 4.83,8.39 7.25,17.85 7.25,28.35l0 184.68c0,10.49 -2.73,19.96 -8.19,28.36 -5.47,8.4 -12.61,15.55 -21.44,21.44 -8.81,5.87 -19.11,10.4 -30.88,13.54 -11.77,3.15 -23.95,4.73 -36.56,4.73l0 -46.02c9.25,0 16.81,-2.2 22.7,-6.61 5.87,-4.41 8.82,-10.61 8.82,-18.6l0 -177.11c0,-8.4 -2.1,-14.91 -6.31,-19.53 -4.2,-4.63 -9.03,-6.94 -14.5,-6.94 -5.04,0 -9.66,2.1 -13.87,6.3 -4.18,4.21 -6.72,10.09 -7.55,17.66l0 248.96 -65.55 0 0 -248.34c-0.85,-7.98 -3.37,-14.07 -7.57,-18.28 -4.19,-4.2 -8.83,-6.3 -13.86,-6.3 -5.05,0 -9.66,2.1 -13.87,6.3 -4.2,4.21 -6.72,10.3 -7.56,18.28l0 248.34 -65.56 0 0 -242.67c0,-8.4 -2.41,-15.55 -7.24,-21.43 -4.83,-5.89 -12.09,-8.62 -21.75,-8.19l-57.35 0c-4.63,0 -8.83,2.41 -12.61,7.25 -3.78,4.83 -5.68,11.45 -5.68,19.86l0 14.49c4.21,-0.85 8.2,-1.26 11.98,-1.26 22.7,0 41.39,6.3 56.1,18.9 14.71,12.61 22.07,29.42 22.07,50.42l0 96.45c0,21.42 -7.36,38.34 -22.07,50.74 -14.71,12.39 -33.4,18.59 -56.1,18.59 -22.27,0 -40.65,-6.2 -55.15,-18.59 -14.5,-12.4 -21.74,-29.32 -21.74,-50.74l0 -182.16c0,-10.5 2.31,-19.96 6.93,-28.37 4.62,-8.4 10.71,-15.64 18.28,-21.74 7.56,-6.1 16.38,-10.82 26.47,-14.18 10.09,-3.37 20.6,-5.04 31.52,-5.04l59.25 0zm-52.95 159.46c0,-8.4 -0.95,-15.02 -2.84,-19.86 -1.89,-4.83 -5.15,-7.24 -9.77,-7.24 -4.2,0 -7.25,2.41 -9.14,7.24 -1.89,4.84 -2.84,11.46 -2.84,19.86l0 88.87c0,7.99 0.95,14.39 2.84,19.23 1.89,4.83 4.94,7.25 9.14,7.25 4.62,0 7.88,-2.42 9.77,-7.25 1.89,-4.84 2.84,-11.24 2.84,-19.23l0 -88.87zm397.16 -177.12c0,-8.4 -0.74,-14.91 -2.2,-19.53 -1.48,-4.62 -5.16,-6.93 -11.04,-6.93 -5.46,0 -8.93,2.31 -10.4,6.93 -1.47,4.62 -2.21,11.13 -2.21,19.53l0 8.83 -64.28 0 0 -13.24c0,-21.01 7.15,-37.71 21.43,-50.1 14.28,-12.41 32.77,-18.59 55.46,-18.59 22.27,0 40.76,6.18 55.47,18.59 14.7,12.39 22.06,29.09 22.06,50.1l0 339.74 -64.29 0 0 -335.33zm385.81 269.15c0,10.49 -2.72,20.06 -8.19,28.67 -5.46,8.62 -12.61,15.87 -21.43,21.76 -8.83,5.87 -19.12,10.5 -30.88,13.86 -11.76,3.36 -23.96,4.83 -36.56,4.41 -13.45,-0.42 -26.58,-2 -39.39,-4.73 -12.82,-2.73 -23.01,-8.3 -30.57,-16.7 -4.21,5.88 -9.89,10.92 -17.02,15.12 -7.14,4.21 -18.28,6.31 -33.4,6.31 -20.18,0 -36.25,-6.1 -48.22,-18.27 -11.99,-12.19 -17.98,-29.01 -17.98,-50.43l0 -65.56c0,-21 7.36,-37.71 22.07,-50.11 14.72,-12.39 34.88,-18.59 60.51,-18.59l8.2 0 0 -50.42c0,-11.77 2.62,-21.95 7.87,-30.57 5.26,-8.62 12.3,-15.77 21.11,-21.43 8.83,-5.68 19.03,-9.98 30.58,-12.92 11.55,-2.95 23.63,-4.41 36.24,-4.41 12.6,0 24.8,1.46 36.56,4.41 11.76,2.94 22.05,7.24 30.88,12.92 8.82,5.66 15.97,12.93 21.43,21.74 5.47,8.83 8.19,18.91 8.19,30.26l0 50.42 8.2 0c25.63,0 45.91,6.2 60.82,18.59 14.93,12.4 22.38,29.11 22.38,50.11l0 65.56c0,21.42 -6.09,38.34 -18.28,50.74 -12.18,12.39 -32.56,18.59 -61.14,18.59l-10.08 0 0 -46.01 10.08 0c4.62,0 8.19,-2.42 10.72,-7.25 2.5,-4.84 3.78,-11.24 3.78,-19.23l0 -57.98c0,-8.41 -1.28,-15.03 -3.78,-19.86 -2.53,-4.83 -7.35,-7.24 -14.5,-7.24l-8.2 0 0 88.24zm-66.19 -88.24l-61.76 0 0 78.79c0,21.84 10.29,32.77 30.89,32.77 10.49,0 18.28,-2.95 23.32,-8.83 5.04,-5.88 7.55,-13.66 7.55,-23.31l0 -79.42zm0 -46.02l0 -46.01c0,-10.08 -2.72,-17.23 -8.18,-21.43 -5.47,-4.19 -13.03,-6.3 -22.69,-6.3 -8.4,0 -15.65,2 -21.75,5.98 -6.09,3.99 -9.14,11.25 -9.14,21.75l0 46.01 61.76 0zm-139.91 156.31c5.46,0 9.02,-2.41 10.71,-7.23 1.68,-4.85 2.53,-12.09 2.53,-21.76l0 -81.3 -8.83 0c-7.14,0 -11.76,3.05 -13.87,9.13 -2.11,6.1 -3.15,12.09 -3.15,17.97l0 57.98c0,7.16 0.73,13.13 2.21,17.98 1.47,4.82 4.93,7.23 10.4,7.23zm373.1 -361.14l0 26.46c0,10.08 -2.31,19.01 -6.93,26.79 -4.61,7.77 -10.82,14.29 -18.59,19.52 -7.78,5.27 -16.71,9.15 -26.79,11.68 -10.09,2.52 -20.8,3.78 -32.14,3.78 -10.94,0 -21.44,-1.26 -31.52,-3.78 -10.08,-2.53 -19.01,-6.41 -26.79,-11.68 -7.78,-5.23 -13.97,-11.75 -18.6,-19.52 -4.63,-7.78 -6.93,-16.92 -6.93,-27.42l0 -25.83 64.3 0 0 22.05c0,8.4 2,14.39 5.98,17.96 3.99,3.58 8.52,5.35 13.56,5.35 5.46,0 10.07,-1.67 13.86,-5.04 3.78,-3.35 5.68,-9.24 5.68,-17.64l0 -22.68 64.91 0zm262.8 87.6c29.83,0 53.57,6.3 71.23,18.91 17.65,12.61 26.47,29.19 26.47,49.8l0 183.4c0,10.1 -2.41,19.44 -7.25,28.05 -4.83,8.62 -11.24,15.87 -19.22,21.76 -7.99,5.87 -17.13,10.5 -27.42,13.86 -10.29,3.36 -21.13,5.04 -32.46,5.04 -10.93,0 -21.54,-1.68 -31.84,-5.04 -10.29,-3.36 -19.43,-8.1 -27.41,-14.18 -7.98,-6.09 -14.39,-13.56 -19.23,-22.38 -4.84,-8.82 -7.24,-18.69 -7.24,-29.62l0 -176.49c0,-8.41 -2.1,-15.02 -6.31,-19.85 -4.2,-4.84 -9.04,-7.25 -14.49,-7.25 -5.05,0 -9.67,2.21 -13.87,6.62 -4.21,4.41 -6.72,10.6 -7.57,18.59l0 246.45 -64.91 0 0 -246.45c-0.85,-7.99 -3.47,-14.18 -7.89,-18.59 -4.41,-4.41 -8.92,-6.62 -13.54,-6.62 -5.46,0 -10.4,2.41 -14.82,7.25 -4.41,4.83 -6.62,11.44 -6.62,19.85l0 175.22c0,18.07 9.26,27.11 27.74,27.11l0 45.38c-31.1,0 -54.22,-6.2 -69.33,-18.59 -15.12,-12.4 -22.7,-29.11 -22.7,-50.12l0 -183.4c0,-10.52 2.42,-19.97 7.25,-28.37 4.84,-8.41 11.24,-15.55 19.23,-21.43 7.98,-5.89 17.12,-10.51 27.41,-13.87 10.3,-3.37 20.9,-5.04 31.84,-5.04 9.66,0 19.42,1.47 29.31,4.41 9.87,2.94 17.75,7.98 23.63,15.12 6.31,-7.14 14.71,-12.18 25.22,-15.12 10.5,-2.94 20.38,-4.41 29.62,-4.41 10.5,0 21.01,1.67 31.51,5.04 10.51,3.36 19.85,7.98 28.05,13.87 8.19,5.88 14.71,13.13 19.53,21.74 4.85,8.63 7.05,17.97 6.62,28.06l0 176.47c0,8.41 1.48,15.55 4.42,21.44 2.94,5.87 8.41,8.82 16.39,8.82 7.14,0 12.5,-2.84 16.07,-8.51 3.57,-5.67 5.35,-12.71 5.35,-21.11l0 -172.71c0,-8.41 -3.15,-15.02 -9.44,-19.85 -6.31,-4.84 -14.08,-7.25 -23.33,-7.25l0 -46.01zm173.4 -87.6l0 26.46c0,10.08 -2.3,19.01 -6.93,26.79 -4.62,7.77 -10.82,14.29 -18.59,19.52 -7.77,5.27 -16.71,9.15 -26.78,11.68 -10.1,2.52 -20.81,3.78 -32.15,3.78 -10.93,0 -21.44,-1.26 -31.52,-3.78 -10.09,-2.53 -19.02,-6.41 -26.79,-11.68 -7.77,-5.23 -13.97,-11.75 -18.59,-19.52 -4.63,-7.78 -6.94,-16.92 -6.94,-27.42l0 -25.83 64.3 0 0 22.05c0,8.4 1.99,14.39 5.98,17.96 3.99,3.58 8.52,5.35 13.56,5.35 5.46,0 10.08,-1.67 13.86,-5.04 3.78,-3.35 5.68,-9.24 5.68,-17.64l0 -22.68 64.91 0z"/>
  </g>
 </g>
</svg>
