<?xml version="1.0" encoding="UTF-8"?>
<!DOCTYPE svg PUBLIC "-//W3C//DTD SVG 1.1//EN" "http://www.w3.org/Graphics/SVG/1.1/DTD/svg11.dtd">
<!-- Creator: CorelDRAW 2020 (64-Bit) -->
<svg xmlns="http://www.w3.org/2000/svg" xml:space="preserve" width="50mm" height="50mm" version="1.1" style="shape-rendering:geometricPrecision; text-rendering:geometricPrecision; image-rendering:optimizeQuality; fill-rule:evenodd; clip-rule:evenodd"
viewBox="0 0 5000 5000"
 xmlns:xlink="http://www.w3.org/1999/xlink"
 xmlns:xodm="http://www.corel.com/coreldraw/odm/2003">
 <defs>
  <style type="text/css">
   <![CDATA[
    .str0 {stroke:#FEFEFE;stroke-width:31.35;stroke-miterlimit:22.9256}
    .fil3 {fill:none}
    .fil2 {fill:none;fill-rule:nonzero}
    .fil0 {fill:#FEFEFE}
    .fil1 {fill:#FEFEFE;fill-rule:nonzero}
   ]]>
  </style>
 </defs>
 <g id="Layer_x0020_1">
  <metadata id="CorelCorpID_0Corel-Layer"/>
  <g id="_1790603073232">
   <path class="fil0" d="M2541.77 1482.14c10.43,-2.75 -3.19,4.07 9.37,-30.62 -3.39,1.79 -6.5,3.36 -9.37,4.77l0 25.85z"/>
   <path class="fil0" d="M3255.95 1272.19c186.38,9.14 222.51,216.62 144.95,246.28 -7.71,-15.79 -7.52,-29.76 -5.38,-43.67 3.14,-20 -18.94,-31.68 -41.09,-11.51 5.9,-31.39 17.23,-53.86 7.2,-78.6 -7.81,-19.23 -35.62,-38.59 -53.29,-73.01 57.67,55.52 82.19,69.62 65.3,129.73 25.56,-15.7 32.99,9.63 36.99,28.59 32.05,-53.34 -12.46,-162.15 -154.68,-197.81z"/>
   <path class="fil0" d="M3304.24 1314.91c-12.77,-6.07 -34.81,10.92 -38.44,20.6 -3.65,9.68 10.04,45 -5.83,49.03 -15.82,4.04 -51.65,-1.52 -60.38,9.23 -8.72,10.7 8.54,60.8 8.54,60.8 0,0 -8.7,-42.54 6.81,-55.91 15.53,-13.37 66.56,14.17 67.68,-4.53 -3.66,-15.75 -9.91,-36.55 -5.17,-52.39 3.47,-11.52 15,-18.94 26.79,-26.83z"/>
   <path class="fil0" d="M3175.7 1409.89c0,0 0.1,19.19 -14.49,39.79 -23.13,32.64 -83.08,37.84 -115.51,21.37 -56.13,-28.47 -47.39,-50.69 -74.55,-72.17 -14.42,-11.39 -34.2,-19.41 -49.51,-24.42 -25.62,-8.35 -24.62,-17.88 -1.76,-37.66 16.24,-14.01 55.15,-31.7 112.01,-3.88 -68.26,-4.28 -106.05,3.6 -113.11,25.8 7.74,-3.53 53.99,3.34 72.62,30.15 32.48,46.85 41.11,67.13 94.96,70.83 55.85,3.84 89.34,-49.81 89.34,-49.81z"/>
   <path class="fil1" d="M2954.84 1257.38c-67.51,-31.17 -145.82,-80.23 -157.89,-155.83 -3.98,-24.83 1.51,-14.81 14.72,0.54 18.77,21.82 42.46,37.83 55.48,46.56l-32.92 -36.95c-14.1,-20.12 -26.21,-36.1 -38.6,-67.93 -10.39,-17.16 -13.32,14.13 -13.19,19.19 1.34,48.4 17.57,90.27 46.47,126.53 31.78,39.93 78.96,73.02 138.6,100.58l-12.67 -32.69z"/>
   <path class="fil0" d="M3038.92 1215.71c0,0 6.13,-4.79 15.83,-6.8 9.71,-2.07 17.56,9.14 25.97,26.49 8.4,17.36 -13.47,-19.13 -25.25,-19.95 -11.78,-0.85 -16.55,0.26 -16.55,0.26z"/>
   <path class="fil0" d="M3066.61 1223.08c0.24,0.78 -2.15,12.47 -12.44,10.97 -6.75,-0.95 -12.47,-10.84 -7.09,-15.8l4.9 -4.43 8.42 0.72c0,0 6.03,7.83 6.21,8.54z"/>
   <path class="fil0" d="M1827.61 1272.19c-186.37,9.14 -222.52,216.62 -144.95,246.28 7.72,-15.79 7.52,-29.76 5.38,-43.67 -3.13,-20 18.92,-31.68 41.1,-11.51 -5.9,-31.39 -17.24,-53.86 -7.21,-78.6 7.79,-19.23 35.61,-38.59 53.3,-73.01 -57.68,55.52 -82.21,69.62 -65.32,129.73 -25.56,-15.7 -32.99,9.63 -37,28.59 -32.05,-53.34 12.51,-162.15 154.7,-197.81z"/>
   <path class="fil0" d="M1779.32 1314.91c12.79,-6.07 34.79,10.92 38.44,20.6 3.65,9.68 -10.05,45 5.81,49.03 15.85,4.04 51.67,-1.52 60.41,9.23 8.72,10.7 -8.54,60.8 -8.54,60.8 0,0 8.7,-42.54 -6.82,-55.91 -15.52,-13.37 -66.55,14.17 -67.68,-4.53 3.65,-15.75 9.91,-36.55 5.17,-52.39 -3.48,-11.52 -15,-18.94 -26.79,-26.83z"/>
   <path class="fil0" d="M1907.84 1409.89c0,0 -0.08,19.19 14.51,39.79 23.13,32.64 83.08,37.84 115.5,21.37 56.13,-28.47 47.38,-50.69 74.57,-72.17 14.42,-11.39 34.16,-19.41 49.52,-24.42 25.57,-8.35 24.6,-17.88 1.74,-37.66 -16.24,-14.01 -55.14,-31.7 -112,-3.88 68.25,-4.28 106.02,3.6 113.1,25.8 -7.72,-3.53 -54.03,3.34 -72.62,30.15 -32.53,46.85 -41.13,67.13 -94.97,70.83 -55.84,3.84 -89.35,-49.81 -89.35,-49.81z"/>
   <path class="fil1" d="M2128.73 1257.38c67.51,-31.17 145.81,-80.23 157.88,-155.83 3.97,-24.83 -1.5,-14.81 -14.72,0.54 -18.78,21.82 -42.45,37.83 -55.51,46.56l32.94 -36.95c14.11,-20.12 26.23,-36.1 38.61,-67.93 10.39,-17.16 13.32,14.13 13.16,19.19 -1.31,48.4 -17.54,90.27 -46.43,126.53 -31.8,39.93 -78.96,73.02 -138.6,100.58l12.67 -32.69z"/>
   <path class="fil0" d="M2044.65 1215.71c0,0 -6.15,-4.79 -15.84,-6.8 -9.71,-2.07 -17.55,9.14 -25.98,26.49 -8.39,17.36 13.46,-19.13 25.26,-19.95 11.79,-0.85 16.56,0.26 16.56,0.26z"/>
   <path class="fil0" d="M2016.93 1223.08c-0.21,0.78 2.16,12.47 12.46,10.97 6.75,-0.95 12.47,-10.84 7.07,-15.8l-4.88 -4.43 -8.44 0.72c0,0 -6,7.83 -6.21,8.54z"/>
   <path class="fil0" d="M2356.06 876.09l6.99 0 65.12 78.21c-36.58,5.47 -64.8,36.71 -64.8,74.11l0 0c0,33.11 22.12,61.35 52.55,71.2 0.47,0.17 7.1,0.31 7.6,0.47l-53.36 62.78 -14.1 0 0 -286.77zm67.83 0l233.85 0 -64.3 77.39 -31.42 0 0 -0.5 -1.01 0 -40.36 0 -1.02 0 0 0.5 -31.45 0 -64.29 -77.39zm294.68 0l7.01 0 0 286.77 -14.11 0 -53.35 -62.78c0.5,-0.16 7.1,-0.3 7.59,-0.47 30.42,-9.85 52.55,-38.09 52.55,-71.2l0 0c0,-37.4 -28.21,-68.64 -64.79,-74.11l65.1 -78.21zm-67.94 286.77l-88.61 0 0 -18.29 0 -17.68 0 -130.47 70.59 0c20.9,0 38.02,13.12 38.02,31.99l0 0c0,18.83 -17.12,34.26 -38.02,34.26l-66.88 0 18.15 21.4 66.75 78.79zm-131 0l-88.64 0 66.77 -78.79 18.16 -21.4 -66.91 0c-20.91,0 -38.02,-15.43 -38.02,-34.26l0 0c0,-18.87 17.11,-31.99 38.02,-31.99l70.62 0 0 130.47 0 17.68 0 18.29z"/>
   <path class="fil1" d="M2648.54 793.33c1.84,-27.6 33.65,-74.54 68.36,-78.28 13.35,-10.65 70.09,-0.49 87.27,15.2 28.83,22.31 46.09,75.89 60.82,120.98 16.17,49.43 37.4,109.58 75.11,160.05 42.99,33.09 72.32,-24.13 90.04,49.01 3.99,9.72 1.41,27.53 7.28,30.93 5.88,3.38 20.15,-7.59 35.54,-6.21 40.61,-13.46 48.35,15.02 54.97,25.69 4.46,7.21 -1.31,21.26 6.59,25.84 17.45,10.04 47.65,7.17 65.38,6.37 16.92,-0.82 57.46,3.14 76.15,37.9 9.94,18.54 11.65,40.84 5.55,59.38 -5.38,16.35 -43.4,43.76 -63.06,49.09 -14.34,6 10.62,8.06 17.05,5.65 8.14,-3.04 19.28,-8.23 28.59,-12.28 28.84,-12.58 61.48,3.55 93.76,1.1 88.17,4.53 209.42,12.04 318.79,52.02 108.2,39.57 220.82,112.21 289.77,250.95 8.7,17.52 27.83,63.4 31.47,115.22 -21.21,-34.4 -47.32,-57.59 -80.72,-79.32 32.93,29.22 68.86,85.26 87.34,129.19 15.11,35.89 22.08,94.74 0.64,136.92 -3.26,56.99 20.03,83.03 30.04,139 0,0.05 -10.74,24.4 -7.59,57.19 3.87,39.59 26.02,89.97 23.5,104.02 49.55,-72.48 55.15,-71.96 26.9,-155.49 -4.09,-12.08 -44.36,-53.71 -38.76,-151.22 1.51,-26.38 3,-52.79 3.15,-79.92l0 -0.09 0.02 -7.05 0 -0.09c-0.18,-41.37 -5.36,-76.2 -15.12,-110 -9.75,-33.72 -23.86,-66.01 -42.02,-102.54 -73.6,-148.1 -184.67,-226.3 -300.38,-268.57 -114.5,-41.86 -232.47,-48.15 -322.9,-52.78 -37,-1.87 -45.44,-47.78 -58.41,-71.91 -29.13,-54.14 -67.14,-68.83 -97.51,-67.37 -24.55,1.11 -46.82,0.9 -60.52,-21.26 -8.07,-14.51 -15.27,-29.01 -41.21,-33.34 -20.34,-3.39 -41.72,9.93 -50.02,-12.11 -6.07,-16.2 -13.19,-35.2 -38.61,-46.89 -11.92,-5.49 -22.72,-8.13 -32.9,-10.63 -12.35,-3.01 -23.4,-5.73 -30.16,-13.41 -37.16,-42.38 -53.87,-93.38 -68.99,-139.66 -16.51,-50.42 -31.37,-95.74 -68.52,-124.47 -13.76,-10.59 -30.06,-17.81 -47.25,-21.38 -19.86,-4.07 -40.93,-3.21 -60.58,3.13 -19.9,6.39 -38.34,18.3 -52.68,36.21 -11.32,14.15 -20,31.99 -24.61,53.78l-2.48 18.15c-1.64,11.84 0.58,13.78 9.85,6.93 15.52,-11.52 25.91,-3.63 38.59,-14.37 11.84,9.56 11.51,33.87 27.84,25.62 5.32,-2.67 -7.8,-11.13 0.14,-26.35 15.74,-30.05 50.61,-25.77 58.31,-3.15 11.8,34.76 15.47,115.49 24.79,172.35 5.73,34.64 10.85,66.05 16.32,86.95l0 0.09 0.05 0.08c22.14,84.37 83.25,96.46 128.41,137.27 25.67,23.16 14.83,53.16 20.83,82.06 4.61,22.16 39.71,55.47 93.79,61.54 4.13,-1.59 -44.17,-27.72 -62.64,-49.45 -13.46,-15.83 -15.3,-35.76 -14.98,-42.47l0 -0.04c1.18,-24.66 -1.26,-40.72 -22.95,-60.35 -29.82,-26.93 -90.66,-61.23 -109.54,-92.15 -40.32,-65.92 -35.06,-165.86 -48.58,-241.04 -7.51,-41.8 -17.88,-74.43 -38,-83.21 -44.07,-19.26 -73.93,35.18 -101.31,22.99z"/>
   <path class="fil1" d="M4004.95 1885.31c-19.46,44.27 -34.45,122.64 -25.2,158.73 9.12,35.46 23.06,68.74 38.29,104.86l-0.02 0.01 0.07 0.13 0.07 0.06c6.8,16.2 9.32,34.47 9.94,52.32 0.24,6.99 1.74,17.45 -17.14,20.05 -0.13,4.12 17.44,8.66 18.25,12.68 2.86,14.27 10.43,27.78 13.53,39.64l2.06 7.63c5.68,20.59 -16.76,21.42 -22.2,21.25l-82.07 -6.83c-1.52,6.1 -44.87,12.72 -36.56,-16.67 3.61,-12.9 16.89,-27.91 35.81,-20.69 2.12,-9.86 -47.7,-17.46 -48.53,32.01 -0.16,9.27 -29.1,8.22 -29.09,-1.56 5.33,-35.6 14.99,-45.01 36.04,-36.39 1.69,-3.07 -7.59,-12.26 -6.35,-15.2 2.45,-5.84 15.31,-6.03 16.97,-12.66 -37.79,-32.76 9.11,-38.24 4.91,-48.51 -21.08,-51.46 -39.46,-84.7 -74.77,-119.56 -16.27,-16.05 -36.67,-35.01 -49.77,-56.97 -9.61,-16.11 -16.84,-36.47 -23.58,-80.98 -16.48,-51.31 -64.38,-203.92 -119.75,-221.65 6.7,7.83 15.15,21.21 23.59,36.96 4.07,7.52 8.1,15.6 12.01,23.9 16.83,35.8 30.36,75.26 25.59,89.66 -3.52,10.75 -9.49,25.81 -8.1,35.84 0.5,3.9 -8.81,16.19 -5.58,13.71 23.67,-18.1 50.59,15.83 50.34,34.22 5.29,78.21 11.17,57.14 86.36,136.56 16.62,17.49 24.56,37.78 35.65,57.21 11.36,19.94 15.14,49.1 11.97,75.45 -0.68,5.62 -1.64,10.97 -2.89,15.95 -1.23,4.86 -2.75,9.5 -4.56,13.82 -1,2.36 -1.99,4.38 -2.92,6.08l-3.05 5.62 -0.02 -0.01c-9.22,16.84 -15.84,29.04 -16.26,40.56 -0.83,22.02 12.76,31.46 51.81,32.87l126.28 4.5c31.88,1.15 42.09,-5.34 42.87,-25.63 0.24,-6.87 -1.59,-13.53 -4.07,-22.47 -1.16,-4.18 -1.59,-5.63 -2.02,-7.25 -2.75,-10.45 -11.12,-25.4 -10.64,-41.63 1.41,-45.32 -11.14,-82.67 -25.8,-120.19 -21.4,-54.87 -42.85,-101.76 -21.47,-217.43z"/>
   <path class="fil1" d="M3654.05 1974.5c-13.86,47.67 -37.33,114.9 -19.06,149.84 9.78,19.87 26.99,26.29 19.78,49.62l-0.04 -0.01c-7.29,15.05 -53.15,78.25 -33.05,90.76l-0.01 0.01c3.09,1.94 6.59,2.96 10.55,3.04 61.65,1.14 264.56,45.83 164.83,-75.77 -26.12,-41.81 13.71,-84.62 40.92,-114.08l-19.46 -21.07c-24.62,35.45 -63.41,87.74 -43.01,132.73 1.73,3.8 -12.88,4.81 -10.31,8.93 1.13,1.76 18.95,6.59 20.03,8.6 37.23,68.16 -60.23,46.95 -99.67,46.71 13.69,-12.9 12.32,-25.82 -0.16,-38.75 6.57,31.59 -24.82,44.23 -54.92,39.79 -11.55,-27.9 47.34,-47.78 56.05,-66.31 0,-0.01 -4.1,-30.31 -1.48,-31.07 52.17,-15.3 -4.5,-13.33 -11.75,-16.4 -58.36,-24.82 -5.14,-138.85 16.6,-172.24l-3.34 -2.14c-10.25,3.4 -21.46,9.11 -32.5,7.81z"/>
   <path class="fil1" d="M3748.61 1952.92c-52.14,11.92 -128.01,26.56 -190.13,1.05 -62.76,-25.74 -93.9,-47.36 -175.58,-105.85 -1.95,-1.4 -24.43,-22.42 -26.44,-23.9l-11.43 22.38c92.2,64.45 138.32,90.93 205.31,118.39 69.08,28.38 149.09,23.51 208.88,9.81l-10.61 -21.88z"/>
   <path class="fil0" d="M3708.98 1811.06c-14.89,151.38 -169.89,96.41 -285.19,40.31 63.19,55.7 243.32,117.1 305.22,11.3 0,0 -21.38,-52.9 -20.03,-51.61z"/>
   <path class="fil1" d="M3785.04 1423.83c-93.03,-47.1 -183,-76.92 -286.85,-115.75 81.86,12 206.15,51.48 299.88,109.98 66.22,41.35 135.94,117.93 162.89,191.33 -44.97,-43.97 -79.86,-136.98 -175.92,-185.56z"/>
   <path class="fil1" d="M3165.37 1511.29c-0.23,11.75 -30.25,118.56 -30.29,130.09 -0.21,111.79 9.38,215.42 38.79,320.42 2.7,9.65 13.04,46.72 19.93,82.8 9.76,50.96 10.3,90.21 -0.14,114.18 -25.3,19.82 -41.04,34.18 -43,51.57 -2.04,18.19 -3.92,26.81 5.67,31.46l1.2 -2.07 190 0c-1.59,3.62 -3.23,7.22 -4.88,10.82 12.69,-0.9 21.37,-3.45 23,-9.38 0.05,-0.13 7.04,-27.94 -8.64,-54.32 -14.19,-43.38 -15.43,-97.38 -9.27,-159.95 4.78,-48.7 5.5,-111.96 -2.03,-150.9 13.4,-8.69 32.59,-56.47 12.74,-145.05 -9.49,-42.36 0.33,-84.39 -1.51,-100.74 -13.65,32.04 -18.71,89.35 -11.13,141.47 3.93,27.15 4.11,45.71 -7.13,72.68 -21.31,31.15 -55.58,8.48 -52.61,-44.56 -19.53,73.72 29.61,79.8 44.64,81.14 7.45,38.55 2.61,158.4 -3.81,208.53 -1.14,13.57 -3.29,25.72 -4.31,37.83 -1.67,20.07 -21.4,27.34 -21.18,30.4 0.35,5.46 21.64,3.24 23.1,9.15 9.45,9.18 11.65,19.11 17.38,30.25 8.57,14.46 1.82,28.6 -4.23,34.83 -10.28,10.62 -74.29,4.43 -88.91,2.07 -60.49,-1.36 -38.37,-44.23 -20.41,-58.08 -14.73,3.97 -50.58,27.5 -27.06,54.6 -27.38,6.81 -34.58,2.12 -38.04,-7.18 9.68,-51.83 41.53,-37.29 50.17,-48.09 5.48,-6.93 7.95,-21.91 8.12,-41.45 0.18,-20.68 18.27,-24.55 13.11,-26.8 -14.43,-6.33 -15.46,-17.53 -16.09,-23.11 -3.3,-30.24 -9.14,-63.47 -15.85,-92.9 -3.03,-13.32 -6.19,-25.9 -9.31,-37.07 -3.19,-11.41 -6.33,-21.32 -9.25,-28.96l-0.05 -0.21 -0.05 -0.07c-18.44,-49.11 -31.54,-215.41 -24.8,-283.5l6.13 -129.9zm18.67 413.4l-18.67 -413.4 18.67 413.4z"/>
   <path class="fil1" d="M3095.29 1525.15c-57.49,83.69 -111.68,178.55 -183.21,246.67 -35.41,33.74 -88.93,83.5 -96.13,115.37l-0.01 0.14 -0.05 0.07c-3.43,15.28 -2.93,38.1 -2.4,61.27 0.6,27.43 1.25,53.86 -0.45,62.11l-3.49 0.32 -0.06 0.13c-2.51,3.45 -4.7,7.02 -6.62,10.66 -1.85,3.58 -3.45,7.21 -4.81,10.75 -21.84,56.97 16.32,49.82 50.12,51.47 19,0.96 42.43,2.4 61.24,2.4 37.19,0 68.66,2.01 71.18,-12.92l0.01 -0.16 1.61 -3.97c6.11,-30.02 -12.07,-43.52 -22,-59.83 -3.99,-18.63 2.32,-53.47 9.09,-61.18l0.03 -0.06 0.07 -0.02 0 0c1.01,-1.19 -0.24,-7.88 2.46,-10.42 27.32,-25.83 61.15,-58.41 91.03,-83.37 13.56,-11.28 34.61,-28.69 47.2,-31.12 12.45,-2.4 26.41,-3.59 43.8,3.11l11.15 -12.28c-23.88,-9.2 -44.08,-11.71 -63.27,-8.01 -19.06,3.67 -36.17,13.27 -54.24,28.35 -25.68,21.42 -52.21,55.01 -74.65,75.02 -4.21,3.74 -16.97,10.46 -20.47,13.78 -3.43,3.19 -7.75,0.39 -9.58,2.48l-0.08 0.03 -0.01 0.07 0 0c-7.44,8.57 4.27,29.78 2.86,47.26 -1.67,20.75 3.2,21.46 -9.38,45.82 16.35,7.96 32.37,16.56 27.7,39.63 -5.94,29.35 -78.74,14.71 -95.61,14.71 -25.64,9.47 -4.21,-18.6 -16.86,-26.85 -8.39,36 -30.33,19.62 -36.97,19.1 -22.92,-11.26 -1.39,-45.61 33.15,-50.99 -21.8,-18.07 -12.62,-34.77 0.81,-41.31 -21.63,-3.29 -21.63,-74.98 -1.67,-100.11 35.04,-44.11 52.19,-65.19 82.6,-94.18 10.03,-9.54 40.1,-49.66 51.92,-52.11 19.71,-4.1 20.99,38.18 25.72,13.51 3.82,-19.95 -4.87,-31.02 2.67,-50.71 19.3,-50.24 63.13,-107.12 89.34,-145.48l-3.74 -19.15z"/>
   <path class="fil0" d="M3034.66 1465.97c0,0 53.09,19.72 58.69,65.53 5.63,45.82 52.36,122.02 52.36,122.02 14.3,-62.02 -40.94,-81.75 -37.85,-123.62 1.44,-19.57 -13.27,-42.15 -23.38,-51.34l-49.82 -12.59z"/>
   <path class="fil0" d="M3159.83 1366.63c4.82,29.59 27.66,59.6 17.6,86.81 -27.5,74.15 -5.54,84.71 -11.75,125.97 -8.53,56.71 -10.3,82.56 38.06,44.73 26.2,-20.46 36.44,-59.22 98.07,-68.97 116.34,-18.28 125.43,-64.48 125.14,-64.71l-20.39 -17.46c-0.28,10.08 -5.04,-6.35 -7.79,0.93 -10.31,27.61 -35.93,38.13 -58.34,49.76 -50.55,26.3 -93.36,26.96 -155.91,88.66 -9.31,-37.49 -4.83,-81.24 6.8,-142.28 6.77,-35.63 -18.24,-60.85 -31.49,-103.44z"/>
   <path class="fil0" d="M3084.19 2140.02c-174.65,-133.96 -352.55,-62.11 -489.23,105.38 -5.53,6.8 -2.53,11.23 -7.96,18.37 141.43,-166.31 333.13,-256.07 498.56,-105.23 46.64,42.56 83.45,32.04 125.47,44.96 -59.29,-46.52 -83.82,-30.48 -126.84,-63.48z"/>
   <path class="fil0" d="M3212.26 2187.94c-40.79,-13.35 -74.05,62.01 -130.84,21.77 14.94,35.88 13.87,62.37 -0.03,96.25 -0.59,1.38 -19.91,-146.31 -145.87,-180.46 -126.62,-34.31 -243.42,27.95 -341.68,144.33 -4.75,5.64 -2.15,9.07 -6.84,14.99 104.56,-118.94 227.77,-183.01 358.34,-132.84 85.61,32.88 114.31,103.48 127.99,182.1 3.49,20.04 45.16,-46.09 23.89,-101.88 73.1,14.25 108.55,-42.14 115.04,-44.26z"/>
   <path class="fil0" d="M2595.85 2307.85c39.79,-53.33 132.52,-121.92 203.67,-134.69 62.02,-11.14 118.05,15.22 125.61,94.03 20.78,-11.32 32.02,6.62 54.74,-16.99 4.45,19.53 14.97,32.64 28.98,47.68 1.93,1.65 3.99,3.46 6.16,5.39l20.01 19.24c20.76,-36.16 22.53,-74.96 -18.64,-126.15 21.93,43.92 28.31,78.55 11.52,91.61 -20.84,-4.41 -35.56,-28.94 -46.11,-58.54 -13.14,22.65 -31.05,14.15 -48.04,20.77 -11.73,-76.75 -73.15,-98.71 -135.41,-87.5 -66.8,12.05 -174.01,83.88 -200.59,139.47 0,0 0.98,6.62 -1.9,5.68z"/>
   <path class="fil1" d="M2630.9 2306.34c1.6,0.92 75.26,-23.5 135.64,-23.57 46.74,-0.06 42.78,38.81 92.44,48.8 15.94,3.21 36.28,4.16 51.2,-3.22 23.99,-11.89 29.58,-39.42 -0.72,-49.37 -20.31,-6.69 -33.8,7.06 -34.14,28.51 -19.89,-2.61 -16.03,-55.11 33.7,-46.59 26.88,7.37 35.56,31.14 28.93,51.53 -11.59,10.86 -23.65,21.27 -36.13,31.15 -13.54,2.87 -29.35,1.59 -42.48,-1.13 -44.54,-9.19 -47,-41.19 -93.34,-44.8 -41.36,-3.19 -88.54,6.12 -114.25,12.2 -8.9,2.08 9.69,9.53 -10.35,-0.55l-10.5 -2.96z"/>
   <path class="fil0" d="M2616.85 2297c44.14,-34.8 91.85,-68.98 153.38,-70.5 30.54,-0.79 74.86,3 93.57,57.23 1.96,5.6 5.1,12.93 9.86,19.93 3.67,5.3 9.54,9.67 13.45,8.52 -16.74,9 -22.75,-2.05 -26.51,-11.4 -19.53,-48.2 -45.72,-63.9 -91.01,-63.34 -61.15,0.79 -110.79,31.75 -152.07,69.43l-0.67 -9.87z"/>
   <path class="fil0" d="M2802.9 2305.09c22.46,22.86 22.6,53.67 11.59,70.76 -19.27,29.74 -69.24,27.5 -71.01,-6.66 -5.01,-29.51 42.26,-46.98 48.26,-9.18 3.03,-16.98 -8.26,-30.44 -22.84,-33.62 -33.62,-7.3 -52.54,25.42 -40.62,53.95 16.23,38.84 65.92,35.6 87.01,15.96 23.47,-21.82 25.78,-62.77 -12.39,-91.21z"/>
   <path class="fil0" d="M2589.8 2368.42c-4.81,0.94 -10.15,-3.74 -10.33,-5.63 -4.95,-50.14 20.51,-180.37 69.65,-201.54 -26.57,-17.2 -42.31,-3.54 -56.71,12.88 -17.38,19.83 -26.61,101.04 -30.08,103.78 0,-5.9 13.32,-70.18 9.37,-117.02 -1.59,-18.78 -15.21,-40.35 -29.93,-51.69l0 -11.28c26.15,16.36 42.11,35.04 42.11,61.73 25.78,-17.72 45.61,-26.31 86.65,-2.96 -51.86,28.23 -97.64,161.98 -80.73,211.73z"/>
   <path class="fil0" d="M3911.22 2507.88c-218.94,145.86 -441.9,67.64 -613.18,-114.74 -6.97,-7.39 -3.19,-12.22 -10.04,-19.97 177.31,181.04 414.71,275.94 622.04,111.74 58.44,-46.31 100.99,-22.91 135.76,13.89 -55.67,-16.42 -80.68,-26.87 -134.58,9.08z"/>
   <path class="fil0" d="M4043.75 2497.68c-11.7,-47.38 -27.51,-97.53 -116.61,-70.01 18.68,-35.87 15.78,-39.23 22.41,-77.42 0.13,-0.83 -24.94,35.65 -75.87,78.55 -37.15,31.33 -87.62,69.03 -154.19,83.47 -133.57,29.01 -281.53,-22.25 -401.18,-125.57 -11.36,-9.83 -22.14,-19.89 -32.69,-30.09 1.04,-1.67 2.12,-3.29 3.17,-4.96 11.06,10.56 22.42,20.96 34.73,30.93 123.48,100.29 267.21,155.93 416.35,110.26 45.22,-13.88 87.97,-43.41 121.49,-75.33 45.96,-43.8 79.07,-90.03 117.29,-88.39 -17.56,41.6 -8.16,44.09 -23.66,77.14 91.58,-14.24 97.82,66.7 88.76,91.42z"/>
   <path class="fil0" d="M3939.43 2352.24c-9.87,-15.34 -42.03,13.52 -59.17,19.28 17.2,-35.88 -10.42,-43.85 -32.2,-48.96 -1.88,-0.41 -19.07,103.19 -164.12,137.5 -125.85,29.72 -265.66,-29.99 -377.06,-138.96 1.01,-1.77 1.96,-3.53 2.95,-5.28 115.87,106.23 252.58,169.09 393.75,122.05 98.62,-32.85 128.43,-98.54 141.65,-136.59 20.12,1.96 59.37,22.34 45.16,55.39 32.47,-27.32 68.89,-29.26 80.25,-25.28l-31.21 20.85z"/>
   <path class="fil0" d="M3328.1 2281.69c40.96,18.55 103.81,31.34 148.2,23.25 58.9,-10.72 96.77,-54.39 85.8,-98.33 15.23,0.2 54.35,6.94 48.71,60.21 -3.32,-21.33 -16.33,-46.66 -36.01,-46.28 10.23,38.28 -31.27,81.88 -101.67,93.35 -44.2,7.17 -104.98,-4.36 -145.85,-25.15 -1.04,-0.42 -1.77,-0.9 -2.28,-1.41 0.96,-1.89 1.96,-3.77 2.91,-5.7 0.08,0 0.15,0.04 0.19,0.06z"/>
   <path class="fil0" d="M3359.11 2360.75c21.38,13.05 53.56,31.17 78.85,39.68 63.79,21.45 147.29,6.47 181.32,0.07 13.54,-2.52 30.66,10.95 36.98,23.53 13.15,-2.41 33.9,-38.58 -1.04,-72.31 -10.52,2.76 -15.46,2.92 -16.2,4.85 7.56,2.82 13.67,5.28 18.64,10.67 11.8,12.81 11.28,30.38 -2.55,34.24 -22.71,-25.69 -51.98,-13.78 -80.72,-5.75 -37.32,10.51 -92.09,11.43 -135.61,-1.2 -27.1,-7.83 -56.05,-25.88 -80.44,-38.26 -4.38,2.81 -0.68,3.6 0.77,4.48z"/>
   <path class="fil0" d="M3654.52 2354.29c33.22,-8.12 43.77,-50.48 61.85,-61.29 -41.23,-39.92 -126.29,53.97 -205.89,57.16 -56.56,2.3 -124.72,-13.44 -191.6,-50.99 -1.28,2.4 -2.56,4.83 -3.88,7.22 108.09,63.18 238,72.46 338.94,4.85 12.23,-8.18 24.56,-15.24 38.34,-14.24 -21.13,22.95 -14.89,35.46 -54.72,59.21l16.96 -1.92z"/>
   <path class="fil0" d="M3579.09 2295.07c22.81,-15.9 28.34,-24.63 79.81,1.36l14.68 -9.87c-48.25,-23.71 -63.21,-27.85 -94.49,8.51z"/>
   <path class="fil0" d="M3824.02 2316.64c60.83,-37.83 244.91,32.73 371.96,-15.6 -54.11,97.34 -125.69,115.62 -248.8,70.97 -1.64,-0.61 4.83,-19.55 3.16,-20.2 -2.59,-0.94 -14.56,15.81 -17.24,14.89 -6.88,-2.25 7.83,-18.89 0.15,-22.2 -3.08,-1.34 -28.33,10.99 -31.54,9.55 -4.73,-2.11 -9.55,-4.34 -14.44,-6.68 -1.08,-1.6 9.1,-9.62 -33.67,-37.7 -4.1,-2.69 -6.02,18.86 -10.55,16.6 -6.24,-3.12 -12.58,-6.31 -19.03,-9.63zm63.37 11.33c42.12,-19.17 184.06,21.96 272.08,-2.53 -38.85,60.16 -114.24,47.8 -272.08,2.53z"/>
   <path class="fil0" d="M3604.96 2256.05c44,-32.41 177.2,28.03 269.13,-13.34 -40.59,101.71 -104.27,89.87 -269.13,13.34zm44.28 10.18c30.49,-16.44 134.75,18.37 198.41,-2.63 -28.08,51.54 -84.18,41.38 -198.41,2.63z"/>
   <path class="fil0" d="M3249.06 2410.03c-6.58,127.1 -33.38,215.06 -118.64,344.87 -14.51,22.17 -12.24,34.81 -15.81,72.29 -41.42,3.25 -85.44,-15.75 -80.33,-57.56 -28,14.23 -67.64,37.54 -100.33,17.25 1.57,-41.56 24.1,-66.29 54.1,-91.88 -8.77,-1.71 -15.95,-11.59 -23.1,-31.92 12.25,-3.51 42.02,-6.45 71.96,-20.18 45.1,-20.69 96.34,-58.87 121.67,-128.7 4.02,-3.96 8.01,-7.96 11.95,-11.99 -6.08,75.4 -72.58,133.25 -123.35,155.57 -26.96,11.9 -59.01,11.06 -66.12,14.29 5.46,13.53 16.78,18.13 29.87,17.68 -28.05,26.06 -56.51,50.56 -56.9,88.31 34.3,6.74 71.12,-15.3 103.54,-43.23 -30.4,70.49 15.81,72.87 41.08,79.97 -0.7,-26.9 6.43,-58.31 18.05,-75.33 82.76,-121.17 111.75,-215.02 118.82,-311.56 4.61,-5.9 9.1,-11.86 13.54,-17.88z"/>
   <path class="fil0" d="M3025.53 2727.15c89.59,-46.98 165.98,-121.93 186.09,-269.95 -5.3,6.22 -10.66,12.4 -16.13,18.47 -9.42,123.98 -87.38,193.36 -169.96,251.48z"/>
   <path class="fil0" d="M3358.76 2521.4c-5.86,29.26 8.46,53.94 24.58,62.11 28.12,14.29 63.88,-11.98 49.2,-40.05 -10.13,-26.01 -53.13,-16.8 -39.85,16.3 -10.21,-12.08 -8.18,-28.35 1.12,-38.02 21.32,-22.27 50.6,-5.45 55.13,23.12 6.27,38.97 -31.89,60.69 -56.6,55.35 -27.52,-5.93 -48.4,-37.44 -33.58,-78.81z"/>
   <path class="fil0" d="M3281.95 2362.38c20.62,21.83 53.85,62.23 71.29,111.33 7.71,21.71 9.12,45.21 7.6,70.01 -1.66,27.26 -7.75,51.06 -12.92,77.45 -3.68,18.64 -3.53,39.41 16.14,49.94 -22,-4.02 -26.75,-18.37 -27.02,-33.35 -0.52,-27.51 3.33,-56.1 4.59,-83.66 1.14,-24.92 1.36,-48.51 -2.28,-66.15 -11.45,-55.44 -32.85,-88.74 -59.19,-122.78 0.6,-0.93 1.2,-1.87 1.79,-2.79z"/>
   <path class="fil0" d="M3259.45 2395.71c7.56,14.08 15.4,32.56 17,50.45 2.26,25.3 -9.97,79.03 -23.55,98.54 -5.73,8.22 -0.77,-14.96 -0.87,-15.81 1.32,-3.97 2.55,-7.82 3.69,-11.63 14.54,-48.7 14.12,-87.76 2.22,-119.45l1.51 -2.1z"/>
   <path class="fil0" d="M3233.63 2545.8c16.66,13.68 27.21,19.52 44.49,15.72 -11.16,5.34 -22.64,15.95 -27.96,39.22 10.75,2.56 39.62,13.63 52.2,2.96 -1.7,23.48 6.9,48.15 20.25,63.82 13.33,15.68 30.48,24.98 43.69,22.74 -1.98,-0.86 -3.03,-8.29 -5.3,-8.44 -26.45,-1.95 -34.47,-12.8 -40.68,-33.57 -5.79,-19.3 -0.91,-48.09 6.42,-82.3 -21.78,32.7 -44.2,29.01 -57.02,21.99 7.52,-25.44 20.48,-23.34 32.79,-50.02 -17.05,2.13 -33.46,19.85 -51.09,6.32 6.13,-10.79 13.44,-34.22 9.13,-45.02 -8.98,30.87 -18.58,41.41 -26.92,46.58z"/>
   <path class="fil0" d="M3290.71 2428.68c13.39,30.45 25.7,74.42 10.26,111.96 -3.39,8.19 -19.16,27.29 -19.28,26.43 1.34,-3.91 3.91,-19.86 6.53,-23.67 17.54,-25.52 13.75,-77.07 0.06,-115.56l2.43 0.84z"/>
   <path class="fil0" d="M3348.02 2440.5c20.19,18.17 49.01,41.88 50.23,74.61 0.31,7.19 -9.77,31.26 -10.15,30.65 -0.35,-3.34 -3.82,-15.95 -3.17,-19.64 4.35,-24.59 -15.87,-61.43 -38.97,-85.42l2.06 -0.2z"/>
   <path class="fil0" d="M3317.79 2612.48c-43.32,-43.87 -76.46,43.31 -128.2,21.37 33.16,76.97 100.14,40.69 128.2,-21.37zm-16.84 6.34c-19.8,-15.06 -66.19,38.74 -96.92,27.07 44.14,37.27 83.68,4.2 96.92,-27.07z"/>
   <path class="fil0" d="M3360.39 2227.88c-1.22,3.54 37.34,1.18 33.73,36.72 -3.64,35.52 25.31,46.17 25.31,46.17l-56.64 -13.02 -36.18 -13.61c4.88,-9.51 9.51,-19.2 13.98,-28.96 10.12,-14.57 20.41,-29.15 19.8,-27.3z"/>
   <path class="fil0" d="M2582.07 2330.34c0.91,0.9 3.14,7.46 3.81,6.07 28.89,-60.73 86.1,-17.95 66.1,19.15 -10.83,20.16 -44.52,19.95 -47.3,-1.51 -3.24,-19.15 26.81,-27.87 30.72,-3.39 1.94,-11 -5.36,-19.72 -14.81,-21.78 -21.79,-4.73 -34.02,16.47 -26.31,34.98 10.51,25.17 47.6,24.84 61.63,8.62 28.4,-32.9 8.58,-73.66 -32.76,-75.2 -34.28,-1.29 -39.05,34.58 -41.08,33.06z"/>
   <path class="fil0" d="M2683.37 2422.35c-14.88,-6.94 -29.02,6.94 -8.61,10.92 32.33,6.29 54.41,-25.78 39.56,-50.39 -10,-16.58 -39.32,-18.16 -44.46,5.24 -3.26,19.13 29.22,24.57 33.1,0.08 1.95,10.97 -4.4,21.11 -19.11,23.62 -21.97,3.77 -35.89,-17.41 -28.2,-35.87 10.51,-25.16 47.63,-24.83 61.62,-8.62 28.4,32.88 10.23,75.64 -34.06,74.79 -69.41,-1.36 -16.77,-46.82 0.16,-19.77z"/>
   <path class="fil0" d="M2540.83 2361.27c66.58,0 120.61,34.87 120.61,77.85 0,3 -0.26,5.97 -0.77,8.86 -5.18,1.08 -10.4,2.12 -15.63,3.06 0.51,-2.55 0.79,-5.18 0.79,-7.83 0,-36.34 -50.18,-70.73 -104.47,-70.73 -54.24,0 -104.98,33.85 -104.98,70.18 0,2.89 0.31,5.75 0.91,8.57 -5.46,-1 -10.89,-2.08 -16.33,-3.24 -0.51,-2.88 -0.78,-5.87 -0.78,-8.87 0,-42.98 54.02,-77.85 120.65,-77.85z"/>
   <path class="fil1" d="M2435.02 793.33c-1.87,-27.6 -33.67,-74.54 -68.35,-78.28 -13.35,-10.65 -70.12,-0.49 -87.29,15.2 -28.83,22.31 -46.08,75.89 -60.81,120.98 -16.17,49.43 -37.41,109.58 -75.13,160.05 -42.96,33.09 -72.31,-24.13 -90.02,49.01 -3.99,9.72 -1.46,27.53 -7.28,30.93 -5.88,3.38 -20.16,-7.59 -35.55,-6.21 -40.58,-13.46 -48.35,15.02 -54.96,25.69 -4.46,7.21 1.3,21.26 -6.58,25.84 -17.47,10.04 -47.66,7.17 -65.38,6.37 -16.92,-0.82 -57.46,3.14 -76.15,37.9 -9.96,18.54 -11.66,40.84 -5.58,59.38 5.38,16.35 43.4,43.76 63.08,49.09 14.34,6 -10.62,8.06 -17.05,5.65 -8.14,-3.04 -19.29,-8.23 -28.59,-12.28 -28.84,-12.58 -61.47,3.55 -93.79,1.1 -88.13,4.53 -209.39,12.04 -318.78,52.02 -108.19,39.57 -220.79,112.21 -289.76,250.95 -8.69,17.52 -27.85,63.4 -31.48,115.22 21.23,-34.4 47.34,-57.59 80.73,-79.32 -32.93,29.22 -68.85,85.26 -87.33,129.19 -15.13,35.89 -22.09,94.74 -0.64,136.92 3.26,56.99 -20.05,83.03 -30.07,139 0,0.05 10.76,24.4 7.6,57.19 -3.84,39.59 -26.01,89.97 -23.48,104.02 -49.55,-72.48 -55.17,-71.96 -26.9,-155.49 4.08,-12.08 44.36,-53.71 38.77,-151.22 -1.51,-26.38 -3.02,-52.79 -3.17,-79.92l0 -0.09 0 -7.05 0 -0.09c0.15,-41.37 5.35,-76.2 15.11,-110 9.73,-33.72 23.86,-66.01 41.99,-102.54 73.63,-148.1 184.69,-226.3 300.4,-268.57 114.5,-41.86 232.46,-48.15 322.9,-52.78 37.01,-1.87 45.45,-47.78 58.41,-71.91 29.13,-54.14 67.14,-68.83 97.51,-67.37 24.54,1.11 46.83,0.9 60.52,-21.26 8.08,-14.51 15.24,-29.01 41.21,-33.34 20.34,-3.39 41.72,9.93 49.99,-12.11 6.09,-16.2 13.23,-35.2 38.65,-46.89 11.92,-5.49 22.73,-8.13 32.91,-10.63 12.31,-3.01 23.38,-5.73 30.14,-13.41 37.18,-42.38 53.89,-93.38 69.03,-139.66 16.47,-50.42 31.28,-95.74 68.49,-124.47 13.74,-10.59 30.05,-17.81 47.25,-21.38 19.86,-4.07 40.92,-3.21 60.59,3.13 19.9,6.39 38.34,18.3 52.64,36.21 11.34,14.15 20.01,31.99 24.64,53.78l2.49 18.15c1.63,11.84 -0.6,13.78 -9.86,6.93 -15.56,-11.52 -25.93,-3.63 -38.6,-14.37 -11.84,9.56 -11.51,33.87 -27.83,25.62 -5.3,-2.67 7.8,-11.13 -0.15,-26.35 -15.72,-30.05 -50.6,-25.77 -58.31,-3.15 -11.81,34.76 -15.47,115.49 -24.78,172.35 -5.73,34.64 -10.85,66.05 -16.32,86.95l0 0.09 -0.04 0.08c-22.15,84.37 -83.26,96.46 -128.43,137.27 -25.65,23.16 -14.82,53.16 -20.84,82.06 -4.59,22.16 -39.71,55.47 -93.77,61.54 -4.13,-1.59 44.19,-27.72 62.64,-49.45 13.46,-15.83 15.3,-35.76 14.99,-42.47l0 -0.04c-1.18,-24.66 1.23,-40.72 22.93,-60.35 29.87,-26.93 90.66,-61.23 109.56,-92.15 40.31,-65.92 35.04,-165.86 48.57,-241.04 7.55,-41.8 17.86,-74.43 38,-83.21 44.08,-19.26 73.92,35.18 101.31,22.99z"/>
   <path class="fil1" d="M1078.61 1885.31c19.46,44.27 34.45,122.64 25.18,158.73 -9.11,35.46 -23.06,68.74 -38.29,104.86l0.05 0.01 -0.09 0.13 -0.06 0.06c-6.81,16.2 -9.35,34.47 -9.94,52.32 -0.24,6.99 -1.76,17.45 17.15,20.05 0.14,4.12 -17.45,8.66 -18.25,12.68 -2.91,14.27 -10.43,27.78 -13.55,39.64l-2.04 7.63c-5.69,20.59 16.72,21.42 22.18,21.25l82.05 -6.83c1.54,6.1 44.89,12.72 36.59,-16.67 -3.63,-12.9 -16.91,-27.91 -35.82,-20.69 -2.12,-9.86 47.69,-17.46 48.56,32.01 0.15,9.27 29.08,8.22 29.06,-1.56 -5.33,-35.6 -14.99,-45.01 -36.05,-36.39 -1.66,-3.07 7.63,-12.26 6.39,-15.2 -2.49,-5.84 -15.33,-6.03 -17,-12.66 37.8,-32.76 -9.12,-38.24 -4.89,-48.51 21.05,-51.46 39.43,-84.7 74.75,-119.56 16.22,-16.05 36.67,-35.01 49.79,-56.97 9.59,-16.11 16.8,-36.47 23.56,-80.98 16.49,-51.31 64.4,-203.92 119.76,-221.65 -6.71,7.83 -15.13,21.21 -23.6,36.96 -4.03,7.52 -8.1,15.6 -12.01,23.9 -16.81,35.8 -30.33,75.26 -25.57,89.66 3.5,10.75 9.48,25.81 8.1,35.84 -0.53,3.9 8.79,16.19 5.58,13.71 -23.67,-18.1 -50.6,15.83 -50.34,34.22 -5.28,78.21 -11.18,57.14 -86.41,136.56 -16.56,17.49 -24.52,37.78 -35.61,57.21 -11.36,19.94 -15.15,49.1 -11.97,75.45 0.67,5.62 1.65,10.97 2.88,15.95 1.23,4.86 2.76,9.5 4.58,13.82 1,2.36 1.97,4.38 2.88,6.08l3.09 5.62 0 -0.01c9.22,16.84 15.85,29.04 16.26,40.56 0.84,22.02 -12.77,31.46 -51.79,32.87l-126.28 4.5c-31.89,1.15 -42.13,-5.34 -42.89,-25.63 -0.23,-6.87 1.6,-13.53 4.07,-22.47 1.15,-4.18 1.6,-5.63 2.03,-7.25 2.76,-10.45 11.12,-25.4 10.63,-41.63 -1.4,-45.32 11.15,-82.67 25.83,-120.19 21.39,-54.87 42.82,-101.76 21.45,-217.43z"/>
   <path class="fil1" d="M1429.48 1974.5c13.89,47.67 37.36,114.9 19.1,149.84 -9.79,19.87 -26.99,26.29 -19.79,49.62l0.03 -0.01c7.33,15.05 53.14,78.25 33.05,90.76l0.01 0.01c-3.08,1.94 -6.57,2.96 -10.55,3.04 -61.62,1.14 -264.54,45.83 -164.84,-75.77 26.12,-41.81 -13.69,-84.62 -40.9,-114.08l19.44 -21.07c24.63,35.45 63.42,87.74 43.04,132.73 -1.7,3.8 12.83,4.81 10.28,8.93 -1.1,1.76 -18.92,6.59 -20,8.6 -37.23,68.16 60.21,46.95 99.66,46.71 -13.7,-12.9 -12.32,-25.82 0.13,-38.75 -6.54,31.59 24.86,44.23 54.94,39.79 11.57,-27.9 -47.34,-47.78 -56.03,-66.31 0,-0.01 4.07,-30.31 1.45,-31.07 -52.15,-15.3 4.52,-13.33 11.78,-16.4 58.31,-24.82 5.13,-138.85 -16.63,-172.24l3.34 -2.14c10.27,3.4 21.49,9.11 32.49,7.81z"/>
   <path class="fil1" d="M1334.99 1952.92c52.08,11.92 127.96,26.56 190.09,1.05 62.76,-25.74 93.92,-47.36 175.57,-105.85 1.96,-1.4 24.43,-22.42 26.45,-23.9l11.43 22.38c-92.2,64.45 -138.33,90.93 -205.28,118.39 -69.12,28.38 -149.13,23.51 -208.89,9.81l10.63 -21.88z"/>
   <path class="fil0" d="M1374.6 1811.06c14.86,151.38 169.85,96.41 285.15,40.31 -63.16,55.7 -243.31,117.1 -305.21,11.3 0,0 21.38,-52.9 20.06,-51.61z"/>
   <path class="fil1" d="M1298.51 1423.83c93.04,-47.1 183.01,-76.92 286.86,-115.75 -81.86,12 -206.13,51.48 -299.88,109.98 -66.21,41.35 -135.94,117.93 -162.91,191.33 44.96,-43.97 79.9,-136.98 175.93,-185.56z"/>
   <path class="fil1" d="M1918.19 1511.29c0.23,11.75 30.23,118.56 30.28,130.09 0.23,111.79 -9.37,215.42 -38.78,320.42 -2.7,9.65 -13.04,46.72 -19.96,82.8 -9.75,50.96 -10.26,90.21 0.19,114.18 25.28,19.82 41.01,34.18 42.98,51.57 2.13,19.13 4.12,27.67 -7.22,32.13 -0.52,-0.93 -1.07,-1.87 -1.6,-2.74l-189.97 0c1.57,3.55 3.18,7.11 4.78,10.68 -11.57,-1.06 -19.41,-3.63 -20.97,-9.24 -0.07,-0.13 -7.05,-27.94 8.63,-54.32 14.18,-43.38 15.43,-97.38 9.27,-159.95 -4.79,-48.7 -5.51,-111.96 2.04,-150.9 -13.41,-8.69 -32.6,-56.47 -12.78,-145.05 9.51,-42.36 -0.31,-84.39 1.55,-100.74 13.64,32.04 18.71,89.35 11.12,141.47 -3.95,27.15 -4.11,45.71 7.11,72.68 21.31,31.15 55.59,8.48 52.62,-44.56 19.55,73.72 -29.6,79.8 -44.6,81.14 -7.5,38.55 -2.64,158.4 3.78,208.53 1.13,13.57 3.29,25.72 4.32,37.83 1.65,20.07 21.38,27.34 21.17,30.4 -0.38,5.46 -21.64,3.24 -23.12,9.15 -9.42,9.18 -11.62,19.11 -17.36,30.25 -8.56,14.46 -1.82,28.6 4.22,34.83 10.26,10.62 74.33,4.43 88.93,2.07 60.48,-1.36 38.35,-44.23 20.38,-58.08 14.73,3.97 50.6,27.5 27.1,54.6 27.36,6.81 34.56,2.12 38.02,-7.18 -9.71,-51.83 -41.54,-37.29 -50.19,-48.09 -5.48,-6.93 -7.89,-21.91 -8.1,-41.45 -0.2,-20.68 -18.27,-24.55 -13.1,-26.8 14.42,-6.33 15.45,-17.53 16.08,-23.11 3.3,-30.24 9.14,-63.47 15.88,-92.9 2.98,-13.32 6.17,-25.9 9.3,-37.07 3.17,-11.41 6.3,-21.32 9.23,-28.96l0.06 -0.21 0.04 -0.07c18.44,-49.11 31.55,-215.41 24.8,-283.5l-6.13 -129.9zm-18.67 413.4l0.02 0 -0.02 0z"/>
   <path class="fil1" d="M1988.25 1525.15c57.51,83.69 111.7,178.55 183.27,246.67 35.38,33.74 88.89,83.5 96.09,115.37l0 0.14 0.06 0.07c3.43,15.28 2.93,38.1 2.4,61.27 -0.61,27.43 -1.25,53.86 0.46,62.11l3.47 0.32 0.08 0.13c2.48,3.45 4.7,7.02 6.58,10.66 1.88,3.58 3.49,7.21 4.85,10.75 21.84,56.97 -16.32,49.82 -50.12,51.47 -19.02,0.96 -42.45,2.4 -61.28,2.4 -37.16,0 -68.62,2.01 -71.15,-12.92l-0.03 -0.16 -1.59 -3.97c-6.13,-30.02 12.07,-43.52 22.01,-59.83 3.99,-18.63 -2.33,-53.47 -9.1,-61.18l-0.09 -0.06 0 -0.02 0 0c-1.02,-1.19 0.23,-7.88 -2.48,-10.42 -27.32,-25.83 -61.15,-58.41 -91.02,-83.37 -13.55,-11.28 -34.6,-28.69 -47.21,-31.12 -12.44,-2.4 -26.41,-3.59 -43.78,3.11l-11.18 -12.28c23.92,-9.2 44.1,-11.71 63.28,-8.01 19.07,3.67 36.19,13.27 54.25,28.35 25.68,21.42 52.22,55.01 74.63,75.02 4.23,3.74 17,10.46 20.47,13.78 3.44,3.19 7.77,0.39 9.55,2.48l0.12 0.03 0.02 0.07 -0.02 0c7.45,8.57 -4.26,29.78 -2.84,47.26 1.69,20.75 -3.21,21.46 9.39,45.82 -16.4,7.96 -32.38,16.56 -27.7,39.63 5.93,29.35 78.73,14.71 95.61,14.71 25.64,9.47 4.21,-18.6 16.86,-26.85 8.36,36 30.32,19.62 36.97,19.1 22.9,-11.26 1.39,-45.61 -33.17,-50.99 21.79,-18.07 12.64,-34.77 -0.82,-41.31 21.66,-3.29 21.66,-74.98 1.68,-100.11 -35.04,-44.11 -52.19,-65.19 -82.61,-94.18 -10.01,-9.54 -40.07,-49.66 -51.92,-52.11 -19.7,-4.1 -21,38.18 -25.69,13.51 -3.82,-19.95 4.86,-31.02 -2.7,-50.71 -19.29,-50.24 -63.1,-107.12 -89.32,-145.48l3.72 -19.15z"/>
   <path class="fil0" d="M2048.88 1465.97c0,0 -53.08,19.72 -58.66,65.53 -5.63,45.82 -52.37,122.02 -52.37,122.02 -14.32,-62.02 40.95,-81.75 37.85,-123.62 -1.44,-19.57 13.27,-42.15 23.34,-51.34l49.84 -12.59z"/>
   <path class="fil0" d="M1923.71 1366.63c-4.8,29.59 -27.67,59.6 -17.56,86.81 27.46,74.15 5.53,84.71 11.74,125.97 8.52,56.71 10.29,82.56 -38.08,44.73 -26.18,-20.46 -36.43,-59.22 -98.08,-68.97 -116.31,-18.28 -125.42,-64.48 -125.14,-64.71l20.42 -17.46c0.26,10.08 5.03,-6.35 7.79,0.93 10.28,27.61 35.93,38.13 58.32,49.76 50.56,26.3 93.36,26.96 155.9,88.66 9.33,-37.49 4.84,-81.24 -6.77,-142.28 -6.78,-35.63 18.24,-60.85 31.46,-103.44z"/>
   <path class="fil0" d="M1999.38 2140.02c174.64,-133.96 352.55,-62.11 489.21,105.38 5.56,6.8 2.52,11.23 7.96,18.37 -141.43,-166.31 -333.15,-256.07 -498.54,-105.23 -46.64,42.56 -83.46,32.04 -125.48,44.96 59.28,-46.52 83.81,-30.48 126.85,-63.48z"/>
   <path class="fil0" d="M1871.29 2187.94c40.78,-13.35 74.05,62.01 130.85,21.77 -14.94,35.88 -13.89,62.37 0.03,96.25 0.56,1.38 19.92,-146.31 145.87,-180.46 126.61,-34.31 243.4,27.95 341.66,144.33 4.79,5.64 2.15,9.07 6.85,14.99 -104.56,-118.94 -227.77,-183.01 -358.35,-132.84 -85.58,32.88 -114.28,103.48 -127.96,182.1 -3.51,20.04 -45.17,-46.09 -23.92,-101.88 -73.07,14.25 -108.51,-42.14 -115.03,-44.26z"/>
   <path class="fil0" d="M2487.72 2307.85c-39.8,-53.33 -132.52,-121.92 -203.67,-134.69 -62.04,-11.14 -118.06,15.22 -125.61,94.03 -20.81,-11.32 -32.03,6.62 -54.75,-16.99 -3.86,16.98 -12.31,29.05 -23.63,41.83 -3.99,3.03 -8.42,6.77 -13.44,11.24l-18.75 18.06c-20.15,-35.88 -21.41,-74.35 19.32,-124.97 -21.94,43.92 -28.39,78.55 -11.57,91.61 20.83,-4.41 35.6,-28.94 46.15,-58.54 13.14,22.65 31.06,14.15 48.04,20.77 11.74,-76.75 73.12,-98.71 135.42,-87.5 66.77,12.05 174.02,83.88 200.55,139.47 0,0 -0.95,6.62 1.94,5.68z"/>
   <path class="fil1" d="M2452.66 2306.34c-1.6,0.92 -75.27,-23.5 -135.64,-23.57 -46.78,-0.06 -42.78,38.81 -92.44,48.8 -15.96,3.21 -36.29,4.16 -51.21,-3.22 -23.98,-11.89 -29.55,-39.42 0.72,-49.37 20.32,-6.69 33.79,7.06 34.15,28.51 19.89,-2.61 16.03,-55.11 -33.71,-46.59 -28.06,7.67 -36.28,33.32 -27.96,54.24 10.46,9.68 21.26,18.94 32.41,27.84 14.11,3.66 31.23,2.35 45.24,-0.53 44.53,-9.19 47,-41.19 93.33,-44.8 41.38,-3.19 88.55,6.12 114.24,12.2 8.92,2.08 -9.66,9.53 10.37,-0.55l10.5 -2.96z"/>
   <path class="fil0" d="M2466.69 2297c-44.13,-34.8 -91.82,-68.98 -153.35,-70.5 -30.54,-0.79 -74.85,3 -93.59,57.23 -1.95,5.6 -5.09,12.93 -9.88,19.93 -3.63,5.3 -9.51,9.67 -13.41,8.52 16.73,9 22.75,-2.05 26.51,-11.4 19.52,-48.2 45.72,-63.9 91,-63.34 61.13,0.79 110.78,31.75 152.07,69.43l0.65 -9.87z"/>
   <path class="fil0" d="M2280.65 2305.09c-22.44,22.86 -22.6,53.67 -11.57,70.76 19.22,29.74 69.22,27.5 70.97,-6.66 5.04,-29.51 -42.22,-46.98 -48.25,-9.18 -3.02,-16.98 8.29,-30.44 22.86,-33.62 33.64,-7.3 52.53,25.42 40.62,53.95 -16.24,38.84 -65.93,35.6 -87.02,15.96 -23.46,-21.82 -25.78,-62.77 12.39,-91.21z"/>
   <path class="fil0" d="M2493.74 2368.42c4.78,0.94 10.17,-3.74 10.37,-5.63 4.91,-50.14 -20.52,-180.37 -69.67,-201.54 26.57,-17.2 42.31,-3.54 56.71,12.88 17.38,19.83 26.6,101.04 30.08,103.78 0,-5.9 -13.34,-70.18 -9.38,-117.02 1.6,-18.78 15.22,-40.35 29.92,-51.69l0 -11.28c-26.12,16.36 -42.08,35.04 -42.08,61.73 -25.8,-17.72 -45.61,-26.31 -86.65,-2.96 51.86,28.23 97.63,161.98 80.7,211.73z"/>
   <path class="fil0" d="M1172.35 2507.88c218.9,145.86 441.89,67.64 613.17,-114.74 6.97,-7.39 3.19,-12.22 10.03,-19.97 -177.31,181.04 -414.71,275.94 -622.03,111.74 -58.46,-46.31 -101.01,-22.91 -135.76,13.89 55.67,-16.42 80.68,-26.87 134.59,9.08z"/>
   <path class="fil0" d="M1039.84 2497.68c11.67,-47.38 27.48,-97.53 116.61,-70.01 -18.72,-35.87 -15.81,-39.23 -22.45,-77.42 -0.15,-0.83 24.95,35.65 75.88,78.55 37.17,31.33 87.63,69.03 154.17,83.47 133.59,29.01 281.55,-22.25 401.21,-125.57 10.89,-9.47 21.32,-19.15 31.47,-28.95 -1.03,-1.65 -2.12,-3.31 -3.15,-4.98 -10.7,10.17 -21.69,20.21 -33.54,29.81 -123.47,100.29 -267.23,155.93 -416.34,110.26 -45.25,-13.88 -87.97,-43.41 -121.5,-75.33 -45.98,-43.8 -79.05,-90.03 -117.28,-88.39 17.56,41.6 8.17,44.09 23.64,77.14 -91.57,-14.24 -97.82,66.7 -88.72,91.42z"/>
   <path class="fil0" d="M1144.14 2352.24c9.88,-15.34 42,13.52 59.16,19.28 -17.21,-35.88 10.44,-43.85 32.18,-48.96 1.88,-0.41 19.07,103.19 164.13,137.5 125.4,29.61 264.62,-29.54 375.83,-137.76 -1.02,-1.77 -2.02,-3.52 -2.97,-5.3 -115.62,105.52 -251.84,167.75 -392.5,120.87 -98.61,-32.85 -128.41,-98.54 -141.64,-136.59 -20.14,1.96 -59.4,22.34 -45.16,55.39 -32.48,-27.32 -68.89,-29.26 -80.22,-25.28l31.19 20.85z"/>
   <path class="fil0" d="M1754.04 2282.3c-40.95,18.2 -102.9,30.66 -146.77,22.64 -58.91,-10.72 -96.8,-54.39 -85.82,-98.33 -15.22,0.2 -54.34,6.94 -48.71,60.21 3.32,-21.33 16.32,-46.66 36,-46.28 -10.19,38.28 31.28,81.88 101.69,93.35 44.2,7.17 104.99,-4.36 145.86,-25.15 0.3,-0.12 0.59,-0.28 0.85,-0.41 -1.04,-2 -2.08,-3.98 -3.1,-6.03z"/>
   <path class="fil0" d="M1724.45 2360.75c-21.38,13.05 -53.55,31.17 -78.86,39.68 -63.82,21.45 -147.3,6.47 -181.3,0.07 -13.54,-2.52 -30.67,10.95 -36.99,23.53 -13.15,-2.41 -33.89,-38.58 1.02,-72.31 10.55,2.76 15.48,2.92 16.22,4.85 -7.56,2.82 -13.65,5.28 -18.64,10.67 -11.8,12.81 -11.29,30.38 2.57,34.24 22.68,-25.69 51.97,-13.78 80.71,-5.75 37.32,10.51 92.08,11.43 135.62,-1.2 27.09,-7.83 56.03,-25.88 80.46,-38.26 4.36,2.81 0.63,3.6 -0.81,4.48z"/>
   <path class="fil0" d="M1429.05 2354.29c-33.25,-8.12 -43.8,-50.48 -61.87,-61.29 41.24,-39.92 126.3,53.97 205.88,57.16 56.1,2.27 123.7,-13.22 190.11,-50.19 1.31,2.45 2.59,4.84 3.9,7.24 -107.76,62.45 -236.95,71.33 -337.45,4.03 -12.24,-8.18 -24.56,-15.24 -38.37,-14.24 21.15,22.95 14.92,35.46 54.75,59.21l-16.95 -1.92z"/>
   <path class="fil0" d="M1504.49 2295.07c-22.82,-15.9 -28.38,-24.63 -79.83,1.36l-14.66 -9.87c48.23,-23.71 63.18,-27.85 94.49,8.51z"/>
   <path class="fil0" d="M1478.6 2256.05c-43.98,-32.41 -177.19,28.03 -269.14,-13.34 40.59,101.71 104.28,89.87 269.14,13.34zm-44.27 10.18c-30.47,-16.44 -134.77,18.37 -198.44,-2.63 28.11,51.54 84.21,41.38 198.44,2.63z"/>
   <path class="fil0" d="M1834.63 2412.84c6.85,125.62 33.89,213.21 118.48,342.06 14.53,22.17 12.28,34.81 15.83,72.29 41.41,3.25 85.45,-15.75 80.34,-57.56 28.01,14.23 67.64,37.54 100.34,17.25 -1.58,-41.56 -24.1,-66.29 -54.11,-91.88 8.76,-1.71 15.94,-11.59 23.07,-31.92 -12.21,-3.51 -42,-6.45 -71.94,-20.18 -44.45,-20.38 -94.89,-57.81 -120.58,-125.75 -4.3,-4.2 -8.62,-8.49 -12.83,-12.76 7.14,74.32 72.88,131.25 123.13,153.39 26.98,11.9 59.02,11.06 66.13,14.29 -5.47,13.53 -16.79,18.13 -29.84,17.68 28.03,26.06 56.5,50.56 56.88,88.31 -34.29,6.74 -71.1,-15.3 -103.55,-43.23 30.41,70.49 -15.81,72.87 -41.07,79.97 0.69,-26.9 -6.44,-58.31 -18.06,-75.33 -82,-120.04 -111.22,-213.28 -118.64,-308.85 -4.57,-5.89 -9.11,-11.8 -13.58,-17.78z"/>
   <path class="fil0" d="M2058.01 2727.15c-89.04,-46.72 -165.08,-121 -185.72,-267.3 5.25,6.13 10.57,12.19 15.96,18.16 10.23,122.5 87.73,191.38 169.76,249.14z"/>
   <path class="fil0" d="M1724.81 2521.4c5.84,29.26 -8.46,53.94 -24.59,62.11 -28.12,14.29 -63.87,-11.98 -49.23,-40.05 10.17,-26.01 53.17,-16.8 39.91,16.3 10.15,-12.08 8.16,-28.35 -1.12,-38.02 -21.36,-22.27 -50.63,-5.45 -55.19,23.12 -6.24,38.97 31.9,60.69 56.62,55.35 27.53,-5.93 48.43,-37.44 33.6,-78.81z"/>
   <path class="fil0" d="M1800.45 2363.57c-20.7,22.15 -53,61.92 -70.15,110.14 -7.7,21.71 -9.1,45.21 -7.58,70.01 1.66,27.26 7.78,51.06 12.91,77.45 3.69,18.64 3.55,39.41 -16.15,49.94 22.03,-4.02 26.75,-18.37 27.04,-33.35 0.52,-27.51 -3.33,-56.1 -4.59,-83.66 -1.14,-24.92 -1.35,-48.51 2.31,-66.15 11.28,-54.71 32.25,-87.85 58.11,-121.41 -0.64,-0.98 -1.26,-1.95 -1.9,-2.97z"/>
   <path class="fil0" d="M1823.29 2397.26c-7.27,13.88 -14.68,31.66 -16.18,48.9 -2.25,25.3 9.98,79.03 23.54,98.54 5.74,8.22 0.74,-14.96 0.87,-15.81 -1.32,-3.97 -2.54,-7.82 -3.69,-11.63 -14.29,-47.79 -14.1,-86.29 -2.88,-117.65l-1.66 -2.35z"/>
   <path class="fil0" d="M1849.94 2545.8c-16.67,13.68 -27.23,19.52 -44.49,15.72 11.16,5.34 22.64,15.95 27.96,39.22 -10.76,2.56 -39.63,13.63 -52.21,2.96 1.71,23.48 -6.89,48.15 -20.24,63.82 -13.39,15.68 -30.46,24.98 -43.69,22.74 1.96,-0.86 3.03,-8.29 5.27,-8.44 26.46,-1.95 34.5,-12.8 40.72,-33.57 5.78,-19.3 0.9,-48.09 -6.44,-82.3 21.78,32.7 44.19,29.01 57.03,21.99 -7.53,-25.44 -20.48,-23.34 -32.79,-50.02 17.02,2.13 33.44,19.85 51.07,6.32 -6.12,-10.79 -13.43,-34.22 -9.12,-45.02 8.98,30.87 18.56,41.41 26.93,46.58z"/>
   <path class="fil0" d="M1792.86 2428.68c-13.4,30.45 -25.71,74.42 -10.29,111.96 3.37,8.19 19.16,27.29 19.29,26.43 -1.35,-3.91 -3.9,-19.86 -6.54,-23.67 -17.53,-25.52 -13.7,-77.07 -0.04,-115.56l-2.42 0.84z"/>
   <path class="fil0" d="M1735.53 2440.5c-20.21,18.17 -49,41.88 -50.26,74.61 -0.26,7.19 9.81,31.26 10.2,30.65 0.34,-3.34 3.81,-15.95 3.16,-19.64 -4.37,-24.59 15.87,-61.43 38.96,-85.42l-2.06 -0.2z"/>
   <path class="fil0" d="M1765.76 2612.48c43.32,-43.87 76.47,43.31 128.19,21.37 -33.13,76.97 -100.12,40.69 -128.19,-21.37zm16.84 6.34c19.85,-15.06 66.18,38.74 96.94,27.07 -44.15,37.27 -83.7,4.2 -96.94,-27.07z"/>
   <path class="fil0" d="M1723.17 2227.88c1.21,3.54 -37.35,1.18 -33.72,36.72 3.64,35.52 -25.29,46.17 -25.29,46.17l56.59 -13.02 34.54 -12.99c-6.2,-12.3 -12.1,-24.73 -17.74,-37.34 -8.05,-11.51 -14.89,-21.03 -14.38,-19.54z"/>
   <path class="fil0" d="M2501.51 2330.34c-0.94,0.9 -3.18,7.46 -3.82,6.07 -28.93,-60.73 -86.12,-17.95 -66.12,19.15 10.86,20.16 44.51,19.95 47.3,-1.51 3.25,-19.15 -26.81,-27.87 -30.72,-3.39 -1.94,-11 5.38,-19.72 14.82,-21.78 21.78,-4.73 34.02,16.47 26.31,34.98 -10.53,25.17 -47.61,24.84 -61.63,8.62 -28.4,-32.9 -8.59,-73.66 32.76,-75.2 34.27,-1.29 39.04,34.58 41.1,33.06z"/>
   <path class="fil0" d="M2400.19 2422.35c14.87,-6.94 29.02,6.94 8.59,10.92 -32.31,6.29 -54.39,-25.78 -39.54,-50.39 10,-16.58 39.32,-18.16 44.46,5.24 3.27,19.13 -29.23,24.57 -33.1,0.08 -1.97,10.97 4.4,21.11 19.09,23.62 21.96,3.77 35.91,-17.41 28.22,-35.87 -10.53,-25.16 -47.64,-24.83 -61.64,-8.62 -28.37,32.88 -10.19,75.64 34.09,74.79 69.39,-1.36 16.77,-46.82 -0.17,-19.77z"/>
   <path class="fil1" d="M2540.82 2477.75l-0.09 0 0 -0.02c-79.92,0 -156.14,-15.88 -225.63,-44.62 -11.61,-4.79 -22.74,-9.81 -33.38,-15.01l0 -0.04c-56.24,-27.46 -107.42,-63.64 -151.81,-106.71 -13.04,-12.69 -20.9,-19.96 -27.4,-20.48l-0.02 0c-6.48,-0.52 -14.94,5.34 -29.97,18.76l-32.14 30.99 -0.12 0.11 -1.72 1.6c-1.87,1.7 -3.66,3.36 -5,4.7 -8.97,8.79 -12.17,17.18 13.33,42.27l0.05 0 0.02 0.06 0 0.01c17.75,17.47 36.41,33.99 55.99,49.53 19.55,15.52 39.93,30.04 61.1,43.47 108.87,68.97 238.16,108.97 376.79,108.97l0 -0.01 0.07 0 0 0.01c96.27,0 188.01,-19.29 271.57,-54.21 13.7,-5.72 27.15,-11.83 40.14,-18.22 67.59,-33.41 129.03,-77.35 182.12,-129.6 25.51,-25.1 22.34,-33.49 13.38,-42.28l-0.04 0c-1.91,-1.92 -3.39,-3.26 -4.96,-4.7l-1.72 -1.6 -0.15 -0.11 -32.12 -30.99c-15.02,-13.42 -23.46,-19.28 -29.97,-18.76l-0.06 0c-6.45,0.52 -14.29,7.79 -27.34,20.42l0.03 0.01 -0.06 0.06 -0.07 0.04c-14.89,14.41 -30.46,28.05 -46.75,40.84 -16.13,12.69 -33.15,24.65 -50.91,35.8 -90.7,56.83 -198.09,89.71 -313.16,89.71zm-0.09 -17.23l0 -0.03 0.09 0c111.68,0 215.86,-31.85 303.76,-86.95 16.96,-10.67 33.5,-22.29 49.44,-34.8 15.81,-12.41 30.95,-25.64 45.28,-39.56l0 -0.01 0.05 -0.06 0.06 0c15.95,-15.49 25.82,-24.42 38.27,-25.43l0 0c12.48,-1.01 24.27,6.28 43.23,23.22l0.25 0.21 32.2 31.1 0 -0.03 1.76 1.63c2.03,1.88 4.06,3.72 5.37,5.03l-0.04 0.01c16.46,16.15 23.38,30.49 -13.32,66.62 -54.41,53.54 -117.37,98.55 -186.69,132.8 -13.62,6.68 -27.35,12.94 -41.14,18.73 -85.6,35.73 -179.72,55.52 -278.41,55.53l0 0.04 -0.07 0 0 -0.04c-142.17,0 -274.68,-40.97 -386.25,-111.67 -21.68,-13.77 -42.61,-28.64 -62.62,-44.53 -20.01,-15.91 -39.18,-32.86 -57.4,-50.79l0 0 -0.05 -0.06 0 -0.01c-36.73,-36.15 -29.8,-50.47 -13.32,-66.63 1.89,-1.88 3.62,-3.44 5.34,-5.03l1.74 -1.63 0 0.03 32.22 -31.1 0.24 -0.21c18.97,-16.94 30.76,-24.23 43.18,-23.22l0 0c12.51,1.01 22.36,9.94 38.29,25.43 43.07,41.78 92.73,76.87 147.31,103.55l0.03 0c10.91,5.31 21.69,10.18 32.38,14.63 67.38,27.85 141.3,43.23 218.82,43.23z"/>
   <path class="fil1" d="M2540.82 2775.31l-0.1 0 0 -0.05c-91.28,0 -179.31,-13.71 -262.12,-39.14 -40.37,-12.41 -79.61,-27.66 -117.45,-45.48 -194.15,-91.51 -349.57,-251.04 -435.08,-447.56l-5.24 -12 13.28 0 189.97 0 5.17 0 2.5 4.49 0 0c16.88,29.56 35.81,57.76 56.59,84.34 20.83,26.62 43.6,51.76 68.05,75.08 125.7,120.02 296.4,193.83 484.43,193.83l0 -0.02 0.06 0 0 0.02c87,-0.02 170.34,-15.83 247.26,-44.77 25.15,-9.44 49.55,-20.23 72.94,-32.25 121.16,-62.14 221.73,-158.56 288.81,-276.29l2.52 -4.43 5.12 0 190 0 13.26 0 -5.22 12 -0.04 0.1c-19.1,43.84 -41.66,85.86 -67.3,125.6 -25.61,39.71 -54.43,77.32 -86.07,112.48 -162.46,180.4 -398.56,294 -661.34,294l0 0.05zm-0.1 -17.23l0 -0.06 0.1 0 0 0.06c257.59,0 488.96,-111.37 648.24,-288.22 30.91,-34.33 59.14,-71.22 84.37,-110.32 22.85,-35.44 43.15,-72.57 60.67,-111.19l-171.45 0c-68.67,118.6 -170.75,215.74 -293.47,278.69 -24.29,12.46 -49.29,23.53 -74.78,33.12 -78.79,29.63 -164.24,45.84 -253.52,45.84l0 0.06 -0.06 0 0 -0.06c-192.81,0 -367.82,-75.64 -496.65,-198.68 -25.05,-23.87 -48.35,-49.59 -69.69,-76.9 -20.38,-26 -38.94,-53.44 -55.52,-82.07l-171.43 0c84.86,187.18 234.82,338.96 421.18,426.78 36.92,17.41 75.39,32.33 115.13,44.53 81.2,24.95 167.51,38.42 256.88,38.42z"/>
   <path class="fil0" d="M3358.45 2227.88c-1.2,3.54 37.34,1.18 33.74,36.72 -3.62,35.52 25.3,46.17 25.3,46.17l-56.64 -13.02 -40.95 -15.39c0,0 39.75,-58.06 38.55,-54.48z"/>
   <path class="fil1" d="M1822.14 2311.29l55.82 -34.26 25.85 40.67 -9.45 5.8 -18.82 -29.61 -12.35 7.6 17.49 27.56 -9.39 5.79 -17.5 -27.58 -15.21 9.35 19.48 30.66 -9.4 5.79 -26.52 -41.77zm50.39 38.94l8.61 9.52c-3.06,3.14 -4.69,6.23 -4.91,9.33 -0.29,3.05 0.79,6.19 3.15,9.42 2.51,3.38 5.17,5.43 7.91,6.09 2.77,0.69 5.07,0.32 7.02,-1.07 1.29,-0.89 2.1,-2.04 2.41,-3.37 0.36,-1.39 0.2,-3.18 -0.47,-5.46 -0.48,-1.57 -1.82,-4.93 -3.93,-10.12 -2.77,-6.7 -3.93,-11.92 -3.56,-15.69 0.57,-5.31 2.94,-9.48 7.15,-12.45 2.72,-1.96 5.82,-3 9.26,-3.17 3.49,-0.16 6.9,0.7 10.25,2.66 3.34,1.97 6.49,4.97 9.45,8.96 4.89,6.58 7.05,12.57 6.6,17.99 -0.49,5.41 -3.12,9.95 -7.89,13.63l-8.29 -10.26c2.4,-2.37 3.67,-4.77 3.76,-7.11 0.1,-2.35 -0.95,-5.01 -3.14,-7.95 -2.29,-3.08 -4.69,-5.06 -7.26,-5.85 -1.66,-0.56 -3.15,-0.31 -4.53,0.65 -1.26,0.91 -1.97,2.2 -2.1,3.9 -0.14,2.14 1.05,6.22 3.65,12.24 2.56,6.02 4.06,10.77 4.57,14.17 0.51,3.39 0.14,6.59 -1.14,9.61 -1.26,3.05 -3.57,5.77 -6.94,8.16 -3.03,2.16 -6.5,3.39 -10.4,3.64 -3.88,0.21 -7.62,-0.73 -11.15,-2.85 -3.57,-2.11 -7,-5.43 -10.37,-9.98 -4.91,-6.64 -7.1,-12.81 -6.6,-18.58 0.48,-5.77 3.45,-11.15 8.89,-16.06zm32.91 76.51l41.88 -34.55 -12.55 -14.68 8.55 -7.02 33.61 39.35 -8.54 7.02 -12.53 -14.64 -41.9 34.52 -8.52 -10zm76.84 -11.26l16.87 17.21c3.82,3.83 6.4,7.07 7.81,9.68 1.85,3.5 2.7,7.21 2.49,11.17 -0.16,3.92 -1.26,7.84 -3.26,11.71 -2.06,3.9 -5.29,7.93 -9.71,12.14 -3.9,3.7 -7.72,6.43 -11.47,8.15 -4.59,2.09 -9,3.09 -13.25,2.93 -3.24,-0.07 -6.65,-1.1 -10.3,-3.01 -2.7,-1.42 -5.75,-3.89 -9.16,-7.37l-17.36 -17.66 47.34 -44.95zm1.21 17.01l-31.34 29.76 6.89 7.01c2.57,2.62 4.57,4.38 6.04,5.27 1.88,1.14 3.79,1.77 5.68,1.92 1.91,0.11 4.23,-0.5 6.99,-1.87 2.75,-1.4 5.97,-3.82 9.62,-7.3 3.66,-3.47 6.14,-6.44 7.5,-8.95 1.32,-2.5 1.96,-4.83 1.95,-7 -0.05,-2.18 -0.72,-4.37 -2.04,-6.48 -0.99,-1.57 -3.39,-4.3 -7.15,-8.13l-4.14 -4.23zm1.59 76.39l8.43 -9.24 9.37 8.31 -8.43 9.22 -9.37 -8.29zm81.9 -16.03l20.74 15.94c4.11,3.16 7.06,5.65 8.79,7.53 1.72,1.91 3,3.97 3.73,6.28 0.74,2.3 0.95,4.7 0.59,7.29 -0.35,2.6 -1.39,4.99 -3.14,7.21 -1.89,2.38 -4.29,4.07 -7.2,5.06 -2.89,0.98 -5.85,1.13 -8.88,0.42 2.45,3.31 3.66,6.73 3.61,10.17 -0.04,3.5 -1.21,6.73 -3.56,9.67 -1.83,2.33 -4.16,4.16 -7.04,5.51 -2.82,1.33 -5.69,1.94 -8.63,1.76 -2.95,-0.12 -5.95,-1.1 -8.98,-2.95 -1.86,-1.15 -6.15,-4.26 -12.9,-9.35l-17.64 -13.55 40.51 -50.99zm3.72 16.52l-9.34 11.8 6.87 5.27c4.07,3.14 6.66,5.04 7.74,5.69 1.93,1.15 3.86,1.66 5.65,1.41 1.83,-0.23 3.4,-1.15 4.73,-2.79 1.23,-1.57 1.81,-3.22 1.73,-4.9 -0.14,-1.66 -0.95,-3.25 -2.55,-4.79 -0.93,-0.9 -3.86,-3.26 -8.79,-7.06l-6.04 -4.63zm-16.1 20.3l-10.8 13.63 9.68 7.43c3.74,2.89 6.21,4.64 7.44,5.2 1.77,0.94 3.56,1.2 5.39,0.88 1.83,-0.28 3.49,-1.38 4.9,-3.19 1.26,-1.51 1.88,-3.11 1.98,-4.77 0.08,-1.64 -0.4,-3.25 -1.41,-4.84 -1.06,-1.55 -3.96,-4.2 -8.72,-7.85l-8.46 -6.49zm42.95 63.57l15.08 -22.83 0.58 -44.3 13.04 8.33 -1.16 29.76 26.91 -13.35 12.8 8.21 -41.09 18.55 -15.03 22.76 -11.13 -7.13zm100.08 27.98l4.87 -9.81 25.74 12.35 -11.49 23.15c-3.69,1.18 -8.35,1.52 -14.01,1.08 -5.62,-0.47 -10.89,-1.87 -15.76,-4.19 -6.19,-2.99 -10.94,-6.83 -14.28,-11.59 -3.34,-4.77 -4.97,-10.06 -4.94,-15.9 0.06,-5.85 1.46,-11.61 4.21,-17.18 2.99,-6.03 6.96,-10.81 11.89,-14.28 4.92,-3.48 10.48,-5.27 16.72,-5.37 4.73,-0.11 9.92,1.17 15.59,3.86 7.34,3.52 12.33,7.79 14.94,12.8 2.62,5.01 3.2,10.49 1.74,16.38l-12.92 -3.48c0.57,-3.28 0.11,-6.28 -1.36,-9.03 -1.49,-2.77 -3.94,-4.97 -7.39,-6.64 -5.22,-2.49 -10.15,-2.85 -14.86,-1.09 -4.7,1.81 -8.62,5.9 -11.8,12.29 -3.43,6.89 -4.44,12.82 -3.02,17.77 1.41,4.96 4.62,8.63 9.7,11.03 2.49,1.22 5.24,1.94 8.23,2.19 2.98,0.23 5.75,0.08 8.22,-0.41l3.64 -7.38 -13.66 -6.55zm39.11 8.52c2.37,-6.17 5.34,-10.99 8.82,-14.44 2.64,-2.53 5.6,-4.59 8.98,-6.14 3.37,-1.52 6.72,-2.35 10.06,-2.4 4.47,-0.19 9.17,0.7 14.18,2.59 9.05,3.42 15.22,8.89 18.48,16.49 3.29,7.53 3,16.25 -0.82,26.08 -3.85,9.74 -9.49,16.39 -17.03,19.83 -7.53,3.46 -15.82,3.5 -24.85,0.1 -9.15,-3.47 -15.32,-8.93 -18.59,-16.45 -3.27,-7.51 -3.02,-16.07 0.77,-25.66zm12.93 4.41c-2.68,6.83 -3.08,12.63 -1.28,17.36 1.87,4.74 5.24,8.02 10.19,9.9 4.93,1.87 9.68,1.66 14.22,-0.67 4.56,-2.3 8.2,-6.95 10.91,-13.95 2.74,-6.92 3.18,-12.64 1.43,-17.23 -1.76,-4.56 -5.19,-7.82 -10.31,-9.76 -5.12,-1.9 -9.88,-1.73 -14.39,0.52 -4.46,2.26 -8.07,6.85 -10.77,13.83zm64.74 55.16l-3.28 -68.64 13.8 4.1 1.68 50.62 29.63 -41.18 13.51 4.07 -41.78 55.08 -13.56 -4.05zm46.38 13.31l11.43 -63.69 48.08 8.37 -1.95 10.76 -34.96 -6.06 -2.56 14.12 32.56 5.63 -1.96 10.73 -32.49 -5.62 -3.14 17.31 36.2 6.29 -1.9 10.74 -49.31 -8.58zm64.2 10.42l6.87 -64.31 27.82 2.86c7.01,0.72 12.02,1.84 15.07,3.31 3.04,1.49 5.36,3.8 6.95,6.93 1.61,3.17 2.17,6.64 1.75,10.45 -0.52,4.84 -2.36,8.67 -5.6,11.52 -3.19,2.84 -7.74,4.36 -13.55,4.6 2.68,1.94 4.83,3.95 6.48,6.12 1.64,2.16 3.78,5.94 6.4,11.24l6.65 13.39 -15.8 -1.66 -8.03 -14.98c-2.87,-5.38 -4.88,-8.76 -5.97,-10.16 -1.1,-1.45 -2.35,-2.46 -3.67,-3.1 -1.35,-0.63 -3.54,-1.09 -6.61,-1.41l-2.68 -0.27 -2.85 26.83 -13.23 -1.36zm17.21 -35.76l9.74 1.02c6.37,0.63 10.36,0.81 11.98,0.44 1.62,-0.37 2.97,-1.17 4,-2.34 1.04,-1.19 1.67,-2.73 1.83,-4.69 0.27,-2.16 -0.14,-3.98 -1.18,-5.42 -1.05,-1.46 -2.59,-2.47 -4.72,-3.04 -1.04,-0.26 -4.23,-0.65 -9.62,-1.22l-10.31 -1.05 -1.72 16.3zm52.98 42.56l2.31 -64.68 12.93 0.46 25.38 44.11 1.54 -43.18 12.36 0.43 -2.31 64.63 -13.34 -0.45 -25.02 -43.09 -1.48 42.18 -12.37 -0.41zm69.8 1.11l-4.62 -64.55 19.84 -1.35 15.05 43.2 8.64 -44.82 19.89 -1.36 4.59 64.56 -12.31 0.78 -3.58 -50.76 -9.45 51.69 -12.75 0.87 -16.62 -49.91 3.6 50.81 -12.28 0.84zm80.36 -6.13l-11.43 -63.69 48.06 -8.32 1.91 10.78 -34.93 6.06 2.52 14.09 32.53 -5.63 1.92 10.75 -32.51 5.63 3.06 17.34 36.22 -6.3 1.95 10.76 -49.3 8.53zm64.08 -9.6l-17.02 -62.5 12.48 -3.28 37.39 34.87 -11.37 -41.72 11.95 -3.15 17.03 62.48 -12.91 3.4 -36.74 -34.01 11.14 40.75 -11.95 3.16zm81.98 -22.31l-17.8 -50.84 -18.44 6.25 -3.64 -10.34 49.44 -16.73 3.65 10.33 -18.43 6.25 17.8 50.81 -12.58 4.27zm50.39 -51.79c-2.86,-5.95 -4.33,-11.39 -4.43,-16.28 -0.05,-3.56 0.52,-7.1 1.74,-10.57 1.26,-3.42 2.98,-6.37 5.21,-8.8 2.98,-3.28 6.89,-6 11.76,-8.2 8.78,-4.03 17.07,-4.58 24.92,-1.64 7.8,2.94 13.98,9.16 18.51,18.72 4.49,9.48 5.38,18.04 2.68,25.82 -2.71,7.74 -8.45,13.63 -17.18,17.61 -8.88,4.08 -17.19,4.65 -24.96,1.75 -7.74,-2.95 -13.85,-9.04 -18.25,-18.41zm12.19 -6.06c3.17,6.65 7.11,10.97 11.85,12.95 4.75,1.99 9.54,1.9 14.32,-0.32 4.79,-2.17 7.96,-5.69 9.42,-10.52 1.46,-4.8 0.58,-10.57 -2.65,-17.36 -3.18,-6.77 -7.08,-11.09 -11.64,-12.99 -4.56,-1.94 -9.34,-1.78 -14.3,0.52 -4.96,2.24 -8.16,5.78 -9.62,10.48 -1.44,4.76 -0.59,10.48 2.62,17.24zm71.6 2.63l-32.86 -55.99 39.05 -22.2 5.59 9.5 -27.58 15.63 7.78 13.23 23.81 -13.49 5.59 9.47 -23.83 13.51 14.01 23.81 -11.56 6.53zm73.23 -43.92l-37.77 -52.97 10.91 -7.49 16.75 23.53 5.22 -38.7 14.63 -10.03 -5.58 34.62 44.45 17.61 -14.08 9.66 -32.54 -14.65 -2.54 14.93 11.42 16.02 -10.87 7.47zm56.72 -40.11l-42.3 -49.53 37.36 -30.82 7.15 8.38 -27.18 22.43 9.36 10.99 25.33 -20.87 7.11 8.34 -25.3 20.86 11.52 13.47 28.14 -23.21 7.13 8.34 -38.32 31.62zm49.84 -41.18l-47.35 -44.94 19.45 -19.77c4.89,-5 8.83,-8.19 11.91,-9.63 3.08,-1.45 6.35,-1.81 9.86,-1.13 3.5,0.73 6.65,2.42 9.46,5.08 3.55,3.37 5.48,7.19 5.77,11.42 0.3,4.23 -1.25,8.71 -4.66,13.37 3.2,-0.93 6.16,-1.32 8.89,-1.27 2.78,0.05 7.06,0.69 12.96,1.94l14.8 3.09 -11.03 11.24 -16.97 -3.01c-6.05,-1.07 -10.01,-1.59 -11.84,-1.65 -1.81,0 -3.37,0.31 -4.75,0.97 -1.32,0.68 -3.04,2.07 -5.18,4.23l-1.87 1.89 19.78 18.75 -9.23 9.42zm-18.08 -35.36l6.8 -6.92c4.43,-4.51 7.01,-7.5 7.75,-9.02 0.69,-1.47 0.9,-2.97 0.57,-4.52 -0.33,-1.52 -1.2,-2.96 -2.59,-4.34 -1.59,-1.49 -3.31,-2.29 -5.11,-2.41 -1.79,-0.07 -3.6,0.52 -5.33,1.81 -0.86,0.65 -3.15,2.9 -6.9,6.69l-7.2 7.32 12.01 11.39zm104.8 -58.42l-9.32 10.93 -15.13 -5.15 -16.91 19.79 7.95 13.56 -9.04 10.61 -33.93 -60.87 9.02 -10.58 67.36 21.71zm-35.67 1.98l-24.55 -8.6 13.02 22.12 11.53 -13.52zm42.62 -11.15l-52.81 -37.74 7.83 -10.55 43.81 31.33 19.43 -26.3 8.95 6.44 -27.21 36.82zm65.88 -96.45l-7.66 12.06 -15.73 -3 -13.95 21.94 9.82 12.31 -7.46 11.75 -42.23 -55.64 7.44 -11.74 69.77 12.32zm-35.03 6.84l-25.54 -5.12 16 20.07 9.54 -14.95z"/>
   <path class="fil1" d="M2193.5 2383.66l44.37 26.7c9.63,5.77 11.82,16.86 6.57,33.3l-1.68 4.41c-6.94,11.58 -17.4,16.6 -31.39,15.08l6 28.52 -0.81 1.35 -20.24 -12.17 -9.61 -50.4 0.4 -0.58 24.69 14.82c5.7,3.45 11.44,1.79 17.23,-4.88 3.53,-5.87 2.57,-11.2 -2.87,-15.99l-28.69 -17.26 -32.31 53.76 -2.09 0.54 -11.71 -7.03 -0.52 -2.13 40.53 -67.49 2.13 -0.55zm113.71 149.37l-45.66 -17.53c-4.58,-1.76 -7.71,-4.66 -9.44,-8.66 -1.71,-4.02 -1.71,-8.23 -0.05,-12.61l23.69 -61.68 15.36 5.89 -23.66 61.71 45.66 17.51 23.69 -61.71 15.25 5.84 -23.7 61.73c-1.63,4.27 -4.4,7.37 -8.25,9.33 -3.86,1.94 -8.15,2 -12.89,0.18zm138.74 -32.38l-32.18 -6.28 -12.59 64.91 -16.04 -3.1 12.6 -64.9 -32.02 -6.24 3.18 -16.11 80.18 15.58 -3.13 16.14zm23.66 -11.78l51.69 2.72c11.22,0.59 18.37,9.35 21.42,26.33l0.6 4.66c-0.72,13.48 -7.57,22.85 -20.62,28.09l18.66 22.38 -0.05 1.53 -23.62 -1.22 -32.11 -39.98 0.05 -0.7 28.76 1.52c6.66,0.32 10.98,-3.82 12.92,-12.43 0.35,-6.84 -2.99,-11.1 -10.03,-12.82l-33.42 -1.73 -3.29 62.64 -1.64 1.47 -13.61 -0.72 -1.46 -1.61 4.13 -78.66 1.62 -1.47zm168.5 79.28l-48.88 4.27c-8.69,0.76 -14.25,-2.4 -16.65,-9.54 -0.5,-1.65 -0.88,-3.45 -1.04,-5.42l-4.34 -49.45c-0.37,-4.29 0.86,-8.25 3.63,-11.81 2.79,-3.6 6.54,-5.59 11.2,-5.99l48.9 -4.29c4.57,-0.38 8.58,0.88 11.99,3.84 3.38,2.94 5.31,6.66 5.69,11.12l4.31 49.47c0.99,10.95 -3.97,16.86 -14.81,17.8zm-1.43 -16.4l-4.34 -49.43 -48.89 4.26 4.35 49.46 48.88 -4.29zm128.25 -14.71l-9.85 2.83 -67.78 -36.43 14.78 51.62 -15.67 4.52 -22.73 -79.38 9.73 -2.76 67.92 36.41 -14.81 -51.65 15.67 -4.5 22.74 79.34zm47.25 -19.07l-15.23 5.85 -29.56 -77.06 15.22 -5.82 29.57 77.03zm114.6 -59.59l-19.56 10.83 -37.98 -13.68 -8.49 39.47 -19.68 10.9 14.35 -55.08 -54.38 -17.12 19.67 -10.92 38.01 13.68 8.51 -39.46 19.53 -10.83 -14.14 55.1 54.16 17.11z"/>
   <path class="fil2 str0" d="M2541.71 1229.79c193.82,0 350.76,156.97 350.76,350.59 0,193.76 -156.94,350.73 -350.76,350.73 -193.58,0 -350.54,-156.97 -350.54,-350.73 0,-193.63 156.96,-350.59 350.54,-350.59z"/>
   <path class="fil0" d="M2327.68 1308.08l153.87 151.33c11.32,1.79 16.85,-1.71 21.78,-10.45l-5.32 -213.97 -10.76 1.92 1.54 208.07 -151.47 -145.94 -9.64 9.04zm253.49 -72.49l-0.19 215.09c6.74,9.29 13.09,10.75 22.77,8.03l149.44 -157.25 -8.45 -6.4 -148.43 150.56 -3.91 -210.27 -11.23 0.24z"/>
   <path class="fil0" d="M2199.05 1537.21l218.33 -1.32c9.28,-6.78 10.72,-13.13 8.05,-22.81l-152.91 -146.29 -8.41 7.7 148.18 146.02 -215.48 4.69 2.24 12.01z"/>
   <path class="fil0" d="M2271.36 1790.92l154.7 -155.6c1.82,-11.33 -1.64,-16.86 -10.41,-21.8l-215.28 4.67 -0.49 11.38 211.76 -1.52 -150.38 155.94 10.1 6.93z"/>
   <path class="fil0" d="M2501.7 1923.01l0.84 -223.55c-6.72,-9.26 -13.07,-10.71 -22.78,-8.01l-152.95 159.58 7.66 8.43 152.76 -154.88 2.42 220.68 12.05 -2.25z"/>
   <path class="fil0" d="M2761.29 1849.21l-159.28 -158.43c-11.34,-1.79 -16.85,1.66 -21.81,10.4l3.94 223.47 11.37 0.55 -0.74 -220.02 159.63 154.15 6.89 -10.12z"/>
   <path class="fil0" d="M2885.21 1613.65l-219.05 0.68c-9.3,6.69 -10.71,13.06 -8.04,22.74l161.07 150 8.42 -7.68 -156.35 -149.76 216.2 -3.9 -2.25 -12.08z"/>
   <path class="fil0" d="M2807.72 1363.74l-150.25 151.08c-1.79,11.38 1.66,16.89 10.43,21.85l215.26 -4.68 0.48 -11.39 -211.75 1.5 145.9 -151.45 -10.07 -6.91z"/>
   <g>
    <path class="fil0" d="M2495.98 1929l0 -324.53 0 324.53zm90.55 -329.74l0 329.74 0 -329.74zm-46.64 -72.65c28.35,0 51.34,22.96 51.34,51.34 0,7.6 -1.7,14.86 -4.7,21.31 -8.07,17.74 -25.9,29.98 -46.64,29.98 -18.61,0 -34.96,-9.93 -43.91,-24.77 -4.67,-7.74 -7.37,-16.82 -7.37,-26.52 0,-28.38 22.93,-51.34 51.28,-51.34z"/>
    <path id="1" class="fil3 str0" d="M2495.98 1929l0 -324.53m90.55 -5.21l0 329.74m-46.64 -402.39c28.35,0 51.34,22.96 51.34,51.34 0,7.6 -1.7,14.86 -4.7,21.31 -8.07,17.74 -25.9,29.98 -46.64,29.98 -18.61,0 -34.96,-9.93 -43.91,-24.77 -4.67,-7.74 -7.37,-16.82 -7.37,-26.52 0,-28.38 22.93,-51.34 51.28,-51.34z"/>
   </g>
  </g>
  <path class="fil1" d="M1313.56 3397.09c0,5.5 1.38,11.4 4.14,17.65 2.75,6.26 6.62,11.14 11.63,14.64 -3.5,-4 -5.64,-8.38 -6.38,-13.14 -0.75,-4.76 -1.13,-8.63 -1.13,-11.65l0 -19.51c0,-20.54 6,-36.31 18.03,-47.33 12.01,-11.01 32.04,-16.51 60.08,-16.51 27.02,0 48.44,6.26 64.21,18.77 15.76,12.52 23.65,29.04 23.65,49.56l0 30.04c0,20.03 -8.01,36.31 -24.03,48.83 -16.02,12.51 -37.55,18.77 -64.59,18.77l-63.08 0c-30.04,0 -54.2,-6.89 -72.48,-20.65 -18.27,-13.77 -27.41,-33.18 -27.41,-58.2l0 -217.79c0,-25.05 9.27,-44.44 27.8,-58.21 18.52,-13.77 42.79,-20.67 72.84,-20.67l62.33 0c27.04,0 48.57,6.27 64.59,18.79 16.02,12.52 24.03,28.79 24.03,48.81l0 30.04c0,20.53 -7.89,37.05 -23.65,49.57 -15.77,12.51 -37.19,18.78 -64.21,18.78 -28.04,0 -48.07,-5.51 -60.08,-16.52 -12.03,-11.03 -18.03,-26.79 -18.03,-47.32l0 -19.52c0,-2.5 0.5,-6.39 1.49,-11.65 1.01,-5.25 3.27,-9.88 6.77,-13.89 -5.01,3.5 -9.01,8.39 -12.01,14.64 -3.01,6.26 -4.51,12.15 -4.51,17.66l0 196.01zm99.89 0.75c0,-7.01 -0.89,-13.02 -2.64,-18.02 -1.75,-5.01 -4.63,-7.51 -8.64,-7.51 -4.01,0 -6.87,2.36 -8.63,7.14 -1.74,4.75 -2.63,10.88 -2.63,18.39l0 12.02c0,6.51 0.75,12.38 2.25,17.64 1.51,5.26 4.51,7.89 9.01,7.89 7.52,0 11.28,-8.51 11.28,-25.53l0 -12.02zm0 -208.78c0,-17.03 -3.76,-25.54 -11.28,-25.54 -4.5,0 -7.5,2.64 -9.01,7.89 -1.5,5.25 -2.25,11.15 -2.25,17.65l0 12.02c0,7.5 0.89,13.64 2.63,18.4 1.76,4.75 4.62,7.13 8.63,7.13 4.01,0 6.89,-2.51 8.64,-7.51 1.75,-5.01 2.64,-11.01 2.64,-18.02l0 -12.02zm446.18 219.3c0,12.5 -3.24,23.9 -9.77,34.16 -6.5,10.27 -15.01,18.91 -25.52,25.92 -10.52,7.01 -22.79,12.51 -36.8,16.51 -14.02,4.01 -28.55,5.77 -43.57,5.26 -16.02,-0.5 -31.67,-2.37 -46.94,-5.63 -15.26,-3.25 -27.4,-9.89 -36.41,-19.91 -5.01,7.02 -11.77,13.03 -20.28,18.03 -8.51,5.02 -21.79,7.51 -39.8,7.51 -24.04,0 -43.19,-7.25 -57.45,-21.77 -14.28,-14.52 -21.42,-34.55 -21.42,-60.08l0 -78.12c0,-25.02 8.77,-44.93 26.29,-59.7 17.52,-14.77 41.55,-22.15 72.1,-22.15l9.77 0 0 -60.08c0,-14.02 3.11,-26.15 9.37,-36.43 6.26,-10.27 14.65,-18.78 25.18,-25.54 10.5,-6.75 22.66,-11.88 36.41,-15.38 13.77,-3.51 28.16,-5.26 43.18,-5.26 15.02,0 29.55,1.75 43.57,5.26 14.01,3.5 26.28,8.63 36.8,15.38 10.51,6.76 19.02,15.41 25.52,25.91 6.53,10.52 9.77,22.53 9.77,36.06l0 60.08 9.76 0c30.54,0 54.7,7.38 72.47,22.15 17.79,14.77 26.67,34.68 26.67,59.7l0 78.12c0,25.53 -7.27,45.68 -21.78,60.45 -14.52,14.77 -38.8,22.15 -72.84,22.15l-12.03 0 0 -54.82 12.03 0c5.5,0 9.75,-2.88 12.76,-8.64 3,-5.75 4.5,-13.39 4.5,-22.91l0 -69.09c0,-10.01 -1.5,-17.9 -4.5,-23.65 -3.01,-5.76 -8.76,-8.63 -17.28,-8.63l-9.76 0 0 105.14zm-78.85 -105.14l-73.61 0 0 93.87c0,26.03 12.27,39.05 36.8,39.05 12.51,0 21.79,-3.51 27.8,-10.52 6,-7.01 9.01,-16.27 9.01,-27.78l0 -94.62zm0 -54.83l0 -54.83c0,-12.01 -3.26,-20.52 -9.76,-25.53 -6.53,-5 -15.53,-7.51 -27.05,-7.51 -10.01,0 -18.64,2.39 -25.9,7.13 -7.27,4.76 -10.9,13.4 -10.9,25.91l0 54.83 73.61 0zm-166.73 186.24c6.51,0 10.76,-2.87 12.77,-8.62 2,-5.77 3.01,-14.4 3.01,-25.92l0 -96.87 -10.52 0c-8.52,0 -14.02,3.62 -16.52,10.89 -2.51,7.25 -3.76,14.39 -3.76,21.39l0 69.09c0,8.53 0.88,15.65 2.63,21.42 1.75,5.75 5.88,8.62 12.39,8.62zm497.13 55.58c-24.54,-2 -43.42,-6.38 -56.7,-13.13 -13.26,-6.77 -22.9,-14.41 -28.91,-22.92 -6.01,-8.51 -9.51,-17.02 -10.51,-25.53 -1.01,-8.51 -1.5,-15.01 -1.5,-19.52l0 -215.55c0,-25.03 9.38,-44.93 28.16,-59.69 18.77,-14.78 44.68,-22.18 77.72,-22.18l79.62 0c12.52,0 24.78,2.02 36.79,6.02 12.02,4.01 22.53,9.52 31.54,16.53 9.01,7.01 16.27,15.52 21.79,25.53 5.51,10.01 8.25,21.28 8.25,33.79l0 215.55c0,12.52 -2.37,23.78 -7.13,33.8 -4.76,10.01 -11.4,18.63 -19.91,25.9 -8.5,7.26 -18.39,12.76 -29.66,16.52 -11.27,3.75 -23.15,5.63 -35.68,5.63 -27.02,0 -49.31,-7.38 -66.81,-22.15 -17.55,-14.77 -26.32,-34.67 -26.32,-59.7l0 -114.16c0,-12.52 1.26,-23.77 3.77,-33.79 2.51,-10.01 6.76,-18.65 12.77,-25.92 6,-7.26 14.15,-12.76 24.4,-16.51 10.27,-3.76 23.16,-5.64 38.69,-5.64 3.48,0 8,0.75 13.5,2.25 5.52,1.51 10.53,4 15.02,7.51l0 -25.53c0,-10.01 -3.12,-17.65 -9.38,-22.91 -6.25,-5.25 -14.39,-8.14 -24.4,-8.63l-60.08 0c-12.51,-0.5 -21.53,2.37 -27.05,8.63 -5.49,6.27 -8.25,14.4 -8.25,24.41l0 205.77c0,7.51 0.75,14.53 2.25,21.03 1.5,6.52 7.51,10.02 18.02,10.52l0 54.07zm77.36 -85.62c0,21.54 5.51,32.3 16.51,32.3 10.02,0 15.02,-10.76 15.02,-32.3l0 -104.39c0,-10.01 -1.24,-17.89 -3.74,-23.65 -2.51,-5.75 -6.26,-8.64 -11.28,-8.64 -5.5,0 -9.64,2.89 -12.38,8.64 -2.75,5.76 -4.13,13.64 -4.13,23.65l0 104.39zm452.94 -170.48c0,12.03 -2.5,22.54 -7.51,31.55 -5.01,9.01 -15.02,16.53 -30.05,22.53 11.03,4.51 20.04,11.89 27.04,22.16 7.02,10.26 10.52,20.9 10.52,31.92l0 39.8c0,12.51 -2.87,23.66 -8.64,33.43 -5.75,9.74 -13.39,18.14 -22.9,25.14 -9.51,7.02 -20.4,12.39 -32.67,16.16 -12.27,3.75 -24.91,5.63 -37.92,5.63l-102.89 0c-4.01,0 -7.64,1.12 -10.89,3.38 -3.25,2.25 -5.13,7.89 -5.64,16.89 0,9.02 2.01,14.65 6.02,16.89 4,2.27 7.5,3.4 10.51,3.4l200.52 0 0 54.07 -200.52 0c-27.04,0 -49.44,-6.15 -67.22,-18.41 -17.77,-12.27 -26.66,-31.17 -26.66,-56.7 0,-25.03 8.89,-42.94 26.66,-53.7 17.78,-10.76 40.18,-16.15 67.22,-16.15l102.89 0c5.99,0 11.64,-3.25 16.89,-9.75 5.26,-6.53 7.89,-14.77 7.89,-24.78l0 -30.8c0,-10.01 -1.63,-17.77 -4.88,-23.29 -3.25,-5.51 -10.9,-8.25 -22.9,-8.25l0 -54.82c10.5,0 17.77,-2.76 21.77,-8.26 4,-5.52 6.01,-13.27 6.01,-23.28l0 -30.05c0,-10.01 -2.63,-17.89 -7.89,-23.66 -5.25,-5.75 -11.41,-8.62 -18.39,-8.62l-92.39 0c-5.49,0 -10.88,2.62 -16.14,7.87 -5.25,5.26 -8.38,12.15 -9.39,20.66l0 22.52c4.01,-2.49 8.52,-4.25 13.52,-5.25 5.01,-1.01 9.26,-1.5 12.77,-1.5 27.04,0 47.69,7.38 61.95,22.14 14.27,14.79 21.41,34.43 21.41,58.97l0 32.28c0,25.04 -8.88,44.94 -26.65,59.72 -17.78,14.77 -40.19,22.15 -67.22,22.15 -27.04,0 -49.32,-7.38 -66.85,-22.15 -17.52,-14.78 -26.28,-34.68 -26.28,-59.72l0 -130.67c0,-12.51 2.88,-23.78 8.64,-33.79 5.76,-10.01 13.39,-18.52 22.9,-25.53 9.51,-7.01 20.4,-12.52 32.67,-16.53 12.27,-4 25.17,-6.02 38.67,-6.02l93.89 0c13.01,0 25.65,2.02 37.92,6.02 12.27,4.01 23.16,9.52 32.67,16.53 9.51,7.01 17.15,15.52 22.9,25.53 5.77,10.01 8.64,21.28 8.64,33.79l0 40.55zm-189.25 63.1c0,-10.03 -1.38,-17.91 -4.13,-23.66 -2.75,-5.76 -6.89,-8.64 -12.39,-8.64 -5.51,0 -9.52,3.37 -12.02,10.13 -2.5,6.77 -3.76,14.16 -3.76,22.17l0 23.28c0,10.01 1.26,17.77 3.76,23.28 2.5,5.5 6.51,8.26 12.02,8.26 5.5,0 9.64,-2.76 12.39,-8.26 2.75,-5.51 4.13,-13.27 4.13,-23.28l0 -23.28zm472.47 99.88c0,5.5 1.37,11.4 4.13,17.65 2.75,6.26 6.63,11.14 11.64,14.64 -3.51,-4 -5.63,-8.38 -6.38,-13.14 -0.75,-4.76 -1.13,-8.63 -1.13,-11.65l0 -19.51c0,-20.54 6,-36.31 18.02,-47.33 12.02,-11.01 32.05,-16.51 60.08,-16.51 27.04,0 48.45,6.26 64.22,18.77 15.77,12.52 23.64,29.04 23.64,49.56l0 30.04c0,20.03 -8,36.31 -24.02,48.83 -16.02,12.51 -37.55,18.77 -64.59,18.77l-63.09 0c-30.04,0 -54.19,-6.89 -72.46,-20.65 -18.27,-13.77 -27.42,-33.18 -27.42,-58.2l0 -217.79c0,-25.05 9.27,-44.44 27.79,-58.21 18.53,-13.77 42.81,-20.67 72.85,-20.67l62.33 0c27.04,0 48.57,6.27 64.59,18.79 16.02,12.52 24.02,28.79 24.02,48.81l0 30.04c0,20.53 -7.87,37.05 -23.64,49.57 -15.77,12.51 -37.18,18.78 -64.22,18.78 -28.03,0 -48.06,-5.51 -60.08,-16.52 -12.02,-11.03 -18.02,-26.79 -18.02,-47.32l0 -19.52c0,-2.5 0.5,-6.39 1.5,-11.65 1,-5.25 3.26,-9.88 6.76,-13.89 -5,3.5 -9.01,8.39 -12.01,14.64 -3,6.26 -4.51,12.15 -4.51,17.66l0 196.01zm99.88 0.75c0,-7.01 -0.87,-13.02 -2.63,-18.02 -1.75,-5.01 -4.63,-7.51 -8.63,-7.51 -4,0 -6.88,2.36 -8.64,7.14 -1.75,4.75 -2.62,10.88 -2.62,18.39l0 12.02c0,6.51 0.74,12.38 2.24,17.64 1.5,5.26 4.51,7.89 9.02,7.89 7.51,0 11.26,-8.51 11.26,-25.53l0 -12.02zm0 -208.78c0,-17.03 -3.75,-25.54 -11.26,-25.54 -4.51,0 -7.52,2.64 -9.02,7.89 -1.5,5.25 -2.24,11.15 -2.24,17.65l0 12.02c0,7.5 0.87,13.64 2.62,18.4 1.76,4.75 4.64,7.13 8.64,7.13 4,0 6.88,-2.51 8.63,-7.51 1.76,-5.01 2.63,-11.01 2.63,-18.02l0 -12.02zm479.24 396.53c10,-0.5 17.4,-2 22.14,-4.5 4.77,-2.51 7.15,-5.27 7.15,-8.27l0 -24.03c0,-4 -3.88,-7.14 -11.64,-9.39 -7.76,-2.24 -18.16,-3.38 -31.16,-3.38 -12.53,0 -22.66,1.14 -30.42,3.38 -7.76,2.25 -11.65,5.39 -11.65,9.39l0 24.03c0,3.51 2.64,6.51 7.9,9.01 5.25,2.51 12.37,3.76 21.39,3.76l0 45.06c-27.54,0 -50.32,-4.12 -68.34,-12.39 -18.02,-8.26 -27.04,-18.15 -27.04,-29.66l0 -54.07c0,-6.52 2.76,-12.27 8.27,-17.28 5.5,-5.01 13.13,-9.4 22.9,-13.14 9.76,-3.75 21.28,-6.63 34.55,-8.65 13.27,-2 27.41,-2.99 42.44,-2.99 15.51,0 29.91,0.99 43.17,2.99 13.28,2.02 24.78,4.9 34.55,8.65 9.77,3.74 17.39,8.13 22.91,13.14 5.51,5.01 8.25,10.76 8.25,17.28l0 54.07c0,11.01 -9.01,20.77 -27.03,29.28 -18.02,8.52 -40.81,12.77 -68.34,12.77l0 -45.06zm-233.57 0c10.01,-0.5 17.4,-2 22.15,-4.5 4.76,-2.51 7.14,-5.27 7.14,-8.27l0 -24.03c0,-4 -3.88,-7.14 -11.64,-9.39 -7.76,-2.24 -17.9,-3.38 -30.42,-3.38 -13.01,0 -23.41,1.14 -31.17,3.38 -7.75,2.25 -11.63,5.39 -11.63,9.39l0 24.03c0,3.51 2.61,6.51 7.88,9.01 5.26,2.51 12.39,3.76 21.4,3.76l0 45.06c-28.03,0 -50.8,-4.12 -68.33,-12.39 -17.53,-8.26 -26.29,-18.15 -26.29,-29.66l0 -54.07c0,-13.02 10.13,-23.3 30.42,-30.79 20.28,-7.52 46.18,-11.27 77.72,-11.27 15.03,0 29.18,0.99 42.44,2.99 13.27,2.02 24.78,4.9 34.55,8.65 9.75,3.74 17.52,8.13 23.27,13.14 5.77,5.01 8.65,10.76 8.65,17.28l0 54.07c0,5.5 -2.51,10.76 -7.51,15.76 -5.01,5.01 -11.77,9.52 -20.28,13.52 -8.51,4.01 -18.65,7.15 -30.42,9.4 -11.77,2.24 -24.41,3.37 -37.93,3.37l0 -45.06zm217.79 -476.89c35.55,0 63.84,7.51 84.87,22.54 21.03,15.02 31.53,34.78 31.53,59.33l0 218.54c0,12.02 -2.86,23.15 -8.63,33.41 -5.74,10.27 -13.38,18.91 -22.9,25.92 -9.51,7.01 -20.4,12.51 -32.67,16.51 -12.27,4.01 -25.15,6.01 -38.68,6.01 -13.01,0 -25.64,-2 -37.93,-6.01 -12.26,-4 -23.14,-9.64 -32.66,-16.89 -9.52,-7.26 -17.15,-16.15 -22.91,-26.66 -5.75,-10.52 -8.63,-22.28 -8.63,-35.3l0 -210.28c0,-10.02 -2.51,-17.9 -7.52,-23.65 -5.01,-5.77 -10.75,-8.65 -17.27,-8.65 -6,0 -11.5,2.64 -16.52,7.89 -5.01,5.25 -8,12.63 -9.01,22.15l0 293.65 -77.36 0 0 -293.65c-1,-9.52 -4.13,-16.9 -9.39,-22.15 -5.26,-5.25 -10.63,-7.89 -16.14,-7.89 -6.5,0 -12.4,2.88 -17.65,8.65 -5.26,5.75 -7.89,13.63 -7.89,23.65l0 208.77c0,21.54 11.03,32.3 33.05,32.3l0 54.07c-37.05,0 -64.58,-7.38 -82.61,-22.15 -18.02,-14.77 -27.04,-34.67 -27.04,-59.7l0 -218.54c0,-12.52 2.88,-23.79 8.64,-33.8 5.76,-10.02 13.39,-18.53 22.91,-25.53 9.51,-7.02 20.4,-12.54 32.65,-16.54 12.28,-4.01 24.93,-6 37.94,-6 11.52,0 23.16,1.75 34.93,5.26 11.76,3.5 21.15,9.51 28.16,18.02 7.5,-8.51 17.51,-14.52 30.04,-18.02 12.52,-3.51 24.29,-5.26 35.29,-5.26 12.53,0 25.04,1.99 37.55,6 12.51,4 23.66,9.52 33.42,16.54 9.77,7 17.53,15.64 23.28,25.9 5.77,10.27 8.39,21.4 7.89,33.43l0 210.27c0,10.01 1.75,18.52 5.26,25.54 3.5,7 10.01,10.51 19.52,10.51 8.51,0 14.9,-3.38 19.16,-10.14 4.25,-6.76 6.38,-15.14 6.38,-25.15l0 -205.78c0,-10.02 -3.75,-17.9 -11.26,-23.65 -7.51,-5.77 -16.77,-8.65 -27.8,-8.65l0 -54.82zm288.48 478.4c10.01,-0.51 17.28,-1.88 21.78,-4.13 4.51,-2.26 6.77,-4.89 6.77,-7.89l0 -25.53c0,-4.02 -3.89,-7.02 -11.65,-9.03 -7.76,-1.99 -17.91,-3 -30.42,-3 -12.02,0 -21.9,1.01 -29.66,3 -7.77,2.01 -11.65,5.01 -11.65,9.03l0 25.53c0,3.5 2.64,6.38 7.89,8.63 5.27,2.26 12.14,3.39 20.65,3.39l0 44.3c-27.53,0 -50.21,-4 -67.97,-12.01 -17.77,-8.02 -26.66,-17.77 -26.66,-29.29l0 -54.08c0,-13 10.28,-23.15 30.79,-30.41 20.53,-7.26 46.07,-10.89 76.61,-10.89 15.52,0 29.8,1 42.8,3.01 13.02,1.99 24.42,4.75 34.18,8.25 9.77,3.51 17.4,7.77 22.89,12.77 5.52,5.01 8.27,10.77 8.27,17.27l0 54.08c0,11.01 -9.01,20.65 -27.02,28.91 -18.03,8.27 -40.57,12.39 -67.6,12.39l0 -44.3zm-2.26 -149.46c10.02,-1 16.78,-4.75 20.29,-11.26 3.5,-6.51 5.25,-13.78 5.25,-21.79l0 -208.77c0,-10.02 -3.25,-17.9 -9.76,-23.65 -6.52,-5.77 -15.52,-8.65 -27.04,-8.65 -10.51,0 -19.16,2.88 -25.91,8.65 -6.75,5.75 -10.14,13.63 -10.14,23.65l0 208.77c0,7.51 2.51,14.77 7.51,21.79 5.01,7 11.77,10.51 20.27,10.51l0 54.07c-15.01,0 -28.9,-2.25 -41.67,-6.75 -12.76,-4.52 -23.78,-10.51 -33.04,-18.03 -9.27,-7.51 -16.66,-16.15 -22.16,-25.91 -5.51,-9.76 -8.27,-20.15 -8.27,-31.16l0 -218.54c0,-12.52 3.02,-23.79 9.02,-33.8 6.01,-10.02 14.01,-18.53 24.04,-25.53 10,-7.02 21.9,-12.54 35.66,-16.54 13.77,-4.01 28.66,-6 44.69,-6 16.03,0 30.91,1.99 44.68,6 13.77,4 25.8,9.52 36.06,16.54 10.26,7 18.27,15.64 24.04,25.9 5.75,10.27 8.62,21.4 8.62,33.43l0 218.54c0,10.5 -2.5,20.65 -7.51,30.41 -4.99,9.76 -12.01,18.4 -21.02,25.91 -9.02,7.52 -19.78,13.64 -32.3,18.4 -12.52,4.77 -26.27,7.13 -41.31,7.13l0 -53.32zm192.34 -433.32l0 31.54c0,12.01 -2.73,22.64 -8.25,31.91 -5.51,9.26 -12.9,17.02 -22.15,23.27 -9.28,6.27 -19.91,10.9 -31.93,13.91 -12.01,3 -24.78,4.5 -38.31,4.5 -13,0 -25.53,-1.5 -37.53,-4.5 -12.02,-3.01 -22.66,-7.64 -31.92,-13.91 -9.27,-6.25 -16.65,-14.01 -22.16,-23.27 -5.51,-9.27 -8.26,-20.15 -8.26,-32.67l0 -30.78 76.6 0 0 26.28c0,10.01 2.38,17.14 7.13,21.4 4.76,4.26 10.15,6.38 16.14,6.38 6.53,0 12.03,-2 16.54,-6.01 4.5,-4 6.75,-11.01 6.75,-21.02l0 -27.03 77.35 0z"/>
  <path class="fil1" d="M1069.12 4190.85c10.23,-1.02 17.14,-4.87 20.73,-11.51 3.59,-6.67 5.37,-14.1 5.37,-22.29l0 -213.54c0,-10.25 -3.33,-18.31 -9.98,-24.2 -6.66,-5.9 -15.88,-8.83 -27.66,-8.83 -10.75,0 -19.58,2.93 -26.5,8.83 -6.91,5.89 -10.37,13.95 -10.37,24.2l0 213.54c0,7.68 2.58,15.11 7.68,22.29 5.12,7.16 12.05,10.74 20.74,10.74l0 55.31c-15.37,0 -29.56,-2.3 -42.63,-6.9 -13.05,-4.63 -24.32,-10.76 -33.79,-18.45 -9.48,-7.68 -17.03,-16.52 -22.66,-26.5 -5.64,-9.98 -8.45,-20.61 -8.45,-31.88l0 -223.52c0,-12.81 3.07,-24.33 9.22,-34.58 6.13,-10.24 14.33,-18.94 24.58,-26.11 10.23,-7.17 22.4,-12.81 36.48,-16.9 14.08,-4.1 29.32,-6.15 45.7,-6.15 16.39,0 31.63,2.05 45.7,6.15 14.09,4.09 26.39,9.73 36.88,16.9 10.5,7.17 18.69,16 24.58,26.5 5.89,10.51 8.83,21.9 8.83,34.19l0 223.52c0,10.76 -2.56,21.12 -7.67,31.11 -5.13,9.99 -12.29,18.82 -21.51,26.5 -9.22,7.69 -20.23,13.96 -33.03,18.82 -12.82,4.88 -26.89,7.3 -42.24,7.3l0 -54.54zm360.34 80.65c0,25.1 -9.49,45.33 -28.43,60.69 -18.95,15.36 -44.55,23.05 -76.82,23.05 -30.21,0 -55.18,-7.56 -74.89,-22.66 -19.72,-15.11 -29.57,-35.47 -29.57,-61.08l0 -72.97c0,-12.8 2.81,-24.19 8.45,-34.18 5.63,-9.98 13.18,-18.56 22.66,-25.73 9.47,-7.16 20.22,-12.8 32.26,-16.91 12.04,-4.09 24.19,-6.39 36.49,-6.91l-0.77 0c7.17,-1.01 13.69,-4.98 19.59,-11.91 5.88,-6.9 8.83,-15.22 8.83,-24.96l0 -133.64c0,-10.26 -2.3,-18.32 -6.92,-24.21 -4.6,-5.89 -9.98,-8.83 -16.13,-8.83 -5.63,0 -10.62,2.94 -14.98,8.83 -4.34,5.89 -6.52,13.95 -6.52,24.21l0 59.14 -79.11 0 0 -64.53c0,-12.8 2.8,-24.32 8.44,-34.57 5.63,-10.24 13.06,-18.95 22.28,-26.12 9.21,-7.16 19.84,-12.8 31.87,-16.9 12.04,-4.1 24.71,-6.14 38.02,-6.14 13.31,0 26.13,2.04 38.42,6.14 12.28,4.1 23.04,9.74 32.25,16.9 9.23,7.17 16.65,16.01 22.29,26.51 5.61,10.49 8.43,21.89 8.43,34.18l0 143.65c0,9.21 -2.54,18.31 -7.67,27.27 -5.13,8.95 -14.34,17.53 -27.66,25.73 8.71,5.11 15.75,11.01 21.14,17.66 5.37,6.66 9.33,12.8 11.9,18.44 2.57,5.12 4.23,9.85 4.99,14.21 0.77,4.35 1.16,8.58 1.16,12.67l0 72.97zm-79.12 -12.27c-7.69,4.6 -17.16,6.9 -28.43,6.9 -9.21,0 -16.9,-2.05 -23.05,-6.15l0 6.91c0,10.25 2.32,18.2 6.92,23.82 4.61,5.64 10.76,8.45 18.43,8.45 17.41,0 26.13,-10.75 26.13,-32.27l0 -7.66zm-25.35 -47.64c5.12,0 9.85,-1.53 14.2,-4.61 4.35,-3.07 6.54,-8.19 6.54,-15.34 0,-5.66 -1.8,-10.39 -5.39,-14.23 -3.58,-3.84 -8.96,-5.76 -16.13,-5.76 -12.8,0 -19.45,6.4 -19.97,19.2 0,8.7 2.18,14.35 6.53,16.9 4.36,2.56 9.09,3.84 14.22,3.84zm229.63 -62.21c0,5.62 1.41,11.65 4.22,18.05 2.82,6.39 6.79,11.39 11.91,14.97 -3.58,-4.1 -5.76,-8.58 -6.52,-13.44 -0.76,-4.86 -1.16,-8.83 -1.16,-11.91l0 -19.96c0,-21.01 6.15,-37.14 18.44,-48.4 12.29,-11.27 32.78,-16.9 61.45,-16.9 27.65,0 49.55,6.4 65.68,19.2 16.13,12.81 24.2,29.71 24.2,50.7l0 30.73c0,20.48 -8.2,37.13 -24.58,49.93 -16.39,12.8 -38.41,19.2 -66.07,19.2l-64.53 0c-30.71,0 -55.43,-7.04 -74.12,-21.12 -18.69,-14.08 -28.04,-33.93 -28.04,-59.53l0 -222.76c0,-25.62 9.48,-45.45 28.42,-59.54 18.96,-14.09 43.79,-21.14 74.51,-21.14l63.76 0c27.66,0 49.68,6.42 66.07,19.22 16.38,12.8 24.58,29.45 24.58,49.93l0 30.72c0,21 -8.07,37.9 -24.2,50.7 -16.13,12.8 -38.03,19.22 -65.68,19.22 -28.67,0 -49.16,-5.65 -61.45,-16.9 -12.29,-11.28 -18.44,-27.41 -18.44,-48.41l0 -19.97c0,-2.56 0.52,-6.52 1.54,-11.9 1.02,-5.38 3.34,-10.12 6.91,-14.22 -5.12,3.59 -9.22,8.58 -12.29,14.98 -3.07,6.4 -4.61,12.43 -4.61,18.06l0 200.49zm102.17 0.77c0,-7.18 -0.9,-13.33 -2.7,-18.45 -1.79,-5.11 -4.74,-7.68 -8.83,-7.68 -4.1,0 -7.03,2.43 -8.82,7.3 -1.8,4.87 -2.7,11.14 -2.7,18.83l0 12.29c0,6.65 0.77,12.66 2.31,18.05 1.53,5.37 4.61,8.06 9.21,8.06 7.69,0 11.53,-8.7 11.53,-26.11l0 -12.29zm0 -213.55c0,-17.42 -3.84,-26.12 -11.53,-26.12 -4.6,0 -7.68,2.69 -9.21,8.07 -1.54,5.37 -2.31,11.4 -2.31,18.05l0 12.29c0,7.68 0.9,13.95 2.7,18.83 1.79,4.86 4.72,7.28 8.82,7.28 4.09,0 7.04,-2.55 8.83,-7.68 1.8,-5.12 2.7,-11.26 2.7,-18.43l0 -12.29zm371.87 398.66l-122.13 0c-18.44,0 -35.35,-2.3 -50.7,-6.91 -15.37,-4.6 -28.81,-11.91 -40.33,-21.88 -11.52,-10 -20.48,-22.43 -26.88,-37.26 -6.41,-14.86 -9.6,-32.78 -9.6,-53.78l0 -275.76c0,-12.81 3.44,-24.32 10.36,-34.57 6.92,-10.24 16.01,-18.95 27.27,-26.12 11.26,-7.16 24.08,-12.81 38.41,-16.9 14.33,-4.1 29.19,-6.14 44.56,-6.14l0 55.31c-10.24,0 -19.85,2.94 -28.81,8.83 -8.97,5.89 -13.44,13.95 -13.44,24.21l0 267.3c0,23.05 4.47,40.33 13.44,51.86 8.96,11.51 20.87,17.27 35.72,17.27l122.13 0 0 54.54zm132.08 -174.36c0,12.79 -3.19,24.45 -9.6,34.94 -6.39,10.51 -15.12,19.34 -26.11,26.51 -11.02,7.16 -23.69,12.8 -38.03,16.9 -14.34,4.1 -29.45,6.14 -45.33,6.14 -15.86,0 -30.97,-2.04 -45.31,-6.14 -14.34,-4.1 -26.9,-9.87 -37.64,-17.28 -10.75,-7.43 -19.33,-16.27 -25.73,-26.51 -6.4,-10.24 -9.61,-21.77 -9.61,-34.56l0 -52.24 90.65 0 0 47.62c0,9.73 2.56,17.54 7.69,23.44 5.11,5.88 11.76,8.83 19.95,8.83 8.19,0 14.99,-2.95 20.36,-8.83 5.39,-5.9 8.07,-13.71 8.07,-23.44l0 -46.85c0,-9.72 -2.81,-17.67 -8.46,-23.82 -5.63,-6.14 -13.05,-9.73 -22.26,-10.75 -15.88,0 -30.87,-2.05 -44.95,-6.14 -14.08,-4.1 -26.36,-9.73 -36.86,-16.9 -10.5,-7.17 -18.83,-16 -24.96,-26.51 -6.16,-10.48 -9.23,-21.88 -9.23,-34.17l0 -55.31c0,-12.8 3.21,-24.33 9.61,-34.56 6.4,-10.25 14.98,-19.09 25.73,-26.51 10.74,-7.43 23.3,-13.19 37.64,-17.3 14.34,-4.08 29.45,-6.12 45.31,-6.12 15.88,0 30.99,2.04 45.33,6.12 14.34,4.11 27.01,9.87 38.03,17.3 10.99,7.42 19.72,16.39 26.11,26.89 6.41,10.49 9.6,21.89 9.6,34.18l0 52.23 -90.64 0 0 -46.86c0,-10.24 -2.68,-18.43 -8.07,-24.58 -5.37,-6.14 -12.17,-9.21 -20.36,-9.21 -8.19,0 -14.84,3.07 -19.95,9.21 -5.13,6.15 -7.69,14.34 -7.69,24.58l0 44.56c0,10.24 2.41,18.3 7.3,24.19 4.87,5.89 11.64,9.35 20.34,10.38 15.88,0 30.99,2.04 45.33,6.14 14.34,4.09 27.01,9.86 38.03,17.28 10.99,7.42 19.72,16.26 26.11,26.51 6.41,10.23 9.6,21.76 9.6,34.56l0 56.08z"/>
  <path class="fil1" d="M2286.03 4155.52c0,13.82 2.57,22.78 7.68,26.88 5.13,4.1 11.02,6.15 17.67,6.15 6.66,0 12.68,-2.3 18.05,-6.92 5.38,-4.6 8.07,-13.31 8.07,-26.11l0 -211.23c0,-12.82 -2.69,-21.52 -8.07,-26.13 -5.37,-4.6 -11.39,-6.91 -18.05,-6.91 -6.65,0 -12.54,2.16 -17.67,6.53 -5.11,4.35 -7.68,13.18 -7.68,26.51l0 59.14 -79.11 0 0 -64.53c0,-12.8 2.95,-24.32 8.83,-34.57 5.88,-10.24 13.7,-18.95 23.42,-26.12 9.74,-7.16 20.87,-12.8 33.41,-16.9 12.55,-4.1 25.48,-6.14 38.8,-6.14 13.83,0 27.01,2.04 39.57,6.14 12.54,4.1 23.68,9.74 33.41,16.9 9.73,7.17 17.53,16.01 23.42,26.51 5.89,10.49 8.85,21.89 8.85,34.18l0 221.23c0,12.29 -2.96,23.69 -8.85,34.18 -5.89,10.5 -13.69,19.33 -23.42,26.5 -9.73,7.17 -20.87,12.8 -33.41,16.9 -12.56,4.1 -25.74,6.15 -39.57,6.15 -13.32,0 -26.25,-1.93 -38.8,-5.77 -12.54,-3.83 -23.67,-9.47 -33.41,-16.9 -9.72,-7.42 -17.54,-16.26 -23.42,-26.5 -5.88,-10.24 -8.83,-21.76 -8.83,-34.56l0 -61.46 79.11 0 0 56.85zm350.37 -301.12c17.92,0 32.12,1.54 42.63,4.62 10.5,3.06 19.6,8.45 27.28,16.11 8.7,-8.7 19.06,-14.58 31.1,-17.67 12.04,-3.06 24.71,-4.59 38.03,-4.59 11.78,0 23.16,1.79 34.18,5.38 11.01,3.58 20.87,8.71 29.57,15.35 8.19,-7.17 18.56,-12.41 31.11,-15.74 12.55,-3.33 24.96,-4.99 37.24,-4.99 13.33,0 26.38,1.92 39.19,5.77 12.79,3.84 24.06,9.34 33.8,16.49 9.73,7.18 17.54,15.89 23.43,26.14 5.88,10.23 8.83,21.76 8.83,34.56l0 225.07c0,12.79 -3.33,24.32 -9.98,34.56 -6.67,10.24 -15.36,18.95 -26.13,26.13 -10.74,7.16 -23.29,12.67 -37.63,16.5 -14.34,3.84 -29.18,5.77 -44.55,5.77l0 -56.09c11.27,0 20.48,-2.68 27.65,-8.05 7.16,-5.38 10.75,-12.93 10.75,-22.67l0 -215.85c0,-10.24 -2.55,-18.17 -7.69,-23.8 -5.11,-5.64 -10.99,-8.45 -17.67,-8.45 -6.13,0 -11.76,2.55 -16.9,7.67 -5.1,5.13 -8.19,12.29 -9.2,21.52l0 303.41 -79.89 0 0 -302.65c-1.03,-9.73 -4.1,-17.15 -9.22,-22.28 -5.11,-5.12 -10.76,-7.67 -16.89,-7.67 -6.15,0 -11.78,2.55 -16.9,7.67 -5.13,5.13 -8.2,12.55 -9.22,22.28l0 302.65 -79.9 0 0 -295.74c0,-10.24 -2.94,-18.95 -8.83,-26.11 -5.88,-7.18 -14.72,-10.51 -26.5,-9.99l-69.89 0c-5.65,0 -10.76,2.94 -15.37,8.84 -4.61,5.88 -6.92,13.95 -6.92,24.2l0 17.66c5.13,-1.04 9.99,-1.54 14.6,-1.54 27.66,0 50.44,7.68 68.37,23.04 17.93,15.36 26.89,35.85 26.89,61.45l0 117.54c0,26.11 -8.96,46.72 -26.89,61.83 -17.93,15.1 -40.71,22.66 -68.37,22.66 -27.14,0 -49.54,-7.56 -67.21,-22.66 -17.67,-15.11 -26.5,-35.72 -26.5,-61.83l0 -222c0,-12.8 2.82,-24.32 8.45,-34.57 5.63,-10.24 13.05,-19.07 22.27,-26.5 9.22,-7.44 19.97,-13.19 32.26,-17.28 12.3,-4.1 25.11,-6.15 38.42,-6.15l72.2 0zm-64.52 194.34c0,-10.24 -1.16,-18.3 -3.47,-24.2 -2.3,-5.88 -6.27,-8.82 -11.9,-8.82 -5.12,0 -8.83,2.94 -11.14,8.82 -2.3,5.9 -3.46,13.96 -3.46,24.2l0 108.31c0,9.74 1.16,17.54 3.46,23.44 2.31,5.87 6.02,8.83 11.14,8.83 5.63,0 9.6,-2.96 11.9,-8.83 2.31,-5.9 3.47,-13.7 3.47,-23.44l0 -108.31zm484.02 -215.85c0,-10.24 -0.9,-18.17 -2.69,-23.8 -1.79,-5.64 -6.28,-8.45 -13.44,-8.45 -6.66,0 -10.89,2.81 -12.68,8.45 -1.79,5.63 -2.69,13.56 -2.69,23.8l0 10.76 -78.35 0 0 -16.13c0,-25.61 8.71,-45.97 26.12,-61.06 17.41,-15.13 39.94,-22.66 67.6,-22.66 27.13,0 49.67,7.53 67.6,22.66 17.91,15.09 26.88,35.45 26.88,61.06l0 414.03 -78.35 0 0 -408.66zm470.19 328.01c0,12.79 -3.32,24.45 -9.98,34.94 -6.66,10.51 -15.37,19.34 -26.12,26.51 -10.76,7.16 -23.31,12.8 -37.64,16.9 -14.33,4.1 -29.19,5.88 -44.55,5.37 -16.39,-0.5 -32.39,-2.43 -48.01,-5.75 -15.62,-3.34 -28.04,-10.12 -37.25,-20.37 -5.13,7.17 -12.05,13.32 -20.75,18.44 -8.7,5.13 -22.27,7.68 -40.7,7.68 -24.59,0 -44.18,-7.42 -58.76,-22.27 -14.61,-14.85 -21.91,-35.34 -21.91,-61.45l0 -79.9c0,-25.59 8.97,-45.96 26.89,-61.06 17.94,-15.11 42.51,-22.67 73.75,-22.67l9.98 0 0 -61.44c0,-14.35 3.2,-26.75 9.6,-37.26 6.41,-10.51 14.98,-19.21 25.73,-26.12 10.76,-6.91 23.19,-12.15 37.26,-15.74 14.08,-3.59 28.8,-5.37 44.17,-5.37 15.36,0 30.22,1.78 44.55,5.37 14.33,3.59 26.88,8.83 37.64,15.74 10.75,6.91 19.46,15.76 26.12,26.5 6.66,10.76 9.98,23.05 9.98,36.88l0 61.44 9.99 0c31.24,0 55.94,7.56 74.12,22.67 18.19,15.1 27.28,35.47 27.28,61.06l0 79.9c0,26.11 -7.43,46.72 -22.29,61.83 -14.84,15.1 -39.68,22.66 -74.5,22.66l-12.29 0 0 -56.07 12.29 0c5.63,0 9.98,-2.96 13.06,-8.83 3.05,-5.9 4.61,-13.7 4.61,-23.44l0 -70.66c0,-10.25 -1.56,-18.32 -4.61,-24.2 -3.08,-5.89 -8.96,-8.83 -17.67,-8.83l-9.99 0 0 107.54zm-80.66 -107.54l-75.28 0 0 96.02c0,26.62 12.55,39.94 37.65,39.94 12.79,0 22.28,-3.59 28.42,-10.76 6.14,-7.17 9.21,-16.64 9.21,-28.41l0 -96.79zm0 -56.09l0 -56.07c0,-12.29 -3.33,-20.99 -9.98,-26.12 -6.67,-5.1 -15.88,-7.67 -27.65,-7.67 -10.24,0 -19.08,2.44 -26.5,7.29 -7.44,4.86 -11.15,13.7 -11.15,26.5l0 56.07 75.28 0zm-170.52 190.5c6.65,0 11,-2.94 13.05,-8.81 2.05,-5.91 3.08,-14.74 3.08,-26.52l0 -99.08 -10.75 0c-8.71,0 -14.34,3.72 -16.9,11.13 -2.57,7.43 -3.85,14.73 -3.85,21.9l0 70.66c0,8.73 0.9,16 2.7,21.91 1.78,5.87 6.01,8.81 12.67,8.81zm454.71 -440.12l0 32.25c0,12.29 -2.82,23.16 -8.45,32.64 -5.63,9.47 -13.19,17.41 -22.66,23.8 -9.48,6.41 -20.36,11.15 -32.65,14.23 -12.29,3.06 -25.35,4.6 -39.17,4.6 -13.33,0 -26.13,-1.54 -38.41,-4.6 -12.29,-3.08 -23.17,-7.82 -32.65,-14.23 -9.48,-6.39 -17.02,-14.33 -22.67,-23.8 -5.64,-9.48 -8.44,-20.61 -8.44,-33.41l0 -31.48 78.35 0 0 26.87c0,10.24 2.44,17.53 7.3,21.89 4.86,4.36 10.37,6.52 16.52,6.52 6.65,0 12.28,-2.04 16.9,-6.14 4.6,-4.09 6.91,-11.27 6.91,-21.5l0 -27.64 79.12 0zm320.27 106.75c36.35,0 65.28,7.68 86.8,23.05 21.51,15.37 32.26,35.58 32.26,60.69l0 223.52c0,12.3 -2.94,23.69 -8.83,34.18 -5.89,10.51 -13.7,19.34 -23.43,26.51 -9.74,7.16 -20.87,12.8 -33.42,16.9 -12.53,4.1 -25.74,6.14 -39.56,6.14 -13.31,0 -26.24,-2.04 -38.79,-6.14 -12.54,-4.1 -23.69,-9.87 -33.41,-17.28 -9.73,-7.43 -17.54,-16.52 -23.43,-27.28 -5.9,-10.75 -8.83,-22.78 -8.83,-36.1l0 -215.08c0,-10.25 -2.56,-18.31 -7.69,-24.2 -5.11,-5.9 -11.02,-8.83 -17.66,-8.83 -6.15,0 -11.78,2.69 -16.9,8.07 -5.13,5.37 -8.19,12.92 -9.22,22.65l0 300.35 -79.11 0 0 -300.35c-1.03,-9.73 -4.23,-17.28 -9.62,-22.65 -5.37,-5.38 -10.87,-8.07 -16.5,-8.07 -6.66,0 -12.67,2.93 -18.06,8.83 -5.37,5.89 -8.07,13.95 -8.07,24.2l0 213.54c0,22.02 11.28,33.03 33.81,33.03l0 55.31c-37.9,0 -66.08,-7.56 -84.5,-22.66 -18.43,-15.11 -27.65,-35.46 -27.65,-61.07l0 -223.52c0,-12.81 2.94,-24.33 8.83,-34.58 5.89,-10.24 13.7,-18.94 23.43,-26.11 9.73,-7.17 20.87,-12.81 33.41,-16.9 12.55,-4.1 25.47,-6.15 38.8,-6.15 11.77,0 23.67,1.8 35.72,5.38 12.03,3.59 21.64,9.73 28.8,18.43 7.68,-8.7 17.92,-14.84 30.73,-18.43 12.8,-3.58 24.83,-5.38 36.1,-5.38 12.8,0 25.61,2.05 38.41,6.15 12.8,4.09 24.18,9.73 34.18,16.9 9.98,7.17 17.92,16 23.8,26.5 5.91,10.51 8.59,21.9 8.07,34.19l0 215.07c0,10.24 1.8,18.95 5.38,26.13 3.59,7.16 10.25,10.74 19.97,10.74 8.71,0 15.24,-3.46 19.59,-10.36 4.36,-6.92 6.52,-15.5 6.52,-25.73l0 -210.48c0,-10.25 -3.84,-18.31 -11.51,-24.2 -7.68,-5.9 -17.15,-8.83 -28.42,-8.83l0 -56.08zm211.32 -106.75l0 32.25c0,12.29 -2.81,23.16 -8.45,32.64 -5.63,9.47 -13.18,17.41 -22.65,23.8 -9.48,6.41 -20.36,11.15 -32.64,14.23 -12.31,3.06 -25.36,4.6 -39.19,4.6 -13.31,0 -26.11,-1.54 -38.4,-4.6 -12.29,-3.08 -23.18,-7.82 -32.65,-14.23 -9.48,-6.39 -17.02,-14.33 -22.66,-23.8 -5.64,-9.48 -8.45,-20.61 -8.45,-33.41l0 -31.48 78.36 0 0 26.87c0,10.24 2.42,17.53 7.29,21.89 4.86,4.36 10.38,6.52 16.51,6.52 6.67,0 12.3,-2.04 16.9,-6.14 4.6,-4.09 6.92,-11.27 6.92,-21.5l0 -27.64 79.11 0z"/>
 </g>
</svg>
